<svg width="506" height="500" viewBox="0 0 506 500" fill="none" xmlns="http://www.w3.org/2000/svg">
<path d="M252.585 500C392.083 500 505.169 441.478 505.169 369.288C505.169 297.097 392.083 238.576 252.585 238.576C113.086 238.576 0 297.097 0 369.288C0 441.478 113.086 500 252.585 500Z" fill="#F5F5F5"/>
<path d="M100.725 32.9532L91.0759 38.5239C91.0759 38.093 91.16 37.6725 91.16 37.2521V34.4562C91.16 29.4846 87.6599 27.4665 83.361 29.9576C81.5043 31.0889 79.9184 32.6138 78.7152 34.4247C78.0005 28.1182 73.1024 25.8374 67.1533 29.2849C60.6997 32.9952 55.4443 42.045 55.4443 49.4866V53.691C55.4258 55.3579 55.7852 57.0073 56.4954 58.5154L48.4757 63.1402C47.2083 63.96 46.1531 65.0685 45.3968 66.3748C44.6404 67.6811 44.2043 69.148 44.1242 70.6554C44.1242 73.4092 46.0582 74.5233 48.4441 73.1464L100.725 42.97C101.982 42.1474 103.029 41.0404 103.779 39.7385C104.53 38.4366 104.963 36.9763 105.045 35.4758C105.045 32.7009 103.111 31.5763 100.725 32.9532Z" fill="#EBEBEB"/>
<path d="M147.14 53.8381L139.856 58.0424C139.898 57.7217 139.919 57.3987 139.919 57.0754V54.9732C139.919 51.2209 137.292 49.7179 134.033 51.5783C132.636 52.4364 131.442 53.5876 130.533 54.9522C129.997 50.2329 126.329 48.4776 121.799 51.0737C116.932 53.8801 112.991 60.7016 112.991 66.3249V69.4781C112.962 70.7379 113.217 71.9879 113.737 73.1359L107.693 76.6255C106.742 77.2442 105.95 78.0789 105.382 79.0615C104.814 80.0441 104.486 81.1469 104.425 82.2803C104.425 84.3824 105.886 85.2023 107.693 84.1617L147.14 61.3848C148.092 60.7661 148.884 59.9314 149.452 58.9488C150.02 57.9662 150.348 56.8633 150.409 55.73C150.409 53.6594 148.99 52.787 147.14 53.8381Z" fill="#EBEBEB"/>
<path d="M407.671 439.721C436.284 439.721 459.479 426.328 459.479 409.807C459.479 393.286 436.284 379.893 407.671 379.893C379.058 379.893 355.863 393.286 355.863 409.807C355.863 426.328 379.058 439.721 407.671 439.721Z" fill="#E0E0E0"/>
<path d="M72.7766 438.943L26.8025 412.393C24.2063 410.9 24.2063 408.472 26.8025 406.98L284.064 258.62C285.519 257.884 287.127 257.5 288.757 257.5C290.388 257.5 291.996 257.884 293.451 258.62L339.435 285.17C342.021 286.663 342.021 289.091 339.435 290.583L82.1628 438.943C80.7079 439.679 79.1002 440.063 77.4697 440.063C75.8392 440.063 74.2315 439.679 72.7766 438.943Z" fill="#E0E0E0"/>
<path d="M319.675 344.346L314.01 341.045C301.029 333.551 280.533 333.183 268.33 340.226L246.93 352.555C246.567 352.764 246.303 353.108 246.194 353.512C246.086 353.916 246.143 354.347 246.352 354.709C246.561 355.072 246.905 355.336 247.309 355.445C247.713 355.553 248.144 355.497 248.506 355.288L269.864 342.958C281.195 336.41 300.283 336.778 312.391 343.768L318.109 347.079C323.68 350.295 326.749 354.436 326.749 358.851C326.749 363.265 323.68 367.407 318.109 370.623L239.814 415.819C227.695 422.819 207.987 422.809 195.868 415.819L173.06 402.67C160.079 395.176 138.953 395.176 125.972 402.67L120.254 405.95C113.39 409.912 109.606 415.189 109.606 420.791C109.606 425.962 112.886 430.702 118.845 434.139L139.257 445.933L130.849 450.883C127.012 453.143 127.033 456.811 130.849 459.04L146.247 467.963C146.384 468.01 146.503 468.098 146.588 468.216C146.672 468.334 146.718 468.475 146.718 468.62C146.718 468.765 146.672 468.906 146.588 469.024C146.503 469.142 146.384 469.23 146.247 469.277L144.965 470.002C144.334 470.36 144.334 470.948 144.965 471.316L146.951 472.462C147.304 472.643 147.695 472.738 148.092 472.738C148.488 472.738 148.879 472.643 149.232 472.462L156.19 468.468C156.545 468.292 156.935 468.2 157.331 468.2C157.726 468.2 158.117 468.292 158.471 468.468L171.084 475.825C171.436 476.002 171.825 476.094 172.219 476.094C172.613 476.094 173.002 476.002 173.354 475.825L175.351 474.669C175.982 474.312 175.982 473.723 175.351 473.355L162.738 465.998C162.108 465.63 162.108 465.041 162.738 464.684L167.594 461.877C167.945 461.696 168.335 461.601 168.73 461.601C169.125 461.601 169.514 461.696 169.865 461.877L182.541 469.182C182.892 469.364 183.281 469.459 183.676 469.459C184.071 469.459 184.46 469.364 184.811 469.182L186.829 467.963C186.966 467.917 187.086 467.828 187.17 467.71C187.255 467.593 187.3 467.451 187.3 467.306C187.3 467.161 187.255 467.02 187.17 466.902C187.086 466.784 186.966 466.696 186.829 466.649L174.216 459.292C174.079 459.245 173.96 459.157 173.875 459.039C173.791 458.921 173.745 458.78 173.745 458.635C173.745 458.49 173.791 458.349 173.875 458.231C173.96 458.113 174.079 458.025 174.216 457.978L180.523 454.362C180.66 454.316 180.779 454.227 180.864 454.109C180.948 453.992 180.993 453.85 180.993 453.705C180.993 453.56 180.948 453.419 180.864 453.301C180.779 453.183 180.66 453.095 180.523 453.048L178.526 451.903C178.173 451.721 177.782 451.626 177.385 451.626C176.988 451.626 176.597 451.721 176.245 451.903L174.258 453.048C173.904 453.224 173.513 453.316 173.118 453.316C172.722 453.316 172.332 453.224 171.977 453.048L152.501 441.802C151.533 441.307 150.461 441.049 149.374 441.049C148.287 441.049 147.215 441.307 146.247 441.802L142.368 444.083C142.236 443.91 142.072 443.764 141.885 443.652L120.538 431.333C115.598 428.474 112.875 424.711 112.875 420.707C112.875 416.334 116.186 411.92 121.946 408.598L127.664 405.287C139.783 398.298 159.491 398.298 171.599 405.287L194.281 418.562C207.273 426.057 228.389 426.057 241.38 418.562L319.675 373.366C326.265 369.561 329.891 364.411 329.891 358.861C329.891 353.312 326.265 348.14 319.675 344.346Z" fill="#E0E0E0"/>
<path d="M426.927 408.43C426.517 388.155 434.474 369.835 441.285 360.816C448.096 351.798 459.521 342.948 467.467 345.471C474.825 347.783 474.331 357.421 465.607 364.043C456.883 370.665 443.734 379.031 440.139 390.183L431.331 410.658L426.927 408.43Z" fill="#698AFF"/>
<path opacity="0.15" d="M426.927 408.43C426.517 388.155 434.474 369.835 441.285 360.816C448.096 351.798 459.521 342.948 467.467 345.471C474.825 347.783 474.331 357.421 465.607 364.043C456.883 370.665 443.734 379.031 440.139 390.183L431.331 410.658L426.927 408.43Z" fill="black"/>
<path d="M429.345 406.496C429.452 406.481 429.552 406.433 429.63 406.357C429.707 406.281 429.758 406.183 429.776 406.076C431.667 394.85 435.43 381.901 441.821 371.684C448.695 360.711 458.638 353.974 464.461 351.651C464.582 351.602 464.679 351.507 464.73 351.386C464.781 351.266 464.783 351.131 464.734 351.01C464.71 350.948 464.674 350.893 464.628 350.846C464.582 350.799 464.527 350.761 464.466 350.736C464.405 350.71 464.34 350.697 464.274 350.697C464.208 350.697 464.143 350.711 464.083 350.736C458.165 353.112 447.928 360.101 440.885 371.369C434.463 381.627 430.7 394.629 428.798 405.918C428.787 405.982 428.79 406.048 428.805 406.111C428.82 406.174 428.847 406.234 428.885 406.287C428.923 406.34 428.971 406.384 429.027 406.418C429.082 406.452 429.144 406.475 429.208 406.485L429.345 406.496Z" fill="white"/>
<path d="M434.253 412.834C435.241 408.987 439.74 402.554 447.139 397.141C455.327 391.161 465.817 388.228 468.161 383.677C470.946 378.211 466.269 373.25 457.724 374.543C449.178 375.836 433.17 388.155 429.881 410.28L434.253 412.834Z" fill="#698AFF"/>
<path d="M432.487 408.871C432.582 408.862 432.673 408.825 432.747 408.766C432.822 408.706 432.878 408.626 432.908 408.535C439.477 388.47 454.444 381.081 461.444 379.977C461.509 379.967 461.57 379.944 461.625 379.91C461.681 379.876 461.729 379.831 461.767 379.778C461.805 379.726 461.832 379.666 461.847 379.603C461.862 379.539 461.865 379.474 461.854 379.41C461.844 379.345 461.821 379.284 461.787 379.229C461.753 379.173 461.708 379.125 461.655 379.087C461.603 379.049 461.543 379.022 461.48 379.007C461.417 378.992 461.351 378.989 461.287 379C453.551 380.219 438.668 387.745 431.962 408.22C431.921 408.345 431.932 408.481 431.991 408.599C432.05 408.717 432.152 408.807 432.277 408.85C432.345 408.872 432.416 408.88 432.487 408.871Z" fill="white"/>
<path d="M140.981 441.802C140.705 441.8 140.433 441.728 140.193 441.591L118.846 429.262C112.886 425.825 109.607 421.085 109.607 415.914C109.607 410.301 113.391 405.035 120.254 401.072L125.972 397.761C138.953 390.267 160.079 390.267 173.06 397.761L195.858 410.931C207.977 417.921 227.685 417.921 239.804 410.931L318.099 365.735C323.669 362.519 326.738 358.378 326.738 353.953C326.738 349.527 323.669 345.397 318.099 342.18L312.381 338.88C300.262 331.89 281.185 331.523 269.854 338.071L248.507 350.389C248.144 350.598 247.714 350.655 247.31 350.547C246.905 350.438 246.561 350.174 246.352 349.811C246.143 349.449 246.086 349.018 246.195 348.614C246.303 348.21 246.568 347.866 246.93 347.657L268.277 335.338C280.48 328.285 300.976 328.653 313.957 336.147L319.675 339.458C326.265 343.253 329.892 348.403 329.892 353.953C329.892 359.502 326.265 364.663 319.675 368.457L241.38 413.654C228.389 421.158 207.273 421.158 194.282 413.654L171.484 400.494C159.375 393.505 139.667 393.505 127.549 400.494L121.831 403.847C116.071 407.179 112.76 411.594 112.76 415.966C112.76 419.96 115.482 423.734 120.422 426.582L141.77 438.911C142.071 439.084 142.306 439.352 142.439 439.673C142.572 439.994 142.596 440.35 142.506 440.686C142.416 441.021 142.218 441.318 141.942 441.529C141.667 441.74 141.329 441.855 140.981 441.854V441.802Z" fill="#37474F"/>
<path d="M127.717 445.218V447.036C127.804 448.615 128.261 450.151 129.052 451.521C129.842 452.89 130.944 454.054 132.268 454.919L149.085 464.61L166.155 454.751V439.962L149.569 432.311C148.073 431.717 146.469 431.447 144.862 431.519C143.255 431.592 141.681 432.005 140.246 432.731L132.268 437.335C130.943 438.199 129.841 439.363 129.051 440.733C128.26 442.102 127.803 443.639 127.717 445.218Z" fill="#37474F"/>
<path d="M149.569 432.311C148.074 431.717 146.469 431.447 144.862 431.519C143.255 431.592 141.681 432.005 140.246 432.731L132.268 437.335C129.756 438.785 129.861 440.95 132.489 442.17L149.064 449.821L166.155 439.962L149.569 432.311Z" fill="#455A64"/>
<path opacity="0.1" d="M147.456 446.258C146.794 446.69 146.244 447.273 145.849 447.957C145.455 448.642 145.227 449.411 145.186 450.2V462.371L149.075 464.61L166.144 454.751V439.962L161.814 437.965L147.456 446.258Z" fill="black"/>
<path d="M167.605 437.419C167.348 437.303 167.066 437.256 166.785 437.284C166.505 437.312 166.237 437.413 166.007 437.577L149.19 447.278C148.526 447.709 147.974 448.291 147.578 448.976C147.181 449.661 146.952 450.429 146.909 451.22V465.682C146.879 465.965 146.926 466.251 147.044 466.51C147.162 466.769 147.348 466.992 147.582 467.154L149.684 468.384C149.942 468.505 150.227 468.554 150.51 468.527C150.793 468.499 151.063 468.395 151.292 468.226L168.11 458.535C168.77 458.102 169.32 457.519 169.714 456.835C170.109 456.15 170.337 455.382 170.38 454.594V440.12C170.408 439.838 170.361 439.554 170.245 439.296C170.129 439.038 169.947 438.815 169.718 438.649L167.605 437.419Z" fill="#37474F"/>
<path d="M151.345 448.508L168.162 438.806C169.413 438.081 170.433 438.669 170.433 440.12V454.593C170.389 455.382 170.161 456.15 169.767 456.834C169.372 457.519 168.823 458.101 168.162 458.535L151.345 468.226C150.084 468.951 149.064 468.362 149.064 466.912V452.449C149.107 451.659 149.336 450.89 149.732 450.205C150.129 449.52 150.681 448.938 151.345 448.508Z" fill="#455A64"/>
<path d="M168.74 459.439L154.845 451.419L153.342 452.291V462.15L167.227 470.17C167.551 470.402 167.931 470.544 168.328 470.581C168.725 470.618 169.125 470.549 169.487 470.38L171 469.508C171.332 469.276 171.594 468.957 171.758 468.587C171.921 468.216 171.979 467.807 171.925 467.406V464.904C171.858 463.808 171.535 462.742 170.982 461.793C170.429 460.844 169.661 460.038 168.74 459.439ZM166.186 462.077C166.802 462.484 167.313 463.03 167.678 463.67C168.043 464.311 168.252 465.029 168.288 465.766C168.287 465.965 168.263 466.162 168.215 466.355C168.025 466.302 167.841 466.228 167.668 466.134C167.054 465.724 166.544 465.176 166.179 464.533C165.814 463.891 165.604 463.172 165.566 462.434C165.567 462.232 165.592 462.031 165.64 461.835C165.832 461.891 166.016 461.972 166.186 462.077Z" fill="#698AFF"/>
<path opacity="0.85" d="M168.74 459.439L154.845 451.419L153.342 452.291L167.227 460.311C168.149 460.919 168.915 461.735 169.462 462.694C170.01 463.652 170.325 464.726 170.38 465.829V468.331C170.427 468.74 170.359 469.153 170.182 469.525C170.006 469.897 169.728 470.211 169.382 470.433H169.455L170.969 469.55C171.302 469.319 171.565 469 171.728 468.629C171.891 468.258 171.948 467.85 171.894 467.448V464.946C171.834 463.846 171.518 462.775 170.97 461.818C170.423 460.862 169.659 460.047 168.74 459.439Z" fill="white"/>
<path d="M171.925 464.957V467.459C171.98 467.86 171.923 468.269 171.759 468.64C171.596 469.011 171.333 469.33 171 469.561L169.487 470.444H169.424C169.768 470.221 170.044 469.906 170.218 469.534C170.393 469.162 170.46 468.749 170.412 468.342V465.861C170.374 464.747 170.052 463.662 169.476 462.708L170.99 461.835C171.562 462.78 171.884 463.854 171.925 464.957Z" fill="#698AFF"/>
<path opacity="0.6" d="M171.925 464.957V467.459C171.98 467.86 171.923 468.269 171.759 468.64C171.596 469.011 171.333 469.33 171 469.561L169.487 470.444H169.424C169.768 470.221 170.044 469.906 170.218 469.534C170.393 469.162 170.46 468.749 170.412 468.342V465.861C170.374 464.747 170.052 463.662 169.476 462.708L170.99 461.835C171.562 462.78 171.884 463.854 171.925 464.957Z" fill="white"/>
<path opacity="0.05" d="M171.925 464.957V467.459C171.98 467.86 171.923 468.269 171.759 468.64C171.596 469.011 171.333 469.33 171 469.561L169.487 470.444H169.424C169.768 470.221 170.044 469.906 170.218 469.534C170.393 469.162 170.46 468.749 170.412 468.342V465.861C170.374 464.747 170.052 463.662 169.476 462.708L170.99 461.835C171.562 462.78 171.884 463.854 171.925 464.957Z" fill="black"/>
<path opacity="0.6" d="M165.566 462.434C165.567 462.232 165.591 462.031 165.64 461.835C164.725 461.583 164.052 462.161 164.052 463.307C164.089 464.045 164.298 464.764 164.663 465.407C165.028 466.05 165.539 466.598 166.155 467.007C167.143 467.585 167.984 467.28 168.257 466.355C168.064 466.312 167.879 466.237 167.71 466.134C167.087 465.73 166.568 465.184 166.195 464.541C165.822 463.898 165.607 463.176 165.566 462.434Z" fill="white"/>
<path opacity="0.1" d="M165.566 462.434C165.567 462.232 165.591 462.031 165.64 461.835C164.725 461.583 164.052 462.161 164.052 463.307C164.089 464.045 164.298 464.764 164.663 465.407C165.028 466.05 165.539 466.598 166.155 467.007C167.143 467.585 167.984 467.28 168.257 466.355C168.064 466.312 167.879 466.237 167.71 466.134C167.087 465.73 166.568 465.184 166.195 464.541C165.822 463.898 165.607 463.176 165.566 462.434Z" fill="black"/>
<path opacity="0.7" d="M167.227 460.311L153.342 452.292V462.151L167.227 470.17C168.993 471.221 170.38 470.36 170.38 468.331V465.861C170.332 464.752 170.021 463.671 169.473 462.706C168.925 461.741 168.155 460.92 167.227 460.311ZM166.176 467.007C165.561 466.596 165.051 466.048 164.686 465.406C164.321 464.763 164.111 464.045 164.074 463.307C164.074 461.94 165.03 461.394 166.176 462.077C166.791 462.484 167.302 463.03 167.667 463.671C168.033 464.312 168.242 465.03 168.278 465.766C168.32 467.133 167.363 467.679 166.186 467.007H166.176Z" fill="white"/>
<path d="M180.039 452.912L166.155 444.892L164.641 445.765V455.624L178.526 463.643C178.848 463.879 179.228 464.024 179.626 464.063C180.023 464.102 180.424 464.033 180.786 463.864L182.299 462.981C182.624 462.755 182.881 462.444 183.044 462.084C183.207 461.723 183.269 461.325 183.224 460.932V458.43C183.165 457.324 182.846 456.248 182.293 455.29C181.739 454.331 180.967 453.516 180.039 452.912ZM177.485 455.55C178.102 455.958 178.614 456.505 178.979 457.148C179.345 457.791 179.553 458.511 179.587 459.25C179.587 459.445 179.562 459.639 179.514 459.828C179.321 459.785 179.136 459.71 178.967 459.607C178.352 459.198 177.841 458.65 177.476 458.008C177.11 457.365 176.901 456.646 176.865 455.907C176.866 455.709 176.89 455.511 176.939 455.319C177.131 455.371 177.315 455.448 177.485 455.55Z" fill="#698AFF"/>
<path opacity="0.85" d="M180.039 452.912L166.144 444.892L164.641 445.765L178.526 453.784C179.448 454.392 180.214 455.208 180.761 456.167C181.309 457.125 181.624 458.2 181.679 459.302V461.804C181.726 462.213 181.658 462.626 181.481 462.998C181.305 463.37 181.027 463.684 180.681 463.906H180.754L182.268 463.023C182.592 462.797 182.849 462.487 183.012 462.126C183.175 461.765 183.237 461.367 183.193 460.974V458.472C183.141 457.363 182.829 456.281 182.281 455.315C181.733 454.349 180.965 453.525 180.039 452.912Z" fill="white"/>
<path d="M183.224 458.43V460.931C183.269 461.324 183.207 461.723 183.044 462.083C182.881 462.444 182.624 462.754 182.299 462.981L180.786 463.864H180.723C181.067 463.641 181.343 463.325 181.517 462.954C181.692 462.582 181.759 462.169 181.711 461.762V459.26C181.673 458.146 181.351 457.061 180.775 456.107L182.289 455.234C182.873 456.2 183.195 457.301 183.224 458.43Z" fill="#698AFF"/>
<path opacity="0.6" d="M183.224 458.43V460.931C183.269 461.324 183.207 461.723 183.044 462.083C182.881 462.444 182.624 462.754 182.299 462.981L180.786 463.864H180.723C181.067 463.641 181.343 463.325 181.517 462.954C181.692 462.582 181.759 462.169 181.711 461.762V459.26C181.673 458.146 181.351 457.061 180.775 456.107L182.289 455.234C182.873 456.2 183.195 457.301 183.224 458.43Z" fill="white"/>
<path opacity="0.05" d="M183.224 458.43V460.931C183.269 461.324 183.207 461.723 183.044 462.083C182.881 462.444 182.624 462.754 182.299 462.981L180.786 463.864H180.723C181.067 463.641 181.343 463.325 181.517 462.954C181.692 462.582 181.759 462.169 181.711 461.762V459.26C181.673 458.146 181.351 457.061 180.775 456.107L182.289 455.234C182.873 456.2 183.195 457.301 183.224 458.43Z" fill="black"/>
<path opacity="0.6" d="M176.865 455.907C176.866 455.709 176.89 455.511 176.939 455.319C176.035 455.067 175.352 455.634 175.352 456.78C175.388 457.518 175.597 458.238 175.962 458.88C176.327 459.523 176.838 460.071 177.454 460.48C178.442 461.058 179.283 460.753 179.556 459.828C179.363 459.785 179.178 459.71 179.009 459.607C178.386 459.203 177.867 458.657 177.494 458.014C177.122 457.371 176.906 456.649 176.865 455.907Z" fill="white"/>
<path opacity="0.1" d="M176.865 455.907C176.866 455.709 176.89 455.511 176.939 455.319C176.035 455.067 175.352 455.634 175.352 456.78C175.388 457.518 175.597 458.238 175.962 458.88C176.327 459.523 176.838 460.071 177.454 460.48C178.442 461.058 179.283 460.753 179.556 459.828C179.363 459.785 179.178 459.71 179.009 459.607C178.386 459.203 177.867 458.657 177.494 458.014C177.122 457.371 176.906 456.649 176.865 455.907Z" fill="black"/>
<path opacity="0.7" d="M178.536 453.784L164.641 445.764V455.623L178.526 463.643C180.292 464.694 181.679 463.843 181.679 461.804V459.302C181.622 458.201 181.309 457.128 180.763 456.17C180.217 455.212 179.455 454.395 178.536 453.784ZM177.485 460.479C176.87 460.07 176.359 459.522 175.994 458.88C175.628 458.237 175.419 457.518 175.383 456.779C175.383 455.424 176.34 454.866 177.485 455.55C178.102 455.957 178.614 456.505 178.979 457.148C179.345 457.791 179.553 458.511 179.587 459.249C179.619 460.605 178.663 461.162 177.485 460.479Z" fill="white"/>
<path d="M227.874 397.688L267.395 374.827C271.473 372.483 273.512 369.393 273.512 366.313C273.512 363.234 273.512 360.816 273.512 360.816L232.52 337.693C231.373 336.945 230.419 335.938 229.734 334.753C229.049 333.568 228.653 332.238 228.578 330.871V282.143L159.543 322.084V370.823C159.616 372.187 160.009 373.516 160.692 374.699C161.376 375.883 162.329 376.888 163.474 377.634L198.391 397.688C206.516 402.386 219.728 402.386 227.874 397.688Z" fill="#698AFF"/>
<g opacity="0.6">
<path d="M227.874 397.688L267.395 374.827C271.473 372.483 273.512 369.393 273.512 366.313C273.512 363.234 273.512 360.816 273.512 360.816L232.52 337.693C231.373 336.945 230.419 335.938 229.734 334.753C229.049 333.568 228.653 332.238 228.578 330.871V282.143L159.543 322.084V370.823C159.616 372.187 160.009 373.516 160.692 374.699C161.376 375.883 162.329 376.888 163.474 377.634L198.391 397.688C206.516 402.386 219.728 402.386 227.874 397.688Z" fill="black"/>
</g>
<path opacity="0.3" d="M176.119 379.399V384.928L163.506 377.633C162.363 376.885 161.412 375.879 160.729 374.696C160.047 373.513 159.651 372.186 159.575 370.822V322.042L172.692 314.506C172.955 317.838 173.26 321.296 173.533 324.659L164.305 329.999V368.069C164.372 369.434 164.763 370.765 165.447 371.949C166.131 373.134 167.087 374.138 168.236 374.88L176.119 379.399Z" fill="black"/>
<path d="M164.305 368.027C164.377 369.391 164.771 370.72 165.454 371.903C166.137 373.087 167.09 374.092 168.236 374.838L198.391 392.191C206.537 396.889 219.749 396.9 227.906 392.191L267.447 369.34C275.593 364.642 275.593 357.011 267.447 352.302L237.281 334.949C236.136 334.201 235.183 333.194 234.5 332.008C233.817 330.823 233.423 329.494 233.35 328.128V290.047L164.315 329.988L164.305 368.027Z" fill="#698AFF"/>
<path opacity="0.3" d="M164.305 368.027C164.377 369.391 164.771 370.72 165.454 371.903C166.137 373.087 167.09 374.092 168.236 374.838L198.391 392.191C206.537 396.889 219.749 396.9 227.906 392.191L267.447 369.34C275.593 364.642 275.593 357.011 267.447 352.302L237.281 334.949C236.136 334.201 235.183 333.194 234.5 332.008C233.817 330.823 233.423 329.494 233.35 328.128V290.047L164.315 329.988L164.305 368.027Z" fill="black"/>
<path opacity="0.5" d="M245.29 339.574L237.281 334.949C236.136 334.201 235.183 333.194 234.5 332.008C233.817 330.823 233.423 329.494 233.35 328.128V290.047L164.315 329.988V368.069C164.387 369.433 164.781 370.762 165.464 371.945C166.147 373.129 167.101 374.134 168.246 374.88L176.129 379.431L245.29 339.574Z" fill="black"/>
<path d="M273.522 360.816V366.313C273.522 369.403 271.42 372.473 267.405 374.838L227.874 397.677C223.542 399.995 218.702 401.197 213.79 401.178V395.701C218.702 395.721 223.542 394.518 227.874 392.201L267.405 369.34C271.473 366.997 273.522 363.906 273.522 360.816Z" fill="#698AFF"/>
<path opacity="0.5" d="M273.522 360.816V366.313C273.522 369.403 271.42 372.473 267.405 374.838L227.874 397.677C223.542 399.995 218.702 401.197 213.79 401.178V395.701C218.702 395.721 223.542 394.518 227.874 392.201L267.405 369.34C271.473 366.997 273.522 363.906 273.522 360.816Z" fill="black"/>
<path d="M53.4473 415.409C54.9379 416.133 56.5786 416.494 58.2354 416.463C59.8921 416.432 61.5181 416.01 62.9806 415.231L329.955 261.079C332.666 259.513 334.863 255.698 334.863 256.77V13.6029C334.863 6.24537 332.761 2.52455 330.249 1.05304C328.76 0.330972 327.121 -0.0292 325.466 0.00185011C323.811 0.0329002 322.187 0.454295 320.726 1.23173L53.7626 155.383C52.3301 156.314 51.1378 157.571 50.283 159.05C49.4282 160.53 48.935 162.19 48.8436 163.897V407.001C48.8892 408.667 49.3305 410.298 50.131 411.76C50.9314 413.222 52.0682 414.473 53.4473 415.409Z" fill="#698AFF"/>
<path d="M62.9808 415.178L329.955 261.027C332.666 259.461 334.874 255.645 334.874 256.707V13.5925C334.874 6.23499 332.666 4.98421 329.955 6.55032L62.9808 160.701C61.5482 161.633 60.356 162.889 59.5011 164.369C58.6463 165.848 58.1531 167.509 58.0617 169.215V412.33C58.0617 415.472 60.269 416.744 62.9808 415.178Z" fill="#698AFF"/>
<path opacity="0.5" d="M62.9808 415.178L329.955 261.027C332.666 259.461 334.874 255.645 334.874 256.707V13.5925C334.874 6.23499 332.666 4.98421 329.955 6.55032L62.9808 160.701C61.5482 161.633 60.356 162.889 59.5011 164.369C58.6463 165.848 58.1531 167.509 58.0617 169.215V412.33C58.0617 415.472 60.269 416.744 62.9808 415.178Z" fill="black"/>
<path d="M62.2555 420.791C60.8596 421.392 59.3506 421.687 57.8309 421.654C56.3112 421.621 54.8163 421.262 53.4475 420.601C52.0749 419.673 50.9414 418.432 50.1394 416.982C49.3375 415.532 48.89 413.912 48.8333 412.256V396.784L58.0617 402.123V417.585C58.0617 420.444 59.8801 421.716 62.2555 420.791Z" fill="#698AFF"/>
<path opacity="0.5" d="M62.2555 420.791C60.8596 421.392 59.3506 421.687 57.8309 421.654C56.3112 421.621 54.8163 421.262 53.4475 420.601C52.0749 419.673 50.9414 418.432 50.1394 416.982C49.3375 415.532 48.89 413.912 48.8333 412.256V396.784L58.0617 402.123V417.585C58.0617 420.444 59.8801 421.716 62.2555 420.791Z" fill="black"/>
<path d="M58.0617 402.124V417.575C58.0617 420.728 60.269 421.989 62.9808 420.412L329.955 266.272C331.387 265.338 332.579 264.079 333.433 262.598C334.288 261.117 334.781 259.455 334.874 257.748V242.255L58.0617 402.124Z" fill="#698AFF"/>
<path opacity="0.3" d="M58.0617 402.082V417.575C58.0617 420.728 60.269 421.989 62.9808 420.412L329.955 266.272C331.387 265.338 332.579 264.079 333.433 262.598C334.288 261.117 334.781 259.455 334.874 257.748V242.255L58.0617 402.082Z" fill="black"/>
<path d="M67.2902 382.7V172.284C67.3468 171.259 67.6436 170.262 68.1566 169.373C68.6697 168.484 69.3846 167.728 70.2437 167.166L322.713 21.402C324.342 20.4665 325.666 21.2233 325.666 23.1047V233.573C325.61 234.596 325.313 235.592 324.8 236.48C324.287 237.367 323.572 238.121 322.713 238.681L70.2437 384.413C68.6145 385.348 67.2902 384.581 67.2902 382.7Z" fill="#698AFF"/>
<path d="M67.2902 382.7V172.284C67.3468 171.259 67.6436 170.262 68.1566 169.373C68.6697 168.484 69.3846 167.728 70.2437 167.166L322.713 21.402C324.342 20.4665 325.666 21.2233 325.666 23.1047V233.573C325.61 234.596 325.313 235.592 324.8 236.48C324.287 237.367 323.572 238.121 322.713 238.681L70.2437 384.413C68.6145 385.348 67.2902 384.581 67.2902 382.7Z" fill="#263238"/>
<path opacity="0.7" d="M59.5122 164.348C58.6382 165.828 58.1402 167.499 58.0617 169.215V402.123L48.8333 396.784V163.897C48.8967 162.182 49.392 160.512 50.2732 159.041L59.5122 164.348Z" fill="black"/>
<path opacity="0.3" d="M334.853 8.57868C334.506 6.04559 332.456 5.13115 329.976 6.5501L63.0018 160.701C61.548 161.602 60.35 162.862 59.5227 164.359L50.2943 159.03C51.1275 157.537 52.3242 156.279 53.7733 155.372L320.758 1.2842C322.22 0.505041 323.846 0.082704 325.503 0.0516507C327.16 0.0205975 328.8 0.381708 330.291 1.10552C331.539 1.95515 332.592 3.06123 333.378 4.34992C334.165 5.63862 334.667 7.08028 334.853 8.57868Z" fill="black"/>
<path d="M92.6524 395.523C92.0674 395.868 91.4074 396.066 90.729 396.101C89.7616 396.227 88.7787 396.055 87.9121 395.607C87.2245 395.138 86.6581 394.512 86.2598 393.781C85.8614 393.05 85.6424 392.235 85.6207 391.402V200.527L90.235 203.186V394.104C90.235 395.218 90.792 395.859 91.5909 395.859C91.9656 395.828 92.3285 395.713 92.6524 395.523Z" fill="#F0F0F0"/>
<path d="M346.414 246.186C346.363 247.029 346.115 247.849 345.69 248.579C345.265 249.309 344.674 249.93 343.965 250.39L92.6526 395.523C91.3072 396.301 90.2141 395.67 90.2141 394.104V187.325L96.9515 183.436C98.2968 182.658 100.494 170.823 101.849 169.993L160.289 136.253C161.645 135.476 164.83 144.252 166.175 143.464L346.414 39.407V246.186Z" fill="#FAFAFA"/>
<path d="M345.279 41.3302V246.185C345.232 246.835 345.039 247.466 344.713 248.031C344.387 248.595 343.937 249.078 343.398 249.444L92.085 394.545C91.9295 394.644 91.7532 394.705 91.5699 394.724C91.3387 394.724 91.3387 394.135 91.3387 394.104V187.966L97.519 184.393C98.4965 183.825 99.1062 181.923 100.483 177.035C100.975 174.941 101.65 172.893 102.501 170.918L160.416 137.483C161.102 138.412 161.717 139.393 162.255 140.415C163.832 143.19 164.714 144.62 165.997 144.62C166.26 144.62 166.518 144.547 166.743 144.41L345.279 41.3302ZM346.414 39.3752L166.175 143.432C166.122 143.465 166.06 143.483 165.997 143.485C164.63 143.485 161.792 136.127 160.468 136.127C160.41 136.111 160.348 136.111 160.289 136.127L101.849 169.867C100.494 170.655 98.2968 182.48 96.9515 183.31L90.2141 187.325V394.104C90.2141 395.218 90.7606 395.859 91.5699 395.859C91.944 395.843 92.3069 395.726 92.621 395.523L343.965 250.39C344.674 249.929 345.265 249.309 345.69 248.579C346.115 247.849 346.363 247.029 346.414 246.185V39.3752Z" fill="#E0E0E0"/>
<path d="M87.9122 194.84C87.2226 194.372 86.6542 193.747 86.254 193.016C85.8538 192.285 85.6331 191.469 85.6103 190.636V171.559C85.6585 170.719 85.9022 169.901 86.3218 169.171C86.7415 168.441 87.3256 167.819 88.0278 167.355L339.341 22.3059C340.048 21.8578 340.864 21.6119 341.701 21.5949C342.538 21.578 343.364 21.7907 344.089 22.2099C344.813 22.6291 345.409 23.2388 345.812 23.9729C346.214 24.7069 346.408 25.5372 346.372 26.3736V45.4297C346.323 46.2736 346.076 47.094 345.65 47.8244C345.225 48.5548 344.633 49.1748 343.923 49.634L92.6525 194.756C91.9242 195.141 91.1158 195.349 90.2924 195.363C89.4689 195.378 88.6536 195.199 87.9122 194.84Z" fill="#698AFF"/>
<path opacity="0.4" d="M346.383 25.8901C346.215 24.6183 345.185 24.1558 343.965 24.839L92.6525 169.972C91.9352 170.437 91.3404 171.068 90.9182 171.811L86.325 169.152C86.7366 168.422 87.3214 167.805 88.0278 167.355L339.341 22.3059C340.017 21.8744 340.796 21.6291 341.598 21.5948C342.4 21.5604 343.197 21.7383 343.908 22.1104C344.619 22.4826 345.22 23.0357 345.649 23.7141C346.078 24.3925 346.32 25.1721 346.351 25.9742L346.383 25.8901Z" fill="white"/>
<path opacity="0.1" d="M90.9182 171.811C90.4812 172.54 90.2387 173.369 90.214 174.218V203.239L85.5998 200.579V171.559C85.5945 171.461 85.5945 171.363 85.5998 171.265C85.6186 171.06 85.6502 170.856 85.6944 170.655C85.8259 170.125 86.0311 169.615 86.304 169.142L90.9182 171.811Z" fill="black"/>
<path d="M346.404 26.2789V39.3754L166.165 143.432C164.82 144.22 163.726 143.579 163.726 142.024V137.063C163.726 135.507 162.675 134.866 161.267 135.654L101.839 169.961C101.131 170.422 100.541 171.043 100.115 171.773C99.6902 172.503 99.4417 173.322 99.39 174.166V179.116C99.3366 179.959 99.0874 180.778 98.6623 181.508C98.2372 182.238 97.6478 182.858 96.941 183.321L90.2141 187.325V174.218C90.2663 173.376 90.5138 172.558 90.9371 171.828C91.3603 171.099 91.9476 170.477 92.6526 170.014L343.965 24.9651C345.311 24.0822 346.404 24.7233 346.404 26.2789Z" fill="#698AFF"/>
<path d="M334.926 34.4879C336.629 33.5104 338.006 34.3092 338.006 36.2748C337.948 37.344 337.638 38.3846 337.103 39.3122C336.568 40.2398 335.823 41.0284 334.926 41.6142C333.223 42.5917 331.836 41.7929 331.836 39.8274C331.896 38.7574 332.207 37.7166 332.744 36.789C333.281 35.8615 334.028 35.0732 334.926 34.4879Z" fill="white"/>
<path d="M323.827 40.889C325.529 39.9115 326.906 40.6998 326.906 42.6653C326.85 43.735 326.541 44.7761 326.006 45.704C325.471 46.6319 324.724 47.4202 323.827 48.0048C322.124 48.9928 320.747 48.194 320.747 46.2285C320.805 45.1592 321.114 44.1187 321.649 43.1911C322.184 42.2634 322.93 41.4748 323.827 40.889Z" fill="white"/>
<path d="M312.727 47.2901C314.43 46.3021 315.807 47.1009 315.807 49.0664C315.749 50.1357 315.44 51.1762 314.905 52.1038C314.37 53.0315 313.624 53.8201 312.727 54.4059C311.025 55.3834 309.648 54.5951 309.648 52.6296C309.704 51.5599 310.013 50.5188 310.548 49.5909C311.083 48.663 311.83 47.8747 312.727 47.2901Z" fill="white"/>
<path d="M346.414 39.3752V55.2991L90.2141 203.238V187.325L95.2487 184.414C96.5941 183.636 97.0461 182.448 97.6872 180.209L99.4005 174.281C99.9365 172.179 100.452 170.823 101.849 170.077L160.289 136.337C161.645 135.559 162.707 135.475 163.737 137.178L165.839 140.983C166.606 142.307 166.995 143.085 168.341 142.307L346.414 39.3752Z" fill="#E6E6E6"/>
<path d="M90.214 187.304V203.239L85.5998 200.579V184.666L90.214 187.304Z" fill="#E0E0E0"/>
<path opacity="0.5" d="M101.45 188.46L97.6031 190.678L99.0641 187.861C99.123 187.755 99.1539 187.636 99.1539 187.514C99.1539 187.393 99.123 187.274 99.0641 187.167C98.9485 187.031 98.7593 187.167 98.6227 187.378L96.5205 191.382C96.5205 191.382 96.5205 191.477 96.4679 191.529C96.4628 191.596 96.4628 191.663 96.4679 191.729C96.4609 191.788 96.4609 191.848 96.4679 191.908C96.4831 191.937 96.5006 191.965 96.5205 191.992L98.6227 193.59C98.6525 193.613 98.6895 193.626 98.7278 193.626C98.766 193.626 98.803 193.613 98.8329 193.59C98.9404 193.52 99.0218 193.416 99.0641 193.295C99.1797 193.032 99.1587 192.738 99.0641 192.644L97.6031 191.508L101.45 189.291C101.548 189.213 101.626 189.114 101.679 189.001C101.732 188.887 101.758 188.764 101.755 188.639C101.755 188.492 101.618 188.376 101.45 188.46Z" fill="#455A64"/>
<path opacity="0.5" d="M104.656 186.6L108.503 184.382L107.031 183.258C106.969 183.158 106.935 183.044 106.935 182.926C106.935 182.809 106.969 182.694 107.031 182.595C107.136 182.333 107.336 182.206 107.462 182.301L109.564 183.909C109.593 183.931 109.615 183.96 109.627 183.993C109.638 184.052 109.638 184.113 109.627 184.172C109.638 184.242 109.638 184.312 109.627 184.382L109.564 184.54L107.462 188.555C107.422 188.651 107.352 188.732 107.262 188.786C107.231 188.816 107.19 188.832 107.147 188.832C107.104 188.832 107.062 188.816 107.031 188.786C106.971 188.682 106.94 188.565 106.94 188.445C106.94 188.325 106.971 188.207 107.031 188.103L108.503 185.286L104.656 187.504C104.488 187.598 104.351 187.504 104.351 187.21C104.356 187.092 104.385 186.977 104.438 186.872C104.49 186.767 104.565 186.674 104.656 186.6Z" fill="#455A64"/>
<path opacity="0.5" d="M117.269 175.532C117.269 175.301 117.048 175.322 116.943 175.532L116.417 176.825C115.513 176.73 114.431 177.603 113.695 179.158C112.739 181.176 112.739 183.562 113.695 184.477C113.925 184.692 114.223 184.82 114.538 184.839C114.853 184.858 115.164 184.767 115.419 184.582C116.188 184.064 116.791 183.333 117.153 182.48C117.211 182.377 117.242 182.261 117.242 182.143C117.242 182.026 117.211 181.91 117.153 181.807C117.027 181.691 116.838 181.807 116.712 182.059C115.997 183.562 114.841 184.235 114.136 183.552C113.432 182.869 113.422 181.082 114.136 179.579C114.641 178.528 115.366 177.876 115.997 177.834L115.608 178.811C115.503 179.064 115.608 179.295 115.755 179.19L117.321 178.139C117.386 178.091 117.436 178.027 117.468 177.953C117.499 177.879 117.51 177.798 117.5 177.718L117.269 175.532Z" fill="#455A64"/>
<path opacity="0.5" d="M158.597 143.506L160.006 140.542C160.085 140.4 160.126 140.241 160.126 140.079C160.126 139.917 160.085 139.758 160.006 139.617C159.837 139.459 159.564 139.617 159.407 139.964L157.998 142.928L156.6 141.582C156.432 141.425 156.169 141.582 156.001 141.929C155.917 142.069 155.872 142.228 155.872 142.392C155.872 142.555 155.917 142.715 156.001 142.854L157.399 144.231L156.001 147.195C155.917 147.334 155.872 147.494 155.872 147.657C155.872 147.82 155.917 147.98 156.001 148.12C156.041 148.156 156.094 148.176 156.148 148.176C156.202 148.176 156.255 148.156 156.295 148.12C156.433 148.032 156.539 147.903 156.6 147.752L157.998 144.788L159.407 146.133C159.447 146.17 159.499 146.19 159.554 146.19C159.608 146.19 159.66 146.17 159.701 146.133C159.838 146.045 159.945 145.917 160.006 145.765C160.085 145.624 160.126 145.465 160.126 145.303C160.126 145.141 160.085 144.982 160.006 144.841L158.597 143.506Z" fill="#455A64"/>
<path d="M122.377 179.179V174.218C122.428 173.375 122.676 172.555 123.101 171.825C123.527 171.095 124.117 170.474 124.826 170.014L330.175 51.4627C331.531 50.6744 332.624 51.3156 332.624 52.8712V57.8323C332.573 58.6758 332.325 59.4955 331.9 60.2257C331.474 60.9559 330.884 61.5762 330.175 62.0366L124.816 180.588C123.47 181.376 122.377 180.735 122.377 179.179Z" fill="#FAFAFA"/>
<path d="M326.843 62.4571C326.77 62.469 326.696 62.469 326.622 62.4571C326.485 62.3935 326.374 62.2847 326.307 62.1489C326.24 62.0132 326.221 61.8585 326.255 61.7108L326.496 59.7033L325.55 59.0201C325.468 58.9554 325.402 58.8721 325.359 58.7771C325.315 58.6821 325.294 58.5781 325.298 58.4735C325.294 58.3103 325.328 58.1484 325.397 58.0006C325.467 57.8529 325.569 57.7233 325.698 57.6221L327.138 56.508C327.166 56.474 327.187 56.4347 327.201 56.3924L327.842 54.2902C327.881 54.1172 327.971 53.9598 328.1 53.8381C328.229 53.7164 328.392 53.636 328.567 53.607C328.685 53.5936 328.805 53.6192 328.907 53.6799C329.01 53.7406 329.09 53.8331 329.135 53.9433L329.671 55.089L330.89 54.6265C330.998 54.5781 331.119 54.5663 331.235 54.5929C331.351 54.6194 331.455 54.6829 331.531 54.7737C331.631 54.9191 331.684 55.0913 331.684 55.2677C331.684 55.4441 331.631 55.6163 331.531 55.7617L330.48 57.7167C330.475 57.7551 330.475 57.7939 330.48 57.8323L330.732 59.5982C330.752 59.7597 330.733 59.9235 330.678 60.0767C330.624 60.2299 330.534 60.3683 330.417 60.4811C330.348 60.562 330.26 60.6246 330.161 60.6631C330.062 60.7016 329.955 60.7149 329.849 60.7018L328.725 60.5231L327.453 62.1418C327.385 62.2406 327.294 62.3211 327.188 62.3761C327.081 62.4311 326.963 62.4589 326.843 62.4571ZM326.149 58.3579L327.095 59.0411C327.193 59.121 327.268 59.2253 327.312 59.3434C327.357 59.4616 327.369 59.5894 327.348 59.7138L327.18 61.0592L328.031 60.0081C328.104 59.9045 328.202 59.8213 328.316 59.7661C328.43 59.7109 328.556 59.6857 328.683 59.6927L329.86 59.8399C329.868 59.7947 329.868 59.7485 329.86 59.7033L329.608 57.9374C329.588 57.7195 329.632 57.5005 329.734 57.3068L330.648 55.5935L329.776 55.9404C329.637 55.9974 329.482 55.9986 329.343 55.9437C329.204 55.8889 329.092 55.7822 329.029 55.6461L328.609 54.7422L328.031 56.6236C327.971 56.8353 327.846 57.0228 327.674 57.1597L326.234 58.2107C326.192 58.2508 326.163 58.3019 326.149 58.3579Z" fill="#E0E0E0"/>
<g opacity="0.5">
<path d="M335.515 50.8531C335.326 50.8586 335.141 50.8006 334.99 50.6884C334.838 50.5761 334.729 50.4162 334.679 50.2343C334.629 50.0524 334.642 49.8591 334.716 49.6854C334.789 49.5117 334.919 49.3677 335.084 49.2765L341.979 45.2929C342.076 45.2294 342.185 45.1862 342.299 45.1662C342.413 45.1461 342.53 45.1496 342.642 45.1763C342.755 45.203 342.861 45.2524 342.954 45.3216C343.047 45.3907 343.125 45.4781 343.183 45.5783C343.241 45.6786 343.278 45.7896 343.292 45.9047C343.305 46.0197 343.295 46.1363 343.262 46.2473C343.229 46.3584 343.174 46.4615 343.1 46.5504C343.025 46.6393 342.934 46.7121 342.83 46.7644L335.935 50.7375C335.809 50.8159 335.663 50.8561 335.515 50.8531Z" fill="#455A64"/>
<path d="M335.515 54.8893C335.366 54.8906 335.219 54.8524 335.09 54.7785C334.961 54.7046 334.853 54.5978 334.779 54.4688C334.667 54.2731 334.636 54.0414 334.693 53.8233C334.75 53.6052 334.891 53.4181 335.084 53.3021L341.979 49.3291C342.075 49.2723 342.182 49.2352 342.293 49.2198C342.404 49.2044 342.517 49.211 342.625 49.2393C342.734 49.2676 342.836 49.3171 342.925 49.3848C343.014 49.4525 343.089 49.5371 343.146 49.6339C343.202 49.7303 343.238 49.8369 343.253 49.9475C343.267 50.058 343.259 50.1704 343.23 50.278C343.201 50.3856 343.15 50.4863 343.082 50.5742C343.013 50.6621 342.928 50.7355 342.83 50.7901L335.935 54.7736C335.809 54.852 335.663 54.8922 335.515 54.8893Z" fill="#455A64"/>
<path d="M335.515 58.8203C335.327 58.8209 335.145 58.7596 334.996 58.646C334.847 58.5325 334.74 58.3729 334.691 58.192C334.642 58.0112 334.653 57.8193 334.725 57.6459C334.796 57.4725 334.922 57.3275 335.084 57.2332L341.979 53.2496C342.176 53.1387 342.409 53.1095 342.627 53.1685C342.845 53.2275 343.031 53.3699 343.146 53.5649C343.202 53.6613 343.238 53.7679 343.253 53.8785C343.267 53.9891 343.259 54.1015 343.23 54.2091C343.201 54.3167 343.15 54.4173 343.082 54.5053C343.013 54.5932 342.928 54.6665 342.83 54.7211L335.935 58.7047C335.807 58.7782 335.663 58.818 335.515 58.8203Z" fill="#455A64"/>
</g>
<g opacity="0.5">
<path d="M97.7714 207.695C97.5829 207.701 97.3981 207.643 97.2465 207.53C97.095 207.418 96.9855 207.258 96.9358 207.076C96.8861 206.894 96.899 206.701 96.9724 206.527C97.0458 206.354 97.1754 206.21 97.3405 206.118L104.236 202.135C104.43 202.037 104.654 202.017 104.862 202.079C105.071 202.141 105.248 202.28 105.357 202.468C105.466 202.656 105.498 202.879 105.448 203.091C105.398 203.303 105.269 203.487 105.087 203.606L98.1919 207.579C98.0652 207.656 97.9196 207.696 97.7714 207.695Z" fill="#455A64"/>
<path d="M97.7715 211.679C97.6227 211.68 97.4761 211.642 97.3468 211.568C97.2176 211.494 97.1102 211.387 97.0358 211.258C96.979 211.162 96.9419 211.055 96.9265 210.944C96.9111 210.833 96.9177 210.72 96.946 210.612C96.9744 210.503 97.0238 210.401 97.0915 210.312C97.1592 210.223 97.2439 210.148 97.3406 210.091L104.236 206.118C104.331 206.062 104.437 206.025 104.548 206.01C104.658 205.994 104.77 206.001 104.877 206.029C104.985 206.058 105.086 206.107 105.174 206.175C105.262 206.242 105.336 206.327 105.392 206.423C105.449 206.52 105.486 206.627 105.501 206.738C105.517 206.849 105.51 206.961 105.482 207.07C105.453 207.178 105.404 207.28 105.336 207.369C105.268 207.458 105.184 207.533 105.087 207.59L98.192 211.563C98.0653 211.64 97.9197 211.68 97.7715 211.679Z" fill="#455A64"/>
<path d="M97.7716 215.704C97.5842 215.705 97.4019 215.643 97.2529 215.53C97.1039 215.416 96.9965 215.257 96.9474 215.076C96.8983 214.895 96.9102 214.703 96.9813 214.53C97.0524 214.356 97.1787 214.211 97.3407 214.117L104.236 210.144C104.331 210.086 104.437 210.048 104.548 210.032C104.658 210.016 104.771 210.022 104.879 210.051C104.987 210.079 105.088 210.129 105.176 210.197C105.264 210.266 105.338 210.351 105.392 210.449C105.448 210.545 105.485 210.651 105.501 210.761C105.516 210.871 105.509 210.983 105.481 211.09C105.453 211.198 105.403 211.299 105.336 211.387C105.268 211.475 105.184 211.549 105.087 211.605L98.192 215.589C98.0634 215.661 97.9191 215.7 97.7716 215.704Z" fill="#455A64"/>
</g>
<path d="M158.923 172.61V178.717C158.923 179.968 159.806 180.472 160.889 179.852L242.799 132.49V121.833L160.899 169.194C160.324 169.568 159.845 170.072 159.502 170.665C159.158 171.259 158.96 171.925 158.923 172.61Z" fill="#E6E6E6"/>
<path d="M253.121 115.852C254.172 115.221 255.086 115.736 255.086 116.987V123.094C255.048 123.776 254.851 124.439 254.509 125.031C254.168 125.622 253.692 126.125 253.121 126.499L242.799 132.459V121.833L253.121 115.852Z" fill="#698AFF"/>
<path d="M252.354 124.26L251.208 123.893C251.325 123.407 251.385 122.91 251.387 122.411C251.44 121.945 251.371 121.473 251.187 121.042C251.003 120.61 250.709 120.234 250.335 119.951C250.075 119.813 249.783 119.747 249.488 119.762C249.194 119.777 248.909 119.871 248.664 120.035C247.931 120.597 247.341 121.324 246.941 122.157C246.541 122.989 246.343 123.904 246.362 124.828C246.309 125.294 246.378 125.766 246.562 126.197C246.746 126.628 247.04 127.004 247.413 127.288C247.635 127.413 247.885 127.478 248.139 127.477C248.473 127.473 248.8 127.379 249.085 127.203C249.963 126.602 250.618 125.726 250.945 124.712L252.101 125.07C252.143 125.08 252.186 125.08 252.227 125.07C252.335 125.081 252.442 125.05 252.528 124.984C252.613 124.918 252.67 124.821 252.686 124.715C252.702 124.608 252.677 124.499 252.615 124.411C252.553 124.322 252.459 124.261 252.354 124.239V124.26ZM248.664 126.468C248.546 126.554 248.406 126.607 248.259 126.62C248.113 126.633 247.966 126.605 247.834 126.541C247.602 126.325 247.425 126.057 247.317 125.759C247.209 125.462 247.174 125.142 247.214 124.828C247.202 124.055 247.365 123.289 247.688 122.587C248.012 121.885 248.489 121.264 249.085 120.771C249.244 120.675 249.425 120.621 249.61 120.613C249.718 120.61 249.824 120.639 249.915 120.697C250.147 120.913 250.324 121.181 250.432 121.479C250.54 121.777 250.575 122.096 250.535 122.411C250.545 123.182 250.382 123.946 250.058 124.646C249.734 125.346 249.258 125.965 248.664 126.457V126.468Z" fill="#FAFAFA"/>
<path d="M124.879 189.984L113.054 196.785C112.483 197.154 112.007 197.653 111.665 198.241C111.323 198.829 111.126 199.49 111.089 200.169V206.255C111.089 207.506 111.971 208.01 113.054 207.39L124.879 200.548C125.449 200.176 125.923 199.675 126.263 199.085C126.603 198.495 126.798 197.833 126.834 197.153V191.109C126.834 189.869 125.961 189.354 124.879 189.984Z" fill="#698AFF"/>
<path d="M330.522 71.2441C329.183 72.1193 328.068 73.2976 327.268 74.6835C326.468 76.0694 326.006 77.6241 325.918 79.2218C325.918 82.1648 328.021 83.3526 330.522 81.8916C331.865 81.0159 332.982 79.8364 333.783 78.4486C334.585 77.0608 335.049 75.5037 335.136 73.9034C335.136 70.9603 333.066 69.7726 330.522 71.2441Z" fill="#698AFF"/>
<path d="M329.986 75.9109C329.842 75.9134 329.701 75.8771 329.576 75.8058C329.43 75.7022 329.312 75.5627 329.235 75.4008C329.158 75.2389 329.123 75.0599 329.135 74.8809C329.154 74.4596 329.274 74.049 329.484 73.6834C329.695 73.3177 329.989 73.0076 330.343 72.7787C330.487 72.6651 330.662 72.5974 330.844 72.5842C331.027 72.571 331.21 72.613 331.368 72.7047C331.527 72.7965 331.654 72.9337 331.734 73.0987C331.814 73.2638 331.842 73.4489 331.815 73.6301C331.793 74.052 331.67 74.4625 331.458 74.828C331.246 75.1934 330.951 75.5033 330.596 75.7323C330.411 75.8416 330.201 75.903 329.986 75.9109Z" fill="white"/>
<path d="M332.341 76.2366C332.085 76.1089 331.799 76.0531 331.514 76.0753C331.229 76.0975 330.955 76.1969 330.722 76.3628L330.049 76.7517C329.439 77.1387 328.93 77.6658 328.564 78.2892C328.198 78.9126 327.987 79.6142 327.947 80.3358V80.8193C328.359 80.9973 328.809 81.0656 329.255 81.0177C329.701 80.9699 330.126 80.8074 330.491 80.5461C331.551 79.8865 332.427 78.9677 333.034 77.8763V77.7607C333.063 77.4681 333.014 77.1731 332.892 76.9055C332.77 76.6379 332.58 76.4072 332.341 76.2366Z" fill="white"/>
<path d="M314.22 85.4967V83.8675C314.22 82.0176 313.095 81.1662 311.708 81.965C310.94 82.5142 310.312 83.2358 309.874 84.0719C309.436 84.9079 309.2 85.8352 309.185 86.779V88.24C309.152 89.2437 308.859 90.2215 308.334 91.0779C308.204 91.3018 308.131 91.5547 308.124 91.8136C308.124 92.2866 308.408 92.4968 308.754 92.2971L314.651 88.9021C314.843 88.7613 315 88.5779 315.109 88.3664C315.219 88.1549 315.278 87.921 315.282 87.6829C315.288 87.5917 315.275 87.5001 315.242 87.4147C315.21 87.3293 315.158 87.2522 315.092 87.1889C314.796 87.0247 314.555 86.7763 314.4 86.4751C314.244 86.1739 314.182 85.8334 314.22 85.4967Z" fill="#698AFF"/>
<path d="M312.959 90.4158C312.951 90.8687 312.838 91.3135 312.628 91.7149C312.418 92.1164 312.117 92.4633 311.75 92.7281C311.077 93.1065 310.531 92.7281 310.531 91.8137L312.959 90.4158Z" fill="#698AFF"/>
<path d="M292.484 93.2325C292.806 93.0419 293.163 92.9202 293.535 92.8752C293.826 92.841 294.12 92.8999 294.376 93.0433C294.623 93.1947 294.817 93.4186 294.933 93.6845C295.068 94.0503 295.122 94.4414 295.09 94.8302C295.094 95.1839 295.055 95.5368 294.975 95.8813C294.899 96.1894 294.801 96.4915 294.68 96.7852C294.566 97.0618 294.436 97.332 294.292 97.5945L293.871 98.3513C293.745 98.593 293.619 98.8453 293.514 99.0871C293.413 99.3197 293.339 99.563 293.293 99.8123C293.283 99.9315 293.254 100.048 293.209 100.159C293.173 100.243 293.115 100.316 293.041 100.369L291.853 101.053C291.78 101.053 291.716 101.053 291.674 101.053C291.644 101.02 291.621 100.982 291.607 100.941C291.592 100.899 291.587 100.855 291.59 100.811C291.589 100.487 291.635 100.165 291.727 99.8543C291.812 99.5497 291.917 99.2512 292.042 98.9609C292.179 98.6771 292.316 98.3933 292.473 98.1306C292.631 97.8678 292.757 97.605 292.894 97.3738C293.03 97.1426 293.125 96.9008 293.219 96.6801C293.299 96.4827 293.341 96.2726 293.346 96.0599C293.346 95.7656 293.272 95.5764 293.135 95.5029C292.999 95.4293 292.768 95.5029 292.473 95.629C292.221 95.7615 292.007 95.957 291.853 96.1966C291.737 96.3854 291.642 96.5863 291.569 96.7957L291.422 97.3212C291.389 97.4637 291.303 97.5879 291.18 97.6681L289.993 98.3513C289.971 98.3667 289.945 98.375 289.919 98.375C289.893 98.375 289.867 98.3667 289.846 98.3513C289.822 98.3222 289.804 98.2886 289.793 98.2525C289.782 98.2164 289.778 98.1786 289.782 98.1411C289.797 97.7321 289.861 97.3263 289.972 96.9323C290.105 96.4654 290.281 96.0115 290.497 95.5764C290.727 95.1177 291.009 94.6873 291.338 94.2941C291.653 93.8741 292.041 93.5144 292.484 93.2325ZM293.325 102.945C293.324 103.057 293.299 103.168 293.251 103.27C293.211 103.361 293.145 103.438 293.062 103.491L291.843 104.195C291.831 104.207 291.817 104.216 291.802 104.223C291.786 104.229 291.77 104.232 291.753 104.232C291.737 104.232 291.72 104.229 291.705 104.223C291.69 104.216 291.676 104.207 291.664 104.195C291.634 104.163 291.611 104.125 291.596 104.083C291.582 104.042 291.576 103.997 291.58 103.954V102.45C291.583 102.337 291.611 102.225 291.664 102.125C291.697 102.03 291.76 101.949 291.843 101.893L293.062 101.189C293.088 101.167 293.122 101.155 293.156 101.155C293.191 101.155 293.225 101.167 293.251 101.189C293.279 101.22 293.3 101.257 293.313 101.297C293.325 101.337 293.329 101.379 293.325 101.42V102.945Z" fill="#698AFF"/>
<path d="M159.039 282.585C158.073 282.585 157.145 282.208 156.453 281.534C155.963 281.029 155.583 280.429 155.337 279.77C155.091 279.112 154.985 278.409 155.024 277.708V269.93L134.275 281.922C133.641 282.305 132.914 282.505 132.173 282.5C131.21 282.504 130.284 282.126 129.598 281.449C129.105 280.945 128.722 280.343 128.474 279.683C128.226 279.022 128.118 278.317 128.158 277.613V264.79C128.141 262.49 128.547 260.206 129.356 258.052L152.848 198.887C153.261 197.768 153.82 196.708 154.509 195.734C155.16 194.909 155.967 194.22 156.884 193.705L168.74 186.863C169.374 186.48 170.102 186.28 170.842 186.285C171.805 186.285 172.73 186.662 173.417 187.336C173.909 187.839 174.291 188.439 174.539 189.098C174.786 189.756 174.895 190.459 174.857 191.162V233.026L177.664 231.408C178.297 231.024 179.025 230.823 179.766 230.829C180.728 230.834 181.651 231.21 182.341 231.881C182.819 232.404 183.184 233.021 183.414 233.692C183.643 234.362 183.733 235.073 183.676 235.78V248.593C183.669 249.901 183.368 251.191 182.793 252.366C182.268 253.599 181.376 254.641 180.239 255.351L174.805 258.504V269.309C174.797 270.621 174.495 271.914 173.922 273.093C173.396 274.326 172.505 275.368 171.368 276.078L161.088 282.017C160.465 282.379 159.759 282.574 159.039 282.585ZM151.807 246.354L155.412 244.252V237.262L151.807 246.354Z" fill="#E0E0E0"/>
<path d="M202.9 256.308H202.27C198.95 256.219 195.798 254.83 193.493 252.44C191.117 249.834 189.455 246.659 188.669 243.222C187.662 239.246 187.095 235.171 186.976 231.071C186.871 227.823 186.819 224.25 186.819 220.434C186.819 216.619 186.819 212.898 186.976 209.377C187.149 204.711 187.704 200.067 188.637 195.492C189.565 190.865 191.025 186.361 192.989 182.07C194.911 177.839 197.385 173.88 200.346 170.298C203.388 166.643 207.057 163.56 211.183 161.195C215.324 158.799 218.898 157.643 222.124 157.643H222.755C226.072 157.742 229.22 159.129 231.532 161.511C233.903 164.119 235.564 167.293 236.356 170.729C237.361 174.705 237.929 178.78 238.048 182.879C238.153 186.358 238.206 190.016 238.206 193.768C238.206 197.521 238.206 201.126 238.048 204.573C237.871 209.239 237.315 213.882 236.388 218.458C235.449 223.08 233.986 227.58 232.026 231.87C230.104 236.102 227.63 240.06 224.668 243.642C221.624 247.298 217.955 250.383 213.831 252.755C209.701 255.141 206.117 256.308 202.9 256.308ZM216.07 184.172C215.269 184.269 214.504 184.561 213.842 185.023C212.628 185.714 211.558 186.631 210.689 187.725C209.807 188.862 209.099 190.122 208.587 191.467C208.005 192.988 207.582 194.566 207.325 196.175C207.021 197.996 206.849 199.837 206.81 201.683C206.547 208.462 206.547 215.221 206.81 221.822C206.84 223.457 206.998 225.088 207.283 226.699C207.402 227.591 207.718 228.445 208.208 229.2C208.29 229.331 208.4 229.441 208.532 229.521C208.663 229.601 208.811 229.65 208.965 229.663C209.788 229.584 210.578 229.295 211.256 228.822C212.469 228.124 213.539 227.204 214.41 226.11C215.314 224.961 216.047 223.686 216.585 222.326C217.18 220.827 217.604 219.265 217.847 217.67C218.117 215.842 218.274 213.999 218.32 212.152C218.53 205.267 218.53 198.488 218.32 192.003C218.245 190.384 218.063 188.772 217.773 187.178C217.64 186.262 217.322 185.382 216.838 184.592C216.769 184.474 216.673 184.375 216.558 184.301C216.442 184.228 216.311 184.184 216.175 184.172H216.07Z" fill="#E0E0E0"/>
<path d="M274.311 216.03C273.344 216.031 272.416 215.654 271.725 214.979C271.235 214.475 270.855 213.874 270.609 213.216C270.363 212.557 270.256 211.855 270.295 211.153V203.375L249.505 215.379C248.89 215.752 248.185 215.952 247.466 215.957C246.499 215.962 245.569 215.584 244.88 214.906C244.39 214.402 244.01 213.801 243.764 213.143C243.518 212.484 243.411 211.782 243.451 211.08V198.225C243.43 195.939 243.833 193.669 244.639 191.53L268.12 132.385C268.53 131.267 269.085 130.207 269.77 129.232C270.424 128.41 271.231 127.721 272.145 127.204L284.001 120.361C284.636 119.98 285.363 119.78 286.104 119.783C287.067 119.779 287.993 120.157 288.679 120.834C289.17 121.338 289.552 121.938 289.8 122.596C290.048 123.255 290.156 123.957 290.119 124.66V166.524L292.936 164.906C293.55 164.531 294.255 164.331 294.975 164.328C295.937 164.332 296.86 164.709 297.55 165.379C298.042 165.886 298.424 166.49 298.672 167.152C298.92 167.814 299.028 168.52 298.99 169.226V182.07C298.983 183.38 298.685 184.673 298.117 185.854C297.589 187.085 296.698 188.126 295.563 188.839L290.119 191.992V202.797C290.11 204.107 289.812 205.399 289.246 206.581C288.717 207.815 287.822 208.857 286.682 209.566L276.402 215.505C275.764 215.862 275.042 216.044 274.311 216.03ZM267.09 179.8L270.695 177.697V170.708L267.09 179.8Z" fill="#E0E0E0"/>
<path d="M189.436 239.143C189.358 239.065 189.27 238.997 189.173 238.944L181.195 234.34V196.501C181.226 196.153 181.186 195.802 181.077 195.47C180.969 195.138 180.794 194.831 180.565 194.567L180.312 194.378L171.788 189.427C171.592 189.323 171.372 189.276 171.151 189.291C170.93 189.306 170.717 189.382 170.537 189.512L158.681 196.354C158.063 196.698 157.517 197.159 157.073 197.71C156.531 198.481 156.096 199.323 155.78 200.211L132.299 259.335C131.591 261.179 131.234 263.14 131.248 265.116V277.928C131.216 278.277 131.255 278.628 131.363 278.96C131.472 279.293 131.647 279.6 131.879 279.862C131.956 279.941 132.045 280.008 132.141 280.062L140.666 284.991C140.86 285.094 141.08 285.14 141.299 285.123C141.519 285.107 141.729 285.028 141.906 284.897L158.135 275.616V278.086C158.105 278.433 158.145 278.783 158.251 279.115C158.357 279.447 158.529 279.754 158.755 280.02L159.007 280.209L167.552 285.139C167.746 285.243 167.965 285.29 168.184 285.276C168.404 285.261 168.615 285.184 168.792 285.055L179.072 279.116C179.742 278.67 180.262 278.032 180.565 277.287C180.972 276.459 181.188 275.55 181.195 274.628V262.278L187.943 258.378C188.617 257.937 189.138 257.298 189.436 256.549C189.843 255.722 190.059 254.813 190.066 253.89V241.077C190.097 240.729 190.057 240.378 189.948 240.046C189.84 239.714 189.666 239.407 189.436 239.143Z" fill="#698AFF"/>
<path opacity="0.15" d="M165.555 202.671V202.818C165.07 203.56 164.668 204.353 164.357 205.183L140.886 264.306C140.579 265.092 140.347 265.905 140.193 266.734L131.595 261.773C131.755 260.957 131.984 260.155 132.278 259.377L155.749 200.254C156.074 199.367 156.512 198.526 157.052 197.752L165.555 202.671Z" fill="black"/>
<path opacity="0.3" d="M140.582 284.97C139.615 284.413 132.499 280.304 132.173 280.114C132.078 280.054 131.99 279.984 131.91 279.904C131.679 279.642 131.503 279.335 131.395 279.002C131.286 278.67 131.247 278.319 131.279 277.97V265.168C131.282 264.039 131.395 262.912 131.616 261.805L140.151 266.734C139.927 267.841 139.818 268.968 139.825 270.098V282.91C139.794 283.256 139.833 283.605 139.94 283.935C140.046 284.265 140.218 284.571 140.445 284.834L140.582 284.97Z" fill="black"/>
<path opacity="0.3" d="M167.069 228.864V251.105L159.879 246.953L167.069 228.864Z" fill="black"/>
<path opacity="0.4" d="M167.069 251.105L155.601 257.716L159.879 246.953L167.069 251.105Z" fill="black"/>
<path opacity="0.3" d="M167.3 284.928L167.447 285.055L159.038 280.199C158.943 280.147 158.858 280.08 158.786 279.999C158.555 279.736 158.38 279.429 158.272 279.097C158.163 278.764 158.124 278.413 158.156 278.065V275.616L166.69 270.686V282.973C166.653 283.324 166.688 283.678 166.792 284.014C166.897 284.35 167.07 284.662 167.3 284.928Z" fill="black"/>
<path opacity="0.15" d="M189.078 238.902C188.894 238.83 188.695 238.805 188.499 238.829C188.303 238.852 188.115 238.924 187.954 239.038L181.195 242.938V234.35L189.078 238.902Z" fill="black"/>
<path opacity="0.4" d="M180.26 194.367C180.069 194.281 179.859 194.247 179.65 194.267C179.442 194.287 179.243 194.362 179.072 194.483L167.226 201.326C166.611 201.669 166.065 202.125 165.618 202.671L157.083 197.741C157.526 197.196 158.068 196.739 158.681 196.396L170.537 189.553C170.717 189.422 170.93 189.346 171.152 189.333C171.374 189.32 171.595 189.371 171.788 189.48L180.26 194.367Z" fill="white"/>
<path d="M168.792 285.076C168.573 285.242 168.301 285.323 168.026 285.304C167.752 285.284 167.494 285.166 167.3 284.97C167.069 284.708 166.894 284.401 166.785 284.068C166.677 283.736 166.637 283.385 166.669 283.036V270.665L141.937 284.939C141.719 285.108 141.446 285.19 141.171 285.171C140.896 285.151 140.637 285.031 140.445 284.834C140.213 284.572 140.038 284.265 139.93 283.932C139.821 283.599 139.782 283.248 139.814 282.9V270.087C139.801 268.112 140.157 266.151 140.865 264.306L164.315 205.194C164.642 204.31 165.076 203.47 165.608 202.692C166.056 202.146 166.601 201.686 167.216 201.336L179.072 194.494C179.291 194.327 179.563 194.246 179.838 194.266C180.113 194.285 180.371 194.403 180.564 194.599C180.794 194.862 180.969 195.169 181.077 195.501C181.185 195.834 181.226 196.185 181.195 196.533V242.948L187.943 239.049C188.164 238.887 188.435 238.808 188.709 238.827C188.982 238.847 189.24 238.962 189.436 239.154C189.665 239.417 189.84 239.724 189.948 240.057C190.057 240.389 190.097 240.74 190.066 241.088V253.901C190.059 254.823 189.843 255.732 189.436 256.56C189.138 257.309 188.617 257.947 187.943 258.389L181.195 262.288V274.565C181.188 275.487 180.972 276.396 180.564 277.224C180.261 277.969 179.741 278.607 179.072 279.053L168.792 285.076ZM167.058 251.136V228.853L155.601 257.748L167.058 251.136Z" fill="#698AFF"/>
<path d="M244.47 188.271C244.36 184.37 243.821 180.493 242.862 176.709C242.177 173.708 240.729 170.935 238.658 168.658C238.037 168.004 237.33 167.438 236.555 166.976C235.136 166.135 228.788 162.488 228.01 162.036C226.521 161.186 224.847 160.714 223.133 160.659C220.33 160.512 216.956 161.563 213.011 163.813C209.151 166.016 205.719 168.897 202.879 172.316C200.051 175.719 197.69 179.483 195.858 183.51C193.963 187.617 192.552 191.931 191.653 196.364C190.749 200.794 190.212 205.29 190.045 209.808C189.94 213.311 189.888 216.966 189.888 220.77C189.888 224.565 189.94 228.075 190.045 231.281C190.154 235.183 190.693 239.06 191.653 242.843C192.336 245.848 193.785 248.625 195.858 250.905C196.48 251.554 197.188 252.116 197.96 252.576C199.389 253.417 205.822 257.127 206.642 257.59C208.103 258.397 209.735 258.848 211.403 258.904C214.22 259.051 217.605 257.989 221.525 255.75C225.381 253.54 228.812 250.661 231.657 247.247C234.481 243.842 236.842 240.078 238.679 236.053C240.573 231.946 241.984 227.632 242.883 223.198C243.787 218.769 244.325 214.273 244.491 209.755C244.596 206.392 244.649 202.818 244.649 199.034C244.649 195.25 244.589 191.663 244.47 188.271ZM213.453 231.229C213.259 229.916 213.144 228.593 213.106 227.266C212.847 220.567 212.847 213.798 213.106 206.959C213.15 204.99 213.333 203.027 213.652 201.084C213.942 199.288 214.418 197.526 215.071 195.828C215.682 194.239 216.529 192.751 217.583 191.414C218.539 190.219 219.691 189.196 220.989 188.387C221.168 189.585 221.294 190.888 221.367 192.307C221.578 198.88 221.578 205.649 221.367 212.614C221.324 214.575 221.152 216.53 220.852 218.469C220.586 220.269 220.113 222.032 219.444 223.724C218.811 225.318 217.95 226.812 216.89 228.16C215.929 229.373 214.767 230.411 213.453 231.229Z" fill="#698AFF"/>
<path opacity="0.15" d="M206.442 257.527L198.033 252.65C197.263 252.183 196.556 251.618 195.931 250.968C193.86 248.691 192.412 245.918 191.727 242.917C190.768 239.134 190.228 235.256 190.119 231.355C190.014 228.111 189.961 224.607 189.961 220.844C189.961 217.081 190.014 213.424 190.119 209.871C190.285 205.353 190.823 200.857 191.727 196.428C192.354 193.294 193.24 190.218 194.376 187.231L202.9 192.171C201.777 195.157 200.898 198.229 200.272 201.357C199.36 205.786 198.818 210.282 198.654 214.8C198.548 218.304 198.496 221.962 198.496 225.774C198.496 229.586 198.548 233.089 198.654 236.285C198.761 240.187 199.304 244.065 200.272 247.846C200.954 250.849 202.402 253.623 204.477 255.898C205.06 256.522 205.72 257.07 206.442 257.527Z" fill="black"/>
<path opacity="0.4" d="M236.23 166.777C234.815 166.046 233.258 165.633 231.668 165.568C228.865 165.428 225.488 166.479 221.536 168.721C217.682 170.935 214.255 173.818 211.414 177.235C208.587 180.636 206.222 184.397 204.382 188.418C204.098 189.028 203.835 189.648 203.573 190.279C203.31 190.909 203.1 191.477 202.868 192.087L194.344 187.146C194.544 186.61 194.754 186.095 194.975 185.549C195.259 184.855 195.542 184.172 195.858 183.447C197.701 179.425 200.061 175.662 202.879 172.253C205.727 168.841 209.158 165.962 213.011 163.749C216.932 161.479 220.369 160.428 223.144 160.596C224.853 160.655 226.523 161.128 228.01 161.973C228.746 162.446 234.359 165.673 236.23 166.777Z" fill="white"/>
<path opacity="0.3" d="M229.923 217.575C229.874 219.536 229.702 221.491 229.408 223.43C229.143 225.23 228.671 226.994 228 228.685C227.719 229.385 227.392 230.067 227.022 230.724L218.487 225.795C218.85 225.135 219.173 224.454 219.454 223.756C220.124 222.063 220.6 220.3 220.873 218.5C221.164 216.561 221.332 214.606 221.378 212.646C221.588 205.681 221.588 198.912 221.378 192.339C221.304 190.92 221.178 189.617 221.01 188.418C221.01 188.418 221.231 188.261 221.515 188.092C222.665 187.29 224.043 186.877 225.446 186.915C225.949 186.971 226.434 187.135 226.868 187.396C227.301 187.658 227.673 188.01 227.958 188.429C228.667 189.523 229.137 190.755 229.335 192.045C229.644 193.782 229.841 195.537 229.923 197.3C230.147 203.852 230.147 210.61 229.923 217.575Z" fill="black"/>
<path opacity="0.4" d="M227.054 230.693C226.597 231.535 226.07 232.337 225.477 233.089C224.396 234.451 223.061 235.59 221.546 236.442C220.397 237.239 219.024 237.652 217.626 237.619C217.119 237.569 216.628 237.411 216.188 237.155C215.747 236.9 215.366 236.553 215.071 236.137C214.335 235.061 213.854 233.832 213.663 232.543C213.579 232.122 213.516 231.681 213.453 231.229C214.784 230.418 215.962 229.379 216.932 228.16C217.528 227.407 218.059 226.606 218.519 225.763L227.054 230.693Z" fill="black"/>
<path d="M221.515 168.753C225.446 166.482 228.823 165.431 231.647 165.599C234.298 165.666 236.818 166.768 238.668 168.669C240.74 170.945 242.188 173.719 242.872 176.72C243.831 180.503 244.37 184.38 244.481 188.282C244.586 191.687 244.638 195.285 244.638 199.076C244.638 202.867 244.586 206.441 244.481 209.797C244.314 214.315 243.776 218.811 242.872 223.241C241.974 227.674 240.563 231.988 238.668 236.095C236.834 240.098 234.484 243.843 231.678 247.237C228.833 250.65 225.402 253.53 221.546 255.74C217.626 258.01 214.241 259.072 211.424 258.893C208.769 258.829 206.245 257.727 204.392 255.824C202.319 253.544 200.871 250.767 200.188 247.762C199.228 243.979 198.689 240.102 198.58 236.2C198.475 232.953 198.422 229.442 198.422 225.69C198.422 221.937 198.475 218.248 198.58 214.727C198.746 210.209 199.284 205.713 200.188 201.284C201.087 196.85 202.498 192.536 204.392 188.429C206.233 184.404 208.597 180.64 211.424 177.235C214.253 173.826 217.67 170.953 221.515 168.753ZM229.923 217.575C230.133 210.61 230.133 203.841 229.923 197.268C229.846 195.505 229.65 193.749 229.335 192.013C229.139 190.725 228.674 189.493 227.968 188.397C227.688 187.975 227.317 187.62 226.882 187.358C226.448 187.096 225.961 186.934 225.456 186.884C224.055 186.856 222.681 187.268 221.525 188.061C220.013 188.914 218.682 190.053 217.605 191.414C216.55 192.751 215.704 194.239 215.092 195.828C214.439 197.526 213.963 199.288 213.674 201.084C213.354 203.027 213.171 204.99 213.127 206.959C212.868 213.798 212.868 220.567 213.127 227.266C213.158 229.028 213.327 230.786 213.631 232.522C213.822 233.813 214.307 235.043 215.05 236.116C215.345 236.533 215.725 236.882 216.166 237.139C216.606 237.397 217.097 237.557 217.605 237.609C219.002 237.635 220.373 237.223 221.525 236.432C223.036 235.573 224.37 234.435 225.456 233.079C226.51 231.728 227.366 230.235 228 228.643C228.673 226.952 229.149 225.188 229.419 223.388C229.707 221.463 229.876 219.521 229.923 217.575Z" fill="#698AFF"/>
<path d="M304.718 172.61C304.637 172.531 304.545 172.464 304.445 172.41L296.467 167.807V129.968C296.498 129.621 296.459 129.27 296.352 128.938C296.246 128.606 296.074 128.299 295.847 128.034C295.771 127.961 295.686 127.897 295.595 127.845L287.06 122.915C286.864 122.811 286.644 122.764 286.422 122.779C286.201 122.794 285.989 122.87 285.809 122.999L273.953 129.842C273.334 130.185 272.788 130.646 272.345 131.198C271.811 131.974 271.376 132.815 271.052 133.699L247.581 192.822C246.873 194.667 246.517 196.628 246.53 198.603V211.416C246.497 211.764 246.535 212.114 246.642 212.447C246.748 212.779 246.921 213.087 247.15 213.35C247.232 213.429 247.324 213.496 247.424 213.55L255.948 218.479C256.143 218.582 256.362 218.628 256.582 218.611C256.801 218.594 257.011 218.516 257.188 218.385L273.375 209.041V211.5C273.344 211.848 273.384 212.199 273.493 212.531C273.601 212.864 273.776 213.171 274.005 213.434L274.258 213.623L282.792 218.553C282.987 218.655 283.206 218.701 283.425 218.686C283.643 218.671 283.854 218.596 284.033 218.469L294.354 212.551C295.021 212.102 295.54 211.465 295.847 210.722C296.245 209.892 296.457 208.984 296.467 208.063V195.734L303.225 191.834C303.897 191.39 304.417 190.752 304.718 190.006C305.116 189.175 305.328 188.267 305.338 187.346V174.523C305.392 173.829 305.169 173.141 304.718 172.61Z" fill="#698AFF"/>
<path opacity="0.15" d="M280.827 136.117V136.264C280.342 137.006 279.94 137.799 279.629 138.629L256.158 197.752C255.851 198.538 255.619 199.351 255.464 200.18L246.867 195.219C247.027 194.402 247.256 193.601 247.55 192.822L270.978 133.72C271.304 132.834 271.742 131.993 272.282 131.219L280.827 136.117Z" fill="black"/>
<path opacity="0.3" d="M255.874 218.416C254.907 217.859 247.792 213.749 247.466 213.56C247.371 213.5 247.283 213.429 247.203 213.35C246.971 213.088 246.796 212.781 246.688 212.448C246.579 212.115 246.54 211.764 246.572 211.416V198.614C246.575 197.484 246.687 196.358 246.909 195.25L255.443 200.18C255.22 201.287 255.111 202.414 255.118 203.543V216.356C255.087 216.702 255.126 217.05 255.233 217.38C255.339 217.711 255.511 218.017 255.738 218.279L255.874 218.416Z" fill="black"/>
<path opacity="0.3" d="M282.34 162.31V184.55L275.151 180.399L282.34 162.31Z" fill="black"/>
<path opacity="0.4" d="M282.34 184.55L270.873 191.162L275.151 180.399L282.34 184.55Z" fill="black"/>
<path opacity="0.3" d="M282.572 218.374L282.719 218.5L274.31 213.644C274.215 213.593 274.13 213.525 274.058 213.444C273.827 213.182 273.652 212.875 273.544 212.542C273.435 212.21 273.396 211.859 273.427 211.51V209.04L281.962 204.111V216.44C281.928 216.787 281.964 217.137 282.069 217.47C282.173 217.802 282.345 218.11 282.572 218.374Z" fill="black"/>
<path opacity="0.15" d="M304.35 172.347C304.166 172.276 303.967 172.25 303.771 172.274C303.574 172.298 303.387 172.37 303.225 172.484L296.467 176.383V167.796L304.35 172.347Z" fill="black"/>
<path opacity="0.4" d="M295.532 127.813C295.341 127.727 295.131 127.692 294.922 127.713C294.714 127.733 294.514 127.807 294.344 127.929L282.477 134.771C281.861 135.115 281.316 135.571 280.869 136.117L272.334 131.187C272.777 130.642 273.319 130.185 273.932 129.842L285.788 122.999C285.967 122.868 286.181 122.791 286.403 122.778C286.624 122.765 286.845 122.816 287.039 122.926L295.532 127.813Z" fill="white"/>
<path d="M284.064 218.479C283.845 218.646 283.573 218.727 283.298 218.707C283.024 218.688 282.765 218.57 282.572 218.374C282.344 218.11 282.171 217.802 282.065 217.47C281.958 217.138 281.92 216.788 281.952 216.44V204.142L257.251 218.385C257.033 218.553 256.76 218.636 256.485 218.616C256.21 218.597 255.951 218.477 255.759 218.279C255.527 218.017 255.352 217.71 255.243 217.378C255.135 217.045 255.096 216.694 255.128 216.345V203.533C255.115 201.557 255.471 199.596 256.179 197.752L279.65 138.629C279.973 137.741 280.411 136.9 280.953 136.127C281.369 135.581 281.887 135.121 282.477 134.771L294.333 127.929C294.553 127.764 294.825 127.685 295.099 127.704C295.373 127.723 295.631 127.84 295.826 128.034C296.053 128.299 296.225 128.606 296.331 128.938C296.438 129.27 296.477 129.62 296.446 129.968V176.383L303.204 172.484C303.424 172.32 303.696 172.24 303.97 172.259C304.244 172.279 304.502 172.396 304.697 172.589C304.923 172.854 305.094 173.162 305.201 173.494C305.307 173.826 305.347 174.176 305.317 174.523V187.325C305.307 188.246 305.095 189.154 304.697 189.984C304.396 190.731 303.876 191.369 303.204 191.813L296.467 195.734V208.063C296.457 208.984 296.245 209.892 295.847 210.722C295.54 211.465 295.021 212.101 294.354 212.551L284.064 218.479ZM282.34 184.54V162.299L270.915 191.162L282.34 184.54Z" fill="#698AFF"/>
<path d="M200.724 292.885C200.772 292.846 200.831 292.824 200.893 292.824C200.954 292.824 201.014 292.846 201.061 292.885C201.114 292.945 201.154 293.015 201.179 293.091C201.204 293.167 201.214 293.247 201.208 293.326V296.227C201.203 296.439 201.153 296.647 201.061 296.837C200.995 297.006 200.877 297.15 200.724 297.247L192.316 302.113C192.269 302.153 192.209 302.174 192.148 302.174C192.086 302.174 192.027 302.153 191.979 302.113C191.929 302.053 191.89 301.982 191.867 301.906C191.843 301.831 191.835 301.751 191.843 301.672V284.024C191.843 283.817 191.889 283.612 191.979 283.425C192.048 283.258 192.165 283.115 192.316 283.015L200.609 278.222C200.655 278.181 200.715 278.158 200.777 278.158C200.839 278.158 200.899 278.181 200.945 278.222C200.997 278.281 201.036 278.349 201.059 278.423C201.083 278.498 201.09 278.576 201.082 278.653V281.565C201.082 281.772 201.035 281.977 200.945 282.164C200.877 282.331 200.759 282.474 200.609 282.574L195.133 285.727V288.681L200.209 285.748C200.259 285.71 200.32 285.689 200.383 285.689C200.446 285.689 200.507 285.71 200.556 285.748C200.607 285.809 200.645 285.879 200.669 285.955C200.692 286.031 200.7 286.111 200.693 286.19V289.091C200.693 289.298 200.646 289.503 200.556 289.69C200.484 289.861 200.363 290.007 200.209 290.11L195.133 293.043V296.112L200.724 292.885Z" fill="#455A64"/>
<path d="M208.997 273.335C209.641 272.933 210.353 272.651 211.099 272.505C211.636 272.388 212.198 272.474 212.675 272.746C213.162 273.071 213.516 273.56 213.674 274.123C213.93 274.96 214.047 275.834 214.021 276.709C214.035 277.971 213.847 279.227 213.464 280.43C213.125 281.505 212.598 282.512 211.908 283.404L214.105 288.66C214.142 288.742 214.16 288.832 214.157 288.922C214.16 289.094 214.12 289.264 214.042 289.416C213.985 289.553 213.89 289.67 213.768 289.753L211.351 291.151C211.12 291.287 210.952 291.298 210.846 291.151C210.747 291.049 210.666 290.932 210.605 290.804L208.618 286.127L206.989 287.062V292.927C206.985 293.135 206.935 293.34 206.842 293.526C206.768 293.693 206.652 293.838 206.505 293.947L204.172 295.281C204.127 295.325 204.067 295.35 204.004 295.35C203.941 295.35 203.881 295.325 203.836 295.281C203.783 295.222 203.744 295.151 203.72 295.075C203.697 294.999 203.69 294.919 203.699 294.84V277.129C203.699 276.922 203.746 276.717 203.836 276.53C203.905 276.36 204.022 276.214 204.172 276.11L208.997 273.335ZM206.989 282.795L208.997 281.639C209.488 281.35 209.908 280.955 210.226 280.482C210.577 279.923 210.749 279.271 210.72 278.611C210.72 277.844 210.552 277.413 210.226 277.308C210.014 277.267 209.795 277.27 209.583 277.317C209.371 277.364 209.172 277.454 208.997 277.581L206.989 278.769V282.795Z" fill="#455A64"/>
<path d="M221.799 265.935C222.445 265.537 223.157 265.256 223.901 265.105C224.435 265 224.989 265.085 225.467 265.347C225.971 265.67 226.343 266.162 226.518 266.734C226.742 267.573 226.827 268.443 226.77 269.309C226.782 270.574 226.598 271.833 226.224 273.041C225.877 274.112 225.347 275.115 224.658 276.005L226.854 281.26C226.895 281.346 226.916 281.439 226.917 281.533C226.914 281.704 226.875 281.873 226.802 282.027C226.739 282.163 226.641 282.279 226.518 282.364L224.1 283.762C223.869 283.898 223.701 283.909 223.596 283.762C223.494 283.658 223.412 283.537 223.354 283.404L221.42 278.769L219.791 279.715V285.58C219.787 285.788 219.737 285.993 219.644 286.179C219.575 286.346 219.458 286.489 219.308 286.589L216.974 287.934C216.928 287.976 216.868 287.999 216.806 287.999C216.744 287.999 216.684 287.976 216.638 287.934C216.587 287.874 216.549 287.803 216.525 287.727C216.502 287.652 216.494 287.572 216.501 287.493V269.74C216.501 269.529 216.548 269.321 216.638 269.131C216.706 268.963 216.824 268.821 216.974 268.721L221.799 265.935ZM219.791 275.395L221.799 274.228C222.294 273.95 222.716 273.557 223.028 273.083C223.377 272.523 223.55 271.871 223.522 271.212C223.522 270.445 223.354 270.014 223.028 269.908C222.816 269.868 222.597 269.871 222.385 269.918C222.174 269.965 221.974 270.055 221.799 270.182L219.791 271.338V275.395Z" fill="#455A64"/>
<path d="M228.872 268.984C228.907 267.92 229.051 266.864 229.303 265.83C229.546 264.801 229.899 263.8 230.354 262.845C230.818 261.92 231.393 261.055 232.068 260.27C232.726 259.501 233.512 258.85 234.391 258.347C235.082 257.898 235.88 257.641 236.703 257.6C237.328 257.585 237.937 257.798 238.416 258.2C238.918 258.667 239.282 259.263 239.467 259.923C239.737 260.777 239.883 261.666 239.898 262.562C239.898 263.329 239.898 264.149 239.898 265C239.898 265.851 239.898 266.671 239.898 267.439C239.864 268.502 239.72 269.558 239.467 270.592C239.227 271.626 238.875 272.63 238.416 273.587C237.958 274.516 237.382 275.381 236.703 276.162C236.043 276.924 235.262 277.57 234.391 278.075C233.695 278.526 232.895 278.79 232.068 278.843C231.443 278.859 230.833 278.645 230.354 278.244C229.861 277.761 229.499 277.161 229.303 276.499C229.033 275.645 228.888 274.756 228.872 273.861C228.872 273.125 228.872 272.326 228.872 271.475C228.872 270.623 228.872 269.782 228.872 268.984ZM236.682 269.215C236.682 268.879 236.682 268.511 236.682 268.101C236.682 267.691 236.682 267.281 236.682 266.86C236.682 266.44 236.682 266.041 236.682 265.652C236.682 265.263 236.682 264.926 236.682 264.601C236.66 264.21 236.597 263.822 236.493 263.444C236.415 263.16 236.267 262.9 236.062 262.688C235.874 262.517 235.632 262.42 235.379 262.414C235.037 262.431 234.706 262.54 234.422 262.73C234.055 262.936 233.727 263.207 233.455 263.529C233.183 263.848 232.953 264.201 232.772 264.58C232.586 264.98 232.445 265.399 232.352 265.83C232.245 266.279 232.182 266.736 232.162 267.197C232.162 267.523 232.162 267.88 232.162 268.248C232.162 268.616 232.162 269.057 232.162 269.478C232.162 269.898 232.162 270.308 232.162 270.697C232.162 271.086 232.162 271.454 232.162 271.748C232.141 272.44 232.356 273.118 232.772 273.671C233.14 274.06 233.686 274.05 234.422 273.619C235.153 273.202 235.726 272.556 236.051 271.779C236.414 270.968 236.634 270.101 236.703 269.215H236.682Z" fill="#455A64"/>
<path d="M247.792 250.915C248.438 250.517 249.15 250.236 249.894 250.085C250.428 249.98 250.983 250.065 251.46 250.327C251.964 250.65 252.337 251.142 252.511 251.714C252.767 252.548 252.884 253.418 252.858 254.289C252.87 255.554 252.686 256.813 252.311 258.021C251.962 259.094 251.433 260.1 250.745 260.995L252.942 266.251C252.983 266.336 253.004 266.429 253.005 266.524C253.002 266.695 252.963 266.863 252.89 267.018C252.826 267.153 252.729 267.269 252.606 267.354L250.188 268.752C249.957 268.889 249.789 268.899 249.684 268.752C249.582 268.649 249.5 268.528 249.442 268.395L247.466 263.675L245.837 264.621V270.486C245.833 270.695 245.783 270.899 245.69 271.086C245.621 271.253 245.504 271.396 245.353 271.495L243.02 272.841C242.974 272.882 242.914 272.905 242.852 272.905C242.79 272.905 242.73 272.882 242.684 272.841C242.633 272.78 242.594 272.71 242.571 272.634C242.548 272.558 242.539 272.478 242.547 272.399V254.72C242.548 254.51 242.595 254.302 242.684 254.111C242.752 253.943 242.869 253.801 243.02 253.701L247.792 250.915ZM245.784 260.375L247.792 259.208C248.288 258.928 248.713 258.535 249.032 258.063C249.378 257.502 249.546 256.85 249.516 256.192C249.516 255.424 249.358 254.994 249.032 254.888C248.818 254.847 248.597 254.85 248.384 254.897C248.17 254.944 247.969 255.034 247.792 255.162L245.784 256.318V260.375Z" fill="#455A64"/>
<path d="M168.656 323.156C169.707 322.525 170.611 322.431 171.221 322.883C171.83 323.335 172.135 324.312 172.135 325.857C172.166 327.261 171.852 328.65 171.221 329.904C170.645 331.033 169.754 331.972 168.656 332.605L166.48 333.856V338.544C166.476 338.701 166.437 338.856 166.365 338.996C166.316 339.128 166.228 339.241 166.112 339.322L165.061 339.952C165.026 339.986 164.979 340.005 164.93 340.005C164.881 340.005 164.834 339.986 164.799 339.952C164.759 339.908 164.73 339.857 164.711 339.801C164.693 339.744 164.687 339.685 164.694 339.627V326.068C164.693 325.907 164.729 325.749 164.799 325.605C164.854 325.477 164.945 325.367 165.061 325.29L168.656 323.156ZM166.48 331.239L168.583 330.02C169.133 329.72 169.586 329.268 169.888 328.719C170.19 328.169 170.328 327.545 170.285 326.919C170.285 326.131 170.128 325.679 169.823 325.553C169.609 325.504 169.387 325.504 169.172 325.551C168.958 325.598 168.756 325.692 168.583 325.826L166.48 327.045V331.239Z" fill="#E0E0E0"/>
<path d="M177.874 317.848C178.011 317.764 178.126 317.753 178.2 317.848C178.297 317.97 178.362 318.115 178.389 318.268L181.731 329.599C181.731 329.599 181.731 329.683 181.731 329.736C181.728 329.895 181.692 330.053 181.626 330.198C181.573 330.328 181.481 330.438 181.364 330.514L180.386 331.081C180.197 331.186 180.071 331.207 179.997 331.081C179.926 331.008 179.875 330.917 179.85 330.818L179.261 328.832L174.973 331.323L174.384 333.982C174.346 334.129 174.297 334.273 174.237 334.413C174.157 334.587 174.02 334.727 173.848 334.812L172.871 335.38C172.834 335.412 172.788 335.429 172.739 335.429C172.691 335.429 172.644 335.412 172.608 335.38C172.53 335.286 172.492 335.165 172.503 335.044C172.497 334.991 172.497 334.938 172.503 334.886L175.856 319.761C175.895 319.541 175.958 319.326 176.045 319.12C176.109 318.964 176.224 318.834 176.371 318.752L177.874 317.848ZM178.62 326.625L177.117 321.506L175.625 328.348L178.62 326.625Z" fill="#E0E0E0"/>
<path d="M182.793 320.434C182.805 319.603 182.904 318.775 183.087 317.964C183.267 317.191 183.532 316.44 183.876 315.725C184.218 315.041 184.649 314.405 185.158 313.833C185.669 313.268 186.265 312.786 186.924 312.404C187.505 312.015 188.18 311.789 188.879 311.752C189.321 311.749 189.752 311.897 190.098 312.172C190.412 312.451 190.635 312.817 190.739 313.224C190.855 313.563 190.926 313.917 190.949 314.275C190.961 314.438 190.928 314.601 190.855 314.748C190.795 314.874 190.7 314.98 190.582 315.052L189.53 315.694C189.436 315.746 189.352 315.757 189.299 315.694C189.237 315.653 189.19 315.594 189.163 315.525C189.123 315.428 189.077 315.333 189.026 315.242C188.938 315.086 188.811 314.956 188.658 314.863C188.456 314.75 188.227 314.695 187.996 314.706C187.621 314.728 187.259 314.848 186.945 315.052C186.233 315.477 185.663 316.102 185.305 316.85C184.888 317.671 184.665 318.577 184.653 319.498C184.653 320.045 184.653 320.623 184.653 321.222C184.653 321.821 184.653 322.399 184.653 322.914C184.653 324.06 184.895 324.785 185.305 325.017C185.563 325.155 185.857 325.215 186.149 325.187C186.441 325.159 186.718 325.045 186.945 324.859C187.28 324.662 187.591 324.425 187.87 324.155C188.16 323.871 188.404 323.545 188.595 323.188C188.817 322.791 188.977 322.362 189.068 321.916C189.191 321.385 189.251 320.842 189.247 320.297V320.129L187.575 321.096C187.54 321.125 187.495 321.141 187.449 321.141C187.403 321.141 187.359 321.125 187.323 321.096C187.284 321.05 187.254 320.997 187.236 320.939C187.218 320.881 187.212 320.82 187.218 320.76V319.267C187.217 319.107 187.253 318.949 187.323 318.805C187.379 318.68 187.466 318.571 187.575 318.489L190.729 316.682C190.762 316.648 190.808 316.629 190.855 316.629C190.902 316.629 190.947 316.648 190.981 316.682C191.023 316.726 191.055 316.779 191.075 316.837C191.095 316.895 191.102 316.957 191.097 317.018V319.32C191.094 320.15 191.006 320.978 190.834 321.79C190.672 322.577 190.411 323.339 190.056 324.06C189.714 324.763 189.28 325.417 188.763 326.005C188.245 326.593 187.634 327.094 186.955 327.487C186.411 327.834 185.791 328.047 185.147 328.107C184.918 328.12 184.688 328.087 184.471 328.009C184.254 327.932 184.055 327.811 183.886 327.655C183.508 327.28 183.242 326.807 183.119 326.288C182.928 325.604 182.829 324.897 182.825 324.186C182.825 323.923 182.825 323.629 182.825 323.314C182.825 322.999 182.825 322.662 182.825 322.326C182.825 321.99 182.825 321.664 182.825 321.338C182.825 321.012 182.783 320.707 182.793 320.434Z" fill="#E0E0E0"/>
<path d="M199.442 317.438C199.477 317.404 199.525 317.385 199.574 317.385C199.623 317.385 199.67 317.404 199.705 317.438C199.747 317.483 199.779 317.536 199.799 317.594C199.819 317.652 199.826 317.713 199.821 317.774V319.256C199.818 319.417 199.778 319.576 199.705 319.719C199.656 319.851 199.563 319.962 199.442 320.034L193.462 323.492C193.427 323.523 193.382 323.54 193.335 323.54C193.289 323.54 193.244 323.523 193.209 323.492C193.167 323.448 193.135 323.395 193.115 323.337C193.095 323.279 193.088 323.217 193.094 323.156V309.608C193.096 309.447 193.136 309.288 193.209 309.145C193.259 309.016 193.347 308.906 193.462 308.83L199.337 305.435C199.373 305.403 199.42 305.385 199.468 305.385C199.517 305.385 199.563 305.403 199.6 305.435C199.64 305.481 199.669 305.534 199.687 305.592C199.706 305.65 199.712 305.711 199.705 305.771V307.264C199.704 307.42 199.668 307.575 199.6 307.716C199.547 307.848 199.456 307.962 199.337 308.041L194.933 310.575V313.917L199.043 311.542C199.078 311.513 199.123 311.497 199.169 311.497C199.215 311.497 199.259 311.513 199.295 311.542C199.336 311.587 199.367 311.64 199.387 311.698C199.407 311.756 199.415 311.817 199.411 311.878V313.455C199.408 313.616 199.369 313.774 199.295 313.917C199.239 314.042 199.153 314.151 199.043 314.232L194.954 316.608V320.097L199.442 317.438Z" fill="#E0E0E0"/>
<path d="M211.498 313.108C211.34 313.202 211.225 313.202 211.151 313.108L210.972 312.919L207.157 306.391V315.031C207.154 315.192 207.115 315.351 207.041 315.494C206.992 315.623 206.904 315.733 206.789 315.809L205.685 316.45C205.65 316.484 205.603 316.503 205.554 316.503C205.505 316.503 205.458 316.484 205.423 316.45C205.382 316.405 205.352 316.351 205.334 316.293C205.316 316.235 205.31 316.174 205.318 316.114V302.566C205.317 302.405 205.353 302.247 205.423 302.103C205.472 301.971 205.565 301.86 205.685 301.788L206.631 301.231C206.789 301.147 206.905 301.136 206.989 301.231C207.054 301.288 207.114 301.351 207.167 301.42L210.983 307.947V299.307C210.982 299.147 211.018 298.989 211.088 298.845C211.141 298.715 211.233 298.605 211.351 298.529L212.402 297.888C212.437 297.854 212.484 297.835 212.533 297.835C212.582 297.835 212.629 297.854 212.665 297.888C212.742 297.983 212.779 298.103 212.77 298.225V311.773C212.764 311.932 212.728 312.089 212.665 312.235C212.611 312.365 212.52 312.475 212.402 312.551L211.498 313.108Z" fill="#E0E0E0"/>
<path d="M214.967 301.893C214.989 301.09 215.084 300.292 215.25 299.507C215.415 298.738 215.665 297.991 215.997 297.278C216.316 296.584 216.73 295.937 217.227 295.355C217.715 294.766 218.306 294.271 218.971 293.894C219.487 293.559 220.081 293.367 220.695 293.337C220.923 293.335 221.149 293.379 221.361 293.466C221.572 293.553 221.763 293.68 221.925 293.841C222.285 294.23 222.542 294.704 222.671 295.218C222.858 295.886 222.961 296.575 222.976 297.268C222.976 297.531 222.976 297.815 222.976 298.14V300.127C222.976 300.453 222.976 300.747 222.976 301.02C222.946 301.823 222.847 302.621 222.682 303.406C222.519 304.175 222.268 304.923 221.935 305.635C221.616 306.329 221.202 306.976 220.706 307.558C220.215 308.135 219.628 308.622 218.971 308.998C218.451 309.339 217.848 309.535 217.227 309.566C216.768 309.568 216.326 309.391 215.997 309.072C215.636 308.683 215.379 308.209 215.25 307.695C215.072 307.026 214.977 306.337 214.967 305.645C214.967 305.393 214.967 305.099 214.967 304.783C214.967 304.468 214.967 304.132 214.967 303.785C214.967 303.438 214.967 303.112 214.967 302.786C214.967 302.46 214.956 302.177 214.967 301.893ZM221.137 298.435C221.19 297.719 220.964 297.011 220.506 296.459C220.279 296.299 220.007 296.218 219.73 296.227C219.453 296.237 219.186 296.336 218.971 296.511C218.299 296.919 217.764 297.52 217.437 298.235C217.029 299.077 216.813 300 216.806 300.936C216.806 301.483 216.806 302.071 216.806 302.723C216.806 303.375 216.806 303.963 216.806 304.478C216.773 304.832 216.812 305.188 216.92 305.526C217.029 305.863 217.204 306.176 217.437 306.444C217.826 306.77 218.33 306.749 218.971 306.381C219.638 305.975 220.172 305.383 220.506 304.678C220.903 303.832 221.118 302.911 221.137 301.977C221.137 301.441 221.137 300.842 221.137 300.19C221.137 299.538 221.147 298.971 221.137 298.445V298.435Z" fill="#E0E0E0"/>
<path d="M231.269 287.01C231.305 286.978 231.352 286.96 231.4 286.96C231.448 286.96 231.495 286.978 231.531 287.01C231.571 287.055 231.601 287.109 231.619 287.167C231.637 287.225 231.643 287.286 231.637 287.346V288.838C231.637 288.999 231.601 289.157 231.531 289.301C231.476 289.429 231.385 289.539 231.269 289.616L228.872 291.046V302.544C228.869 302.704 228.833 302.861 228.767 303.007C228.714 303.136 228.622 303.247 228.504 303.322L227.453 303.963C227.417 303.995 227.37 304.013 227.322 304.013C227.274 304.013 227.227 303.995 227.191 303.963C227.15 303.918 227.12 303.864 227.102 303.806C227.084 303.748 227.078 303.687 227.085 303.627V292.118L224.531 293.484C224.496 293.518 224.449 293.537 224.4 293.537C224.351 293.537 224.304 293.518 224.269 293.484C224.229 293.44 224.199 293.389 224.181 293.332C224.163 293.276 224.157 293.217 224.163 293.158V291.666C224.163 291.506 224.199 291.347 224.269 291.203C224.318 291.071 224.41 290.96 224.531 290.888L231.269 287.01Z" fill="#E0E0E0"/>
<path d="M242.641 280.451C242.676 280.42 242.721 280.403 242.767 280.403C242.814 280.403 242.859 280.42 242.894 280.451C242.936 280.495 242.968 280.548 242.988 280.606C243.008 280.664 243.015 280.726 243.009 280.787V282.269C243.007 282.43 242.967 282.588 242.894 282.732C242.844 282.86 242.756 282.971 242.641 283.047L238.332 285.58V289.648L242.41 287.304C242.445 287.273 242.49 287.256 242.536 287.256C242.583 287.256 242.628 287.273 242.662 287.304C242.703 287.349 242.734 287.403 242.754 287.46C242.774 287.518 242.782 287.579 242.778 287.64V289.133C242.775 289.294 242.736 289.452 242.662 289.595C242.613 289.724 242.525 289.834 242.41 289.91L238.332 292.275V297.079C238.333 297.239 238.297 297.397 238.227 297.541C238.178 297.673 238.085 297.784 237.964 297.857L236.86 298.498C236.824 298.53 236.777 298.547 236.729 298.547C236.681 298.547 236.634 298.53 236.598 298.498C236.558 298.452 236.528 298.398 236.51 298.341C236.492 298.283 236.486 298.222 236.493 298.161V284.592C236.492 284.432 236.528 284.274 236.598 284.13C236.647 283.998 236.74 283.886 236.86 283.814L242.641 280.451Z" fill="#E0E0E0"/>
<path d="M244.491 284.855C244.517 284.052 244.615 283.253 244.786 282.469C244.945 281.7 245.192 280.953 245.522 280.24C245.845 279.548 246.259 278.901 246.751 278.317C247.242 277.731 247.833 277.236 248.496 276.856C249.015 276.52 249.613 276.328 250.23 276.299C250.457 276.298 250.681 276.342 250.891 276.429C251.1 276.516 251.29 276.643 251.45 276.803C251.809 277.195 252.068 277.667 252.206 278.18C252.39 278.848 252.489 279.537 252.501 280.23C252.501 280.493 252.501 280.776 252.501 281.102C252.501 281.428 252.501 281.754 252.501 282.09C252.501 282.427 252.501 282.763 252.501 283.089C252.501 283.415 252.501 283.719 252.501 283.982C252.476 284.785 252.377 285.584 252.206 286.368C252.047 287.137 251.8 287.884 251.471 288.596C251.147 289.291 250.73 289.938 250.23 290.52C249.74 291.097 249.153 291.584 248.496 291.96C247.976 292.302 247.373 292.498 246.751 292.527C246.293 292.528 245.852 292.351 245.522 292.033C245.162 291.646 244.908 291.171 244.786 290.657C244.604 289.988 244.505 289.3 244.491 288.607C244.491 288.355 244.491 288.06 244.491 287.745C244.491 287.43 244.491 287.093 244.491 286.694C244.491 286.295 244.491 286.021 244.491 285.695C244.491 285.37 244.481 285.128 244.491 284.855ZM250.661 281.397C250.693 281.042 250.653 280.684 250.545 280.345C250.437 280.006 250.262 279.691 250.031 279.421C249.642 279.095 249.127 279.116 248.496 279.484C247.826 279.89 247.292 280.487 246.962 281.197C246.553 282.039 246.338 282.962 246.331 283.898C246.331 284.445 246.331 285.033 246.331 285.685C246.331 286.337 246.331 286.925 246.331 287.44C246.298 287.793 246.337 288.15 246.445 288.488C246.554 288.825 246.729 289.138 246.962 289.406C247.35 289.732 247.865 289.711 248.496 289.343C249.163 288.937 249.697 288.345 250.031 287.64C250.439 286.798 250.654 285.875 250.661 284.939C250.661 284.403 250.661 283.804 250.661 283.152C250.661 282.5 250.682 281.922 250.661 281.397Z" fill="#E0E0E0"/>
<path d="M262.013 269.309C262.049 269.278 262.096 269.26 262.144 269.26C262.193 269.26 262.239 269.278 262.276 269.309C262.354 269.403 262.392 269.524 262.381 269.646V278.254C262.382 279.09 262.301 279.925 262.139 280.745C261.997 281.511 261.767 282.259 261.456 282.973C261.138 283.653 260.724 284.283 260.226 284.844C259.738 285.396 259.163 285.865 258.523 286.232C258.011 286.568 257.421 286.767 256.81 286.81C256.587 286.82 256.364 286.785 256.155 286.707C255.945 286.63 255.754 286.511 255.591 286.358C255.226 285.971 254.975 285.491 254.866 284.97C254.693 284.248 254.612 283.506 254.624 282.763V274.155C254.629 273.994 254.668 273.836 254.739 273.692C254.791 273.565 254.879 273.456 254.992 273.377L256.043 272.736C256.079 272.704 256.126 272.687 256.174 272.687C256.222 272.687 256.269 272.704 256.306 272.736C256.384 272.83 256.421 272.951 256.411 273.072V281.565C256.397 282.032 256.45 282.5 256.568 282.952C256.628 283.241 256.775 283.506 256.989 283.709C257.079 283.783 257.183 283.837 257.295 283.87C257.407 283.902 257.525 283.912 257.64 283.898C257.934 283.85 258.216 283.746 258.471 283.593C259.119 283.217 259.642 282.657 259.974 281.985C260.166 281.588 260.307 281.167 260.394 280.735C260.505 280.223 260.558 279.702 260.552 279.179V270.676C260.555 270.515 260.594 270.356 260.668 270.213C260.72 270.084 260.808 269.971 260.92 269.887L262.013 269.309Z" fill="#E0E0E0"/>
<path d="M270.968 278.769C270.81 278.853 270.695 278.864 270.611 278.769C270.545 278.712 270.485 278.648 270.432 278.58L266.617 272.063V280.703C266.617 280.863 266.581 281.021 266.511 281.166C266.459 281.295 266.367 281.406 266.249 281.481L265.145 282.122C265.11 282.153 265.066 282.17 265.019 282.17C264.972 282.17 264.928 282.153 264.893 282.122C264.852 282.077 264.82 282.023 264.801 281.966C264.781 281.908 264.773 281.847 264.777 281.786V268.258C264.781 268.101 264.821 267.946 264.893 267.806C264.946 267.677 265.033 267.564 265.145 267.481L266.102 266.934C266.259 266.85 266.375 266.839 266.459 266.934L266.638 267.123L270.453 273.64V265C270.452 264.84 270.488 264.682 270.558 264.537C270.614 264.412 270.701 264.304 270.81 264.222L271.925 263.581C271.96 263.552 272.005 263.536 272.051 263.536C272.097 263.536 272.141 263.552 272.177 263.581C272.217 263.627 272.248 263.68 272.268 263.738C272.288 263.795 272.296 263.856 272.292 263.917V277.466C272.29 277.627 272.25 277.785 272.177 277.928C272.124 278.058 272.037 278.17 271.925 278.254L270.968 278.769Z" fill="#E0E0E0"/>
<path d="M278.483 259.755C279.012 259.416 279.614 259.207 280.239 259.145C280.465 259.133 280.692 259.167 280.905 259.244C281.118 259.322 281.313 259.442 281.479 259.597C281.85 259.984 282.112 260.463 282.236 260.985C282.435 261.704 282.544 262.446 282.561 263.192C282.561 264.243 282.561 265.242 282.561 266.293C282.531 267.159 282.422 268.021 282.236 268.868C282.079 269.648 281.829 270.407 281.489 271.128C281.17 271.804 280.76 272.433 280.27 272.998C279.778 273.554 279.2 274.026 278.557 274.396L275.12 276.383C275.085 276.414 275.04 276.431 274.994 276.431C274.947 276.431 274.902 276.414 274.868 276.383C274.827 276.338 274.795 276.284 274.775 276.227C274.755 276.169 274.747 276.108 274.752 276.047V262.477C274.755 262.316 274.794 262.158 274.868 262.015C274.913 261.884 275.002 261.773 275.12 261.699L278.483 259.755ZM280.722 264.254C280.71 263.863 280.653 263.475 280.554 263.097C280.48 262.814 280.335 262.553 280.133 262.341C280.041 262.25 279.93 262.181 279.809 262.135C279.688 262.09 279.558 262.07 279.429 262.078C279.055 262.091 278.691 262.207 278.378 262.414L276.549 263.465V272.925L278.441 271.874C278.811 271.67 279.138 271.399 279.408 271.075C279.685 270.759 279.915 270.405 280.091 270.024C280.278 269.624 280.419 269.205 280.512 268.773C280.605 268.327 280.662 267.873 280.68 267.417C280.754 266.303 280.754 265.263 280.722 264.254Z" fill="#E0E0E0"/>
<path d="M432.078 36.7162L379.303 67.1974C378.905 67.4541 378.574 67.8012 378.337 68.2105C378.099 68.6197 377.962 69.0794 377.937 69.5518V137.031C377.961 137.502 378.098 137.961 378.336 138.369C378.573 138.776 378.905 139.121 379.303 139.375L384.18 142.108C384.602 142.32 385.068 142.431 385.541 142.431C386.014 142.431 386.48 142.32 386.902 142.108L439.687 111.627C440.081 111.366 440.408 111.018 440.643 110.609C440.879 110.201 441.016 109.743 441.043 109.272V41.7718C441.019 41.302 440.882 40.8449 440.644 40.4389C440.406 40.0329 440.075 39.6898 439.677 39.4384L434.81 36.7056C434.385 36.4946 433.917 36.3856 433.443 36.3875C432.968 36.3893 432.501 36.5018 432.078 36.7162Z" fill="#698AFF"/>
<path d="M385.546 141.309V73.8086C385.572 73.3373 385.707 72.8785 385.943 72.4695C386.179 72.0605 386.507 71.7127 386.902 71.4542L439.687 40.9729C440.434 40.542 441.043 40.8889 441.043 41.7507V109.24C441.015 109.711 440.879 110.169 440.643 110.578C440.408 110.986 440.081 111.335 439.687 111.595L386.902 142.076C386.145 142.528 385.546 142.129 385.546 141.309Z" fill="#698AFF"/>
<path opacity="0.2" d="M386.902 142.129C386.476 142.334 386.009 142.44 385.536 142.44C385.063 142.44 384.596 142.334 384.169 142.129L379.303 139.396C378.907 139.143 378.577 138.799 378.339 138.394C378.102 137.988 377.964 137.532 377.937 137.063V69.6045C377.956 69.1123 378.105 68.6339 378.367 68.217L385.946 72.537C385.698 72.9391 385.56 73.3995 385.546 73.8718V141.351C385.546 142.129 386.103 142.56 386.902 142.129Z" fill="black"/>
<path opacity="0.4" d="M441.022 41.53C440.917 40.8468 440.36 40.605 439.687 40.9939L386.902 71.4752C386.498 71.7373 386.169 72.0994 385.946 72.5263L378.367 68.2064C378.592 67.8095 378.914 67.4766 379.303 67.2394L432.088 36.7581C432.51 36.5455 432.976 36.4348 433.449 36.4348C433.922 36.4348 434.388 36.5455 434.81 36.7581L439.677 39.4804C440.033 39.7083 440.336 40.0086 440.568 40.3618C440.8 40.715 440.955 41.113 441.022 41.53Z" fill="white"/>
<path d="M377.937 89.8901L367.005 101.011C366.878 101.137 366.78 101.291 366.72 101.46C366.66 101.629 366.639 101.81 366.658 101.989C366.677 102.167 366.737 102.339 366.831 102.492C366.926 102.645 367.054 102.774 367.205 102.871C367.436 103.018 374.773 107.233 374.773 107.233L385.546 94.2731L377.937 89.8901Z" fill="#698AFF"/>
<path opacity="0.1" d="M377.937 89.8901L367.005 101.011C366.878 101.137 366.78 101.291 366.72 101.46C366.66 101.629 366.639 101.81 366.658 101.989C366.677 102.167 366.737 102.339 366.831 102.492C366.926 102.645 367.054 102.774 367.205 102.871C367.436 103.018 374.773 107.233 374.773 107.233L385.546 94.2731L377.937 89.8901Z" fill="black"/>
<path d="M385.546 94.2732L374.605 105.394C374.427 105.575 374.311 105.808 374.274 106.059C374.236 106.31 374.278 106.567 374.395 106.792C374.511 107.018 374.695 107.201 374.922 107.316C375.148 107.431 375.405 107.472 375.656 107.433L385.567 106.003C386.608 106.003 386.608 94.2732 385.546 94.2732Z" fill="#698AFF"/>
<path d="M404.403 91.677C404.132 91.6759 403.872 91.5705 403.678 91.3827L395.836 83.8359C395.725 83.7439 395.634 83.6298 395.568 83.5009C395.503 83.3719 395.465 83.2309 395.456 83.0865C395.448 82.9422 395.469 82.7976 395.519 82.662C395.569 82.5263 395.647 82.4023 395.747 82.298C395.847 82.1936 395.967 82.1109 396.101 82.0552C396.234 81.9995 396.377 81.972 396.522 81.9743C396.667 81.9765 396.809 82.0086 396.941 82.0685C397.072 82.1284 397.19 82.2148 397.287 82.3224L405.139 89.8691C405.237 89.9668 405.315 90.0831 405.369 90.2111C405.422 90.3392 405.449 90.4766 405.449 90.6154C405.449 90.7541 405.422 90.8915 405.369 91.0196C405.315 91.1477 405.237 91.2639 405.139 91.3616C404.944 91.5597 404.68 91.673 404.403 91.677Z" fill="#455A64"/>
<path d="M396.562 96.2386C396.406 96.2375 396.253 96.2053 396.11 96.144C395.859 96.0236 395.667 95.809 395.574 95.547C395.482 95.285 395.497 94.9971 395.616 94.7461L403.457 78.139C403.575 77.8868 403.789 77.6919 404.051 77.5973C404.313 77.5027 404.602 77.5161 404.855 77.6345C405.107 77.753 405.302 77.9669 405.396 78.229C405.491 78.4912 405.478 78.7802 405.359 79.0325L397.518 95.6395C397.432 95.82 397.297 95.9722 397.127 96.0783C396.958 96.1844 396.762 96.24 396.562 96.2386Z" fill="#455A64"/>
<path d="M430.028 76.9619C429.754 76.9635 429.49 76.8579 429.292 76.6676L421.451 69.1208C421.255 68.9239 421.146 68.6575 421.146 68.3798C421.146 68.1021 421.255 67.8357 421.451 67.6388C421.549 67.5403 421.665 67.4621 421.793 67.4087C421.921 67.3554 422.059 67.3279 422.197 67.3279C422.336 67.3279 422.474 67.3554 422.602 67.4087C422.73 67.4621 422.846 67.5403 422.944 67.6388L430.785 75.1855C430.935 75.3307 431.039 75.5175 431.083 75.722C431.127 75.9266 431.109 76.1395 431.031 76.3337C430.953 76.5278 430.819 76.6943 430.646 76.8118C430.473 76.9293 430.269 76.9926 430.059 76.9934L430.028 76.9619Z" fill="#455A64"/>
<path d="M422.177 81.45C422.024 81.4508 421.874 81.4186 421.735 81.3554C421.609 81.2968 421.496 81.2136 421.402 81.1109C421.308 81.0081 421.235 80.8877 421.188 80.7566C421.141 80.6256 421.121 80.4866 421.128 80.3476C421.135 80.2086 421.17 80.0724 421.231 79.947L429.072 63.3504C429.129 63.2229 429.21 63.108 429.312 63.0125C429.414 62.917 429.534 62.8427 429.665 62.7941C429.796 62.7454 429.935 62.7234 430.075 62.7292C430.215 62.735 430.351 62.7686 430.478 62.828C430.604 62.8873 430.718 62.9713 430.811 63.075C430.905 63.1787 430.977 63.3 431.023 63.4318C431.069 63.5636 431.089 63.7033 431.08 63.8428C431.072 63.9822 431.036 64.1186 430.974 64.2439L423.133 80.8509C423.047 81.0314 422.911 81.1836 422.742 81.2897C422.573 81.3958 422.376 81.4514 422.177 81.45Z" fill="#455A64"/>
<path d="M396.215 115.053C396.03 115.054 395.847 115.006 395.687 114.913C395.526 114.821 395.393 114.688 395.3 114.527C395.163 114.286 395.127 114 395.2 113.733C395.273 113.465 395.449 113.237 395.689 113.098L429.849 93.3693C430.092 93.2299 430.38 93.1926 430.65 93.2655C430.92 93.3384 431.15 93.5156 431.289 93.7582C431.429 94.0007 431.466 94.2887 431.393 94.5587C431.32 94.8287 431.143 95.0588 430.9 95.1981L396.74 114.916C396.58 115.007 396.399 115.054 396.215 115.053Z" fill="#455A64"/>
<path d="M420.022 115.61C419.447 115.612 418.882 115.464 418.382 115.179C417.749 114.742 417.243 114.145 416.914 113.449C416.586 112.753 416.447 111.983 416.511 111.217V101.683C416.511 101.405 416.622 101.137 416.819 100.94C417.016 100.743 417.283 100.632 417.562 100.632C417.841 100.632 418.108 100.743 418.305 100.94C418.503 101.137 418.613 101.405 418.613 101.683V111.217C418.569 111.607 418.62 112.003 418.763 112.369C418.906 112.736 419.136 113.061 419.433 113.319C419.741 113.44 420.075 113.479 420.403 113.433C420.731 113.387 421.041 113.257 421.304 113.056C422.409 112.285 423.322 111.269 423.971 110.088C424.62 108.907 424.988 107.592 425.046 106.245V96.7117C425.046 96.433 425.157 96.1656 425.354 95.9685C425.551 95.7714 425.818 95.6606 426.097 95.6606C426.376 95.6606 426.643 95.7714 426.84 95.9685C427.037 96.1656 427.148 96.433 427.148 96.7117V106.245C427.094 107.961 426.631 109.639 425.797 111.14C424.963 112.641 423.783 113.921 422.355 114.874C421.656 115.321 420.851 115.575 420.022 115.61Z" fill="#455A64"/>
<path d="M421.83 109.472C421.551 109.472 421.283 109.361 421.086 109.164C420.889 108.967 420.778 108.699 420.778 108.421V99.2132C420.778 98.9344 420.889 98.6671 421.086 98.47C421.283 98.2728 421.551 98.1621 421.83 98.1621C422.108 98.1621 422.376 98.2728 422.573 98.47C422.77 98.6671 422.881 98.9344 422.881 99.2132V108.421C422.881 108.699 422.77 108.967 422.573 109.164C422.376 109.361 422.108 109.472 421.83 109.472Z" fill="#455A64"/>
</svg>
