<svg width="525" height="392" viewBox="0 0 525 392" fill="none" xmlns="http://www.w3.org/2000/svg">
<path d="M525 343.77H0V344.032H525V343.77Z" fill="#EBEBEB"/>
<path d="M472.395 353.766H445.095V354.028H472.395V353.766Z" fill="#EBEBEB"/>
<path d="M373.832 350.92H317.027V351.182H373.832V350.92Z" fill="#EBEBEB"/>
<path d="M453.6 363.521H416.42V363.783H453.6V363.521Z" fill="#EBEBEB"/>
<path d="M79.9573 361.756H55.0828V362.018H79.9573V361.756Z" fill="#EBEBEB"/>
<path d="M116.434 361.756H89.3025V362.018H116.434V361.756Z" fill="#EBEBEB"/>
<path d="M278.397 357.325H221.109V357.588H278.397V357.325Z" fill="#EBEBEB"/>
<path d="M88.7565 315.703H78.687V339.391H88.7565V315.703Z" fill="#E0E0E0"/>
<path d="M104.506 181.304H62.9475C62.3328 181.304 61.8345 181.802 61.8345 182.417V324.387C61.8345 325.002 62.3328 325.5 62.9475 325.5H104.506C105.121 325.5 105.619 325.002 105.619 324.387V182.417C105.619 181.802 105.121 181.304 104.506 181.304Z" fill="#E6E6E6"/>
<path d="M93.4499 339.381H73.9934L72.5024 343.77H94.9409L93.4499 339.381Z" fill="#E6E6E6"/>
<path d="M101.419 320.187L101.419 186.617C101.419 186.002 100.921 185.504 100.306 185.504H67.1474C66.5328 185.504 66.0345 186.002 66.0345 186.617V320.187C66.0345 320.802 66.5328 321.3 67.1474 321.3H100.306C100.921 321.3 101.419 320.802 101.419 320.187Z" fill="#FAFAFA"/>
<path d="M101.409 203.731L66.0242 220.584V207.259L101.409 190.396V203.731Z" fill="#F0F0F0"/>
<path d="M101.409 235.672L66.0242 252.524V239.189L101.409 222.337V235.672Z" fill="#F0F0F0"/>
<path d="M101.409 267.603L66.0242 284.466V271.131L101.409 254.278V267.603Z" fill="#F0F0F0"/>
<path d="M101.409 299.544L66.0242 316.396V303.072L101.409 286.209V299.544Z" fill="#F0F0F0"/>
<path d="M446.313 315.703H436.243V339.391H446.313V315.703Z" fill="#E0E0E0"/>
<path d="M462.063 181.304H420.504C419.889 181.304 419.391 181.802 419.391 182.417V324.387C419.391 325.002 419.889 325.5 420.504 325.5H462.063C462.678 325.5 463.176 325.002 463.176 324.387V182.417C463.176 181.802 462.678 181.304 462.063 181.304Z" fill="#E6E6E6"/>
<path d="M451.006 339.381H431.55L430.059 343.77H452.497L451.006 339.381Z" fill="#E6E6E6"/>
<path d="M458.976 320.187V186.617C458.976 186.002 458.478 185.504 457.863 185.504H424.704C424.089 185.504 423.591 186.002 423.591 186.617V320.187C423.591 320.802 424.089 321.3 424.704 321.3H457.863C458.478 321.3 458.976 320.802 458.976 320.187Z" fill="#FAFAFA"/>
<path d="M458.976 203.731L423.591 220.584V207.259L458.976 190.396V203.731Z" fill="#F0F0F0"/>
<path d="M458.976 235.672L423.591 252.524V239.189L458.976 222.337V235.672Z" fill="#F0F0F0"/>
<path d="M458.976 267.603L423.591 284.466V271.131L458.976 254.278V267.603Z" fill="#F0F0F0"/>
<path d="M458.976 299.544L423.591 316.396V303.072L458.976 286.209V299.544Z" fill="#F0F0F0"/>
<path d="M342.856 213.161H172.294V226.045H342.856V213.161Z" fill="#F0F0F0"/>
<path d="M342.857 226.043H172.295L156.818 343.769H334.814L342.857 226.043Z" fill="#F0F0F0"/>
<path d="M305.382 247.022L306.159 238.748H293.895L293.118 247.022L277.462 322.622H306.757L305.382 247.022Z" fill="#E0E0E0"/>
<path d="M259.098 247.022L259.875 238.748H247.611L246.823 247.022L231.168 322.622H260.463L259.098 247.022Z" fill="#E0E0E0"/>
<path d="M212.814 247.022L213.591 238.748H201.327L200.54 247.022L184.884 322.622H214.179L212.814 247.022Z" fill="#E0E0E0"/>
<path d="M354.438 226.045V213.161H342.856V226.045L334.813 343.771H362.481L354.438 226.045Z" fill="#E0E0E0"/>
<path d="M152.302 31.9202H61.8345C66.1089 27.2059 71.866 24.094 78.1515 23.1002C88.284 21.7352 85.428 25.9667 85.428 25.9667C85.428 25.9667 92.6415 12.6842 115.878 11.8022C139.114 10.9202 122.43 23.7827 122.43 23.7827C122.43 23.7827 132.667 17.9552 148.921 18.2282C165.175 18.5012 152.302 31.9202 152.302 31.9202Z" fill="#F5F5F5"/>
<path d="M305.76 77.3639H227.01C230.732 73.2705 235.741 70.5701 241.206 69.7094C250.026 68.5229 247.506 72.1979 247.506 72.1979C247.506 72.1979 253.806 60.6479 274.008 59.8814C294.21 59.1149 279.71 70.3079 279.71 70.3079C279.71 70.3079 288.614 65.2259 302.81 65.4674C317.006 65.7089 305.76 77.3639 305.76 77.3639Z" fill="#FAFAFA"/>
<path d="M422.646 42.7555H296.394C299.662 38.8755 303.783 35.8044 308.435 33.7824C313.088 31.7605 318.145 30.8426 323.211 31.1005C323.211 31.1005 336.021 12.7675 359.961 10.993C383.901 9.21848 372.089 26.1025 372.089 26.1025C372.089 26.1025 381.087 14.773 407.001 15.214C432.915 15.655 416.252 29.3995 416.252 29.3995C416.252 29.3995 429.65 27.184 433.367 32.5495C437.084 37.915 422.646 42.7555 422.646 42.7555Z" fill="#F5F5F5"/>
<path d="M262.5 391.187C374.937 391.187 466.085 385.865 466.085 379.301C466.085 372.737 374.937 367.415 262.5 367.415C150.064 367.415 58.9158 372.737 58.9158 379.301C58.9158 385.865 150.064 391.187 262.5 391.187Z" fill="#F5F5F5"/>
<path d="M263.192 253.377C262.658 253.38 262.145 253.172 261.765 252.798C261.385 252.423 261.168 251.913 261.162 251.38L259.68 108.308C259.677 107.774 259.885 107.261 260.26 106.881C260.634 106.501 261.144 106.284 261.677 106.278C262.211 106.275 262.724 106.484 263.105 106.858C263.485 107.232 263.702 107.742 263.707 108.276L265.184 251.339C265.193 251.606 265.148 251.871 265.052 252.119C264.956 252.368 264.81 252.594 264.624 252.785C264.438 252.975 264.215 253.126 263.969 253.228C263.723 253.33 263.458 253.38 263.192 253.377Z" fill="#FF3E3E"/>
<path d="M325.7 122.544L325.779 127.882L326.785 127.867L326.706 122.529L325.7 122.544Z" fill="#FF3E3E"/>
<path d="M327.872 118.477L326.864 118.496C326.843 116.801 326.152 115.184 324.943 113.997C323.733 112.81 322.102 112.151 320.407 112.163L293.623 112.442L293.61 111.442L320.409 111.115C321.382 111.108 322.348 111.292 323.25 111.658C324.153 112.024 324.974 112.564 325.667 113.248C326.361 113.932 326.912 114.746 327.29 115.643C327.669 116.541 327.866 117.504 327.872 118.477Z" fill="#FF3E3E"/>
<path d="M321.014 169.305L203.711 170.532C203.201 170.537 202.696 170.442 202.223 170.252C201.75 170.062 201.319 169.78 200.955 169.424C200.591 169.067 200.301 168.642 200.101 168.173C199.902 167.704 199.796 167.201 199.791 166.691L199.306 119.778C199.3 119.268 199.394 118.761 199.584 118.288C199.773 117.814 200.055 117.383 200.412 117.019C200.769 116.655 201.194 116.364 201.664 116.165C202.133 115.966 202.637 115.861 203.147 115.858L320.451 114.63C320.959 114.625 321.464 114.719 321.937 114.909C322.409 115.098 322.839 115.379 323.203 115.735C323.566 116.091 323.856 116.516 324.055 116.984C324.255 117.452 324.36 117.955 324.364 118.464L324.855 165.385C324.862 165.895 324.768 166.401 324.578 166.875C324.388 167.348 324.107 167.78 323.75 168.144C323.393 168.508 322.967 168.798 322.498 168.997C322.028 169.197 321.524 169.301 321.014 169.305Z" fill="white"/>
<path d="M323.566 168.964C322.821 169.522 321.918 169.83 320.987 169.842L203.678 171.062C203.102 171.07 202.53 170.964 201.995 170.751C201.46 170.537 200.973 170.219 200.561 169.816C200.15 169.413 199.822 168.933 199.597 168.402C199.372 167.872 199.255 167.302 199.251 166.726L198.761 119.805C198.741 118.642 199.183 117.519 199.99 116.682C200.797 115.845 201.904 115.362 203.066 115.339L320.375 114.12C321.535 114.111 322.651 114.561 323.482 115.37C323.895 115.772 324.224 116.253 324.449 116.784C324.675 117.314 324.792 117.885 324.794 118.461L325.285 165.383C325.293 166.542 324.844 167.659 324.034 168.489C323.888 168.657 323.732 168.816 323.566 168.964ZM320.992 168.816C321.869 168.805 322.708 168.45 323.327 167.829C323.946 167.207 324.298 166.367 324.306 165.49L323.823 118.562C323.813 117.67 323.45 116.817 322.812 116.192C322.174 115.568 321.314 115.222 320.421 115.231L203.112 116.45C202.67 116.454 202.233 116.544 201.825 116.717C201.418 116.89 201.049 117.142 200.739 117.458C200.43 117.774 200.186 118.149 200.021 118.559C199.857 118.97 199.775 119.409 199.781 119.852L200.264 166.779C200.272 167.671 200.634 168.524 201.27 169.151C201.585 169.462 201.959 169.708 202.371 169.872C202.782 170.037 203.222 170.118 203.665 170.11L320.992 168.816Z" fill="#FF3E3E"/>
<path d="M208.647 146.985L214.137 146.555C214.2 147.289 214.457 147.993 214.881 148.595C215.19 148.972 215.584 149.269 216.031 149.463C216.479 149.656 216.966 149.739 217.452 149.706C218.137 149.742 218.812 149.528 219.352 149.104C219.556 148.941 219.72 148.735 219.834 148.501C219.948 148.266 220.007 148.009 220.008 147.749C220 147.498 219.938 147.253 219.825 147.029C219.712 146.805 219.552 146.609 219.356 146.453C218.453 145.889 217.439 145.529 216.383 145.398C214.416 145.093 212.547 144.334 210.924 143.18C210.383 142.741 209.949 142.185 209.653 141.553C209.358 140.922 209.21 140.231 209.22 139.534C209.217 138.563 209.502 137.612 210.038 136.802C210.68 135.904 211.582 135.222 212.622 134.849C214.085 134.278 215.65 134.013 217.22 134.068C219.136 133.922 221.051 134.365 222.707 135.34C223.371 135.838 223.92 136.473 224.315 137.203C224.71 137.933 224.943 138.74 224.997 139.568L219.554 139.962C219.534 139.614 219.443 139.273 219.287 138.962C219.131 138.65 218.912 138.373 218.645 138.15C218.377 137.926 218.067 137.759 217.732 137.66C217.398 137.561 217.047 137.531 216.7 137.573C216.156 137.538 215.616 137.696 215.175 138.018C215.025 138.142 214.906 138.299 214.826 138.477C214.746 138.654 214.707 138.847 214.712 139.042C214.715 139.2 214.755 139.355 214.829 139.494C214.903 139.633 215.01 139.752 215.14 139.841C215.73 140.208 216.394 140.437 217.085 140.511C218.962 140.825 220.796 141.362 222.547 142.11C223.525 142.553 224.358 143.264 224.949 144.161C225.46 144.992 225.73 145.948 225.731 146.923C225.75 148.107 225.414 149.27 224.764 150.26C224.096 151.293 223.137 152.104 222.007 152.59C220.58 153.182 219.044 153.467 217.5 153.426C214.315 153.466 212.139 152.847 210.866 151.66C209.58 150.425 208.791 148.762 208.647 146.985Z" fill="#263238"/>
<path d="M227.82 143.605C227.676 142.303 227.823 140.985 228.25 139.746C228.677 138.508 229.373 137.379 230.288 136.442C231.204 135.505 232.316 134.782 233.544 134.326C234.772 133.87 236.086 133.692 237.391 133.805C240.513 133.775 242.925 134.587 244.627 136.24C245.514 137.171 246.202 138.273 246.648 139.479C247.095 140.685 247.29 141.97 247.223 143.254C247.317 145.112 246.96 146.965 246.181 148.655C245.476 150.043 244.376 151.191 243.019 151.954C241.416 152.813 239.618 153.243 237.799 153.203C235.994 153.282 234.194 152.949 232.537 152.23C231.11 151.543 229.923 150.444 229.131 149.073C228.208 147.402 227.755 145.513 227.82 143.605ZM233.605 143.57C233.492 145.021 233.885 146.466 234.719 147.659C235.089 148.052 235.536 148.364 236.033 148.577C236.529 148.79 237.063 148.899 237.603 148.896C238.143 148.894 238.676 148.78 239.17 148.563C239.665 148.346 240.109 148.029 240.476 147.633C241.154 146.815 241.474 145.356 241.426 143.225C241.529 141.848 241.135 140.479 240.314 139.368C239.95 138.965 239.5 138.649 238.997 138.443C238.495 138.236 237.953 138.145 237.41 138.175C236.887 138.165 236.368 138.272 235.891 138.488C235.414 138.703 234.991 139.022 234.652 139.421C233.818 140.641 233.439 142.116 233.582 143.587L233.605 143.57Z" fill="#263238"/>
<path d="M250.501 152.75L250.303 134.008L259.95 133.916C261.332 133.848 262.715 133.988 264.055 134.331C264.991 134.615 265.803 135.206 266.362 136.009C266.906 136.856 267.216 137.832 267.262 138.837C267.308 139.843 267.088 140.843 266.624 141.736C266.19 142.498 265.566 143.136 264.814 143.588C264.182 143.945 263.501 144.203 262.792 144.356C263.327 144.503 263.838 144.73 264.307 145.028C264.656 145.315 264.97 145.64 265.245 145.998C265.561 146.351 265.846 146.73 266.096 147.132L268.934 152.55L262.398 152.619L259.241 146.924C258.985 146.381 258.621 145.896 258.171 145.499C257.751 145.216 257.253 145.069 256.746 145.079L256.233 145.083L256.313 152.683L250.501 152.75ZM256.189 141.533L258.632 141.507C259.152 141.467 259.666 141.378 260.168 141.24C260.54 141.159 260.87 140.946 261.097 140.641C261.363 140.268 261.486 139.812 261.442 139.356C261.398 138.9 261.191 138.475 260.859 138.16C260.207 137.776 259.447 137.616 258.695 137.704L256.152 137.73L256.189 141.533Z" fill="#263238"/>
<path d="M270.856 152.535L270.663 133.801L280.305 133.701C281.689 133.638 283.074 133.78 284.416 134.124C285.35 134.411 286.162 135.001 286.723 135.802C287.326 136.694 287.637 137.75 287.615 138.826C287.653 139.766 287.433 140.698 286.979 141.521C286.541 142.281 285.918 142.918 285.169 143.373C284.537 143.731 283.852 143.987 283.141 144.133C283.675 144.285 284.185 144.511 284.656 144.805C285.006 145.095 285.323 145.423 285.6 145.784C285.915 146.137 286.2 146.516 286.451 146.917L289.289 152.335L282.727 152.387L279.576 146.7C279.318 146.154 278.952 145.666 278.5 145.267C278.078 144.986 277.582 144.84 277.076 144.846L276.568 144.859L276.648 152.458L270.856 152.535ZM276.587 141.31L279.031 141.284C279.549 141.245 280.061 141.153 280.561 141.01C280.935 140.936 281.269 140.725 281.496 140.418C281.728 140.103 281.852 139.72 281.847 139.329C281.86 139.067 281.813 138.806 281.711 138.566C281.609 138.325 281.454 138.11 281.258 137.937C280.604 137.549 279.842 137.387 279.087 137.474L276.545 137.499L276.587 141.31Z" fill="#263238"/>
<path d="M287.932 133.625L294.356 133.553L298.195 139.844L301.913 133.48L308.315 133.413L301.144 144.377L301.225 152.223L295.421 152.285L295.341 144.439L287.932 133.625Z" fill="#263238"/>
<path d="M309.843 133.398L315.401 133.337L315.447 137.612L314.49 146.176L311.054 146.208L309.915 137.642L309.843 133.398ZM310.182 147.539L315.366 147.488L315.448 152.057L310.264 152.108L310.182 147.539Z" fill="#263238"/>
<path d="M207.23 201.089C207.23 201.089 205.042 203.619 206.452 208.25C200.218 201.591 203.187 198.313 203.187 198.313C203.717 197.131 204.662 196.184 205.844 195.653C205.406 196.579 205.306 197.628 205.559 198.621C205.812 199.613 206.403 200.486 207.23 201.089Z" fill="white"/>
<path d="M132.532 379.303H124.016V209.875C124.016 208.761 124.459 207.693 125.246 206.905C126.034 206.117 127.102 205.675 128.216 205.675C129.337 205.672 130.413 206.112 131.211 206.898C132.01 207.685 132.465 208.754 132.479 209.875L132.532 379.303Z" fill="#FF3E3E"/>
<path opacity="0.7" d="M132.532 379.303H124.016V209.875C124.016 208.761 124.459 207.693 125.246 206.905C126.034 206.117 127.102 205.675 128.216 205.675C129.337 205.672 130.413 206.112 131.211 206.898C132.01 207.685 132.465 208.754 132.479 209.875L132.532 379.303Z" fill="white"/>
<path d="M394.664 205.622C395.223 205.622 395.776 205.732 396.292 205.946C396.808 206.159 397.276 206.473 397.671 206.868C398.066 207.262 398.379 207.731 398.593 208.247C398.807 208.763 398.917 209.316 398.917 209.875V379.303H390.401V209.875C390.401 209.315 390.512 208.761 390.726 208.245C390.94 207.728 391.255 207.259 391.651 206.864C392.047 206.469 392.517 206.156 393.034 205.943C393.551 205.73 394.105 205.621 394.664 205.622Z" fill="#FF3E3E"/>
<path opacity="0.7" d="M394.664 205.622C395.223 205.622 395.776 205.732 396.292 205.946C396.808 206.159 397.276 206.473 397.671 206.868C398.066 207.262 398.379 207.731 398.593 208.247C398.807 208.763 398.917 209.316 398.917 209.875V379.303H390.401V209.875C390.401 209.315 390.512 208.761 390.726 208.245C390.94 207.728 391.255 207.259 391.651 206.864C392.047 206.469 392.517 206.156 393.034 205.943C393.551 205.73 394.105 205.621 394.664 205.622Z" fill="white"/>
<path d="M407.432 221.436H115.501V263.016H407.432V221.436Z" fill="#FF3E3E"/>
<path opacity="0.3" d="M407.432 221.436H115.501V263.016H407.432V221.436Z" fill="white"/>
<path d="M407.432 263.015H409.501V221.435H407.432V263.015Z" fill="#FF3E3E"/>
<g opacity="0.6">
<path d="M162.164 263.016H132.533L147.422 221.436H177.063L162.164 263.016Z" fill="white"/>
<path d="M215.504 263.016H185.862L200.762 221.436H230.393L215.504 263.016Z" fill="white"/>
<path d="M268.833 263.016H239.202L254.102 221.436H283.733L268.833 263.016Z" fill="white"/>
<path d="M322.173 263.016H292.542L307.431 221.436H337.073L322.173 263.016Z" fill="white"/>
<path d="M375.513 263.016H345.872L360.771 221.436H390.402L375.513 263.016Z" fill="white"/>
</g>
<path opacity="0.5" d="M132.532 263.015H124.016V267.089H132.532V263.015Z" fill="#FF3E3E"/>
<path opacity="0.5" d="M398.917 263.015H390.401V267.089H398.917V263.015Z" fill="#FF3E3E"/>
<path d="M308.764 207.69C307.338 205.44 305.752 203.296 304.018 201.274L304.816 200.592C306.581 202.653 308.195 204.84 309.646 207.133L308.764 207.69Z" fill="#FF3E3E"/>
<path d="M299.135 196.236C293.991 191.53 288.012 187.83 281.506 185.326L281.884 184.35C288.513 186.899 294.606 190.667 299.849 195.459L299.135 196.236Z" fill="#FF3E3E"/>
<path d="M261.461 290.924C290.92 290.924 314.801 267.043 314.801 237.584C314.801 208.125 290.92 184.244 261.461 184.244C232.002 184.244 208.121 208.125 208.121 237.584C208.121 267.043 232.002 290.924 261.461 290.924Z" fill="#FF3E3E"/>
<path d="M261.451 187.32C271.392 187.318 281.111 190.264 289.379 195.786C297.646 201.308 304.09 209.157 307.896 218.341C311.702 227.526 312.698 237.632 310.76 247.383C308.822 257.134 304.036 266.091 297.007 273.122C289.978 280.152 281.021 284.94 271.271 286.881C261.521 288.821 251.414 287.826 242.229 284.022C233.044 280.218 225.193 273.776 219.669 265.51C214.146 257.244 211.198 247.525 211.198 237.584C211.212 224.259 216.51 211.484 225.931 202.061C235.352 192.638 248.126 187.337 261.451 187.32ZM261.451 186.092C251.275 186.092 241.328 189.109 232.867 194.763C224.406 200.416 217.811 208.451 213.917 217.853C210.023 227.254 209.004 237.599 210.989 247.579C212.975 257.56 217.875 266.727 225.07 273.922C232.266 281.118 241.433 286.018 251.413 288.003C261.394 289.988 271.739 288.97 281.14 285.075C290.541 281.181 298.576 274.587 304.23 266.126C309.883 257.665 312.901 247.718 312.901 237.542C312.901 223.896 307.48 210.81 297.831 201.161C288.183 191.512 275.096 186.092 261.451 186.092Z" fill="white"/>
<path d="M292.699 227.913H230.234C229.109 227.913 228.197 228.825 228.197 229.95V245.207C228.197 246.332 229.109 247.244 230.234 247.244H292.699C293.824 247.244 294.736 246.332 294.736 245.207V229.95C294.736 228.825 293.824 227.913 292.699 227.913Z" fill="white"/>
</svg>
