<svg width="499" height="518" viewBox="0 0 499 518" fill="none" xmlns="http://www.w3.org/2000/svg">
<path d="M22.0879 34.4986L37.7439 34.1645L45.6912 34.0332C48.3523 34.0332 51.0133 34.0332 53.6863 34.0332H54.2114V34.5702L54.283 47.9232V48.5198H53.6863L37.9229 48.3766C32.6485 48.3766 27.3861 48.2453 22.1237 48.1737H21.7896V47.8516C21.7896 45.5843 21.8969 43.3409 21.9447 41.1094L22.0879 34.4986ZM22.0879 34.4986L22.2549 41.2526C22.2549 43.4722 22.3862 45.6678 22.4101 47.8516L22.0879 47.5294C27.3503 47.5294 32.6127 47.3384 37.8871 47.3384L53.6863 47.2549L53.0897 47.8516L53.1493 34.4986L53.6863 35.0356C51.073 35.0356 48.4836 35.0356 45.8702 34.964L38.0184 34.8327L22.0879 34.4986Z" fill="#EBEBEB"/>
<path d="M39.7128 17.6607L55.3688 17.3266L63.3161 17.1953C65.9772 17.1953 68.6502 17.1953 71.3112 17.1953H71.8363V17.7323L71.9079 31.0853V31.6819H71.3351L55.512 31.5148C50.2376 31.5148 44.9752 31.3836 39.7128 31.312H39.3787V30.9898C39.3787 28.7225 39.4861 26.4791 39.5338 24.2477L39.7128 17.6607ZM39.7128 17.6607L39.8798 24.4147C39.8798 26.6343 40.0111 28.8299 40.035 31.0137L39.7128 30.6915C44.9752 30.6915 50.2376 30.5005 55.512 30.5005L71.3351 30.417L70.7384 31.0137V17.6607L71.2754 18.1977C68.674 18.1977 66.0727 18.1977 63.4593 18.1261L55.6075 17.9948L39.7128 17.6607Z" fill="#EBEBEB"/>
<path d="M70.3566 189.222L86.0126 188.887L93.9599 188.756C96.621 188.697 99.294 188.756 101.955 188.685H102.48V189.222L102.552 202.575V203.171H101.955L86.1558 203.088C80.8814 203.088 75.619 202.956 70.3566 202.897H70.0225V202.575C70.0225 200.307 70.1299 198.052 70.1776 195.82L70.3566 189.222ZM70.3566 189.222L70.5236 195.964C70.5236 198.183 70.6549 200.391 70.6788 202.575L70.3566 202.24C75.619 202.24 80.8814 202.049 86.1558 202.049L101.955 201.978L101.358 202.575V189.222L101.895 189.747C99.282 189.747 96.6926 189.747 94.0793 189.747L86.2274 189.615L70.3566 189.222Z" fill="#EBEBEB"/>
<path d="M88.0414 172.384L103.697 172.05L111.645 171.918C114.306 171.918 116.979 171.918 119.64 171.847H120.165V172.384L120.236 185.737V186.333H119.64L103.841 186.25C98.5663 186.25 93.3038 186.118 88.0414 186.059H87.7073V185.737C87.7073 183.469 87.8147 181.214 87.8743 178.983L88.0414 172.384ZM88.0414 172.384L88.2085 179.126C88.2085 181.345 88.3397 183.553 88.3636 185.737L88.0414 185.45C93.3038 185.391 98.5663 185.271 103.841 185.259L119.64 185.188L119.043 185.784V172.431L119.58 172.956C116.979 172.956 114.377 172.956 111.764 172.897L103.912 172.766L88.0414 172.384Z" fill="#EBEBEB"/>
<path d="M4.51076 17.6607L20.1787 17.3266L28.0664 17.1953C30.7155 17.1953 33.3885 17.1953 36.0495 17.1953H36.5865V17.7323L36.6462 31.0853V31.6819H36.0376L20.2503 31.5148C14.9879 31.5148 9.72546 31.3836 4.4511 31.312H4.12891V30.9898C4.12891 28.7225 4.2363 26.4791 4.28404 24.2477L4.51076 17.6607ZM4.51076 17.6607L4.68976 24.4147C4.68976 26.6343 4.82102 28.8299 4.84488 31.0137L4.51076 30.6915C9.78512 30.6915 15.0476 30.5005 20.31 30.5005L36.1092 30.417L35.5126 31.0137L35.5364 17.6607L36.0615 18.1977C33.4601 18.1977 30.8706 18.1977 28.2573 18.1261L20.4054 17.9948L4.51076 17.6607Z" fill="#EBEBEB"/>
<path d="M473.798 307.656L458.142 307.99L450.194 308.133C447.533 308.133 444.872 308.133 442.199 308.193H441.674V307.656L441.603 294.315V293.706H442.199L457.998 293.778C463.273 293.778 468.535 293.909 473.798 293.969H474.132V294.291C474.132 296.546 474.024 298.801 473.977 301.033L473.798 307.656ZM473.798 307.656L473.631 300.914C473.631 298.694 473.499 296.498 473.475 294.315L473.798 294.637C468.535 294.696 463.273 294.828 457.998 294.828L442.199 294.899L442.796 294.315L442.736 307.656L442.199 307.131C444.813 307.131 447.402 307.131 450.015 307.131L457.867 307.274L473.798 307.656Z" fill="#EBEBEB"/>
<path d="M491.434 324.493L475.766 324.827L467.819 324.97C465.158 324.97 462.497 324.97 459.836 325.03H459.299V324.493L459.239 311.14V310.543H459.848L475.647 310.615C480.909 310.615 486.172 310.746 491.446 310.805H491.768V311.116C491.768 313.383 491.661 315.638 491.613 317.87L491.434 324.493ZM491.434 324.493L491.255 317.75C491.255 315.531 491.124 313.335 491.1 311.14L491.434 311.474C486.16 311.533 480.898 311.665 475.635 311.665L459.836 311.736L460.433 311.14L460.349 324.493L459.824 323.968C462.425 323.968 465.015 323.968 467.628 324.027L475.48 324.17L491.434 324.493Z" fill="#EBEBEB"/>
<path d="M53.949 324.493L38.293 324.827L30.3456 324.97C27.6846 324.97 25.0116 324.97 22.3506 325.03H21.8255V324.493L21.7539 311.14V310.543H22.4102L38.2094 310.615C43.4838 310.615 48.7462 310.746 54.0087 310.805H54.3428V311.116C54.3428 313.383 54.2354 315.638 54.1757 317.87L53.949 324.493ZM53.949 324.493L53.7819 317.75C53.7819 315.531 53.6507 313.335 53.6268 311.14L53.949 311.474C48.6866 311.533 43.4241 311.665 38.1498 311.665L22.4102 311.736L23.0069 311.14L22.9472 324.493L22.4102 323.968C25.0116 323.968 27.613 323.968 30.2263 324.027L38.0782 324.17L53.949 324.493Z" fill="#EBEBEB"/>
<path d="M442.068 17.6607L457.736 17.3266L465.683 17.1953C468.332 17.1953 471.005 17.1953 473.666 17.1953H474.203V17.7323L474.263 31.0853V31.6819H473.666L457.867 31.5148C452.605 31.5148 447.33 31.3836 442.068 31.312H441.746V30.9898C441.746 28.7225 441.841 26.4791 441.901 24.2477L442.068 17.6607ZM442.068 17.6607L442.235 24.4147C442.295 26.6343 442.378 28.8299 442.39 31.0137L442.068 30.6915C447.33 30.6915 452.605 30.5005 457.867 30.5005L473.666 30.417L473.07 31.0137L473.141 17.6607L473.666 18.1977C471.065 18.1977 468.463 18.1977 465.862 18.1261L457.962 17.9948L442.068 17.6607Z" fill="#EBEBEB"/>
<path d="M487.401 223.373H328.526V1.50391H487.401V223.373ZM333.239 218.66H482.688V6.21742H333.239V218.66Z" fill="#EBEBEB"/>
<path d="M410.314 7.44629H405.601V221.01H410.314V7.44629Z" fill="#EBEBEB"/>
<path d="M491.685 11.0381H324.254V17.6012H491.685V11.0381Z" fill="#EBEBEB"/>
<path d="M491.685 18.4248H324.254V24.9879H491.685V18.4248Z" fill="#EBEBEB"/>
<path d="M491.685 25.7998H324.254V32.3629H491.685V25.7998Z" fill="#EBEBEB"/>
<path d="M491.685 33.1855H324.254V39.7487H491.685V33.1855Z" fill="#EBEBEB"/>
<path d="M491.685 40.5723H324.254V47.1354H491.685V40.5723Z" fill="#EBEBEB"/>
<path d="M491.685 47.958H324.254V54.5211H491.685V47.958Z" fill="#EBEBEB"/>
<path d="M491.685 55.3447H324.254V61.9078H491.685V55.3447Z" fill="#EBEBEB"/>
<path d="M491.685 62.7314H324.254V69.2946H491.685V62.7314Z" fill="#EBEBEB"/>
<path d="M491.685 70.1182H324.254V76.6813H491.685V70.1182Z" fill="#EBEBEB"/>
<path d="M477.676 9.70117H476.494V137.443H477.676V9.70117Z" fill="#A6A6A6"/>
<path d="M479.179 142.933H474.991L476.041 136.919H478.129L479.179 142.933Z" fill="#A6A6A6"/>
<path d="M481.924 9.70117H480.742V169.662H481.924V9.70117Z" fill="#A6A6A6"/>
<path d="M483.427 174.089H479.239L480.289 168.075H482.377L483.427 174.089Z" fill="#A6A6A6"/>
<path d="M499 0.584961H316.939V14.3198H499V0.584961Z" fill="#DBDBDB"/>
<path d="M133.434 79.3428H0V87.2662H133.434V79.3428Z" fill="#EBEBEB"/>
<path d="M18.0546 87.2656H10.1311V113.47H18.0546V87.2656Z" fill="#EBEBEB"/>
<path d="M18.0546 87.2656H10.1311V95.3681H18.0546V87.2656Z" fill="#DBDBDB"/>
<path d="M123.303 87.2656H115.38V113.47H123.303V87.2656Z" fill="#EBEBEB"/>
<path d="M123.303 87.2656H115.38V95.3681H123.303V87.2656Z" fill="#DBDBDB"/>
<path d="M30.083 79.342L30.083 28.8418H17.3625L17.3625 79.342H30.083Z" fill="#C7C7C7"/>
<path d="M30.083 31.706V26.1572H17.3625V31.706H30.083Z" fill="#DBDBDB"/>
<path d="M30.083 40.871V38.8066H17.3625V40.871H30.083Z" fill="#DBDBDB"/>
<path d="M31.67 72.7197V67.1709H17.3744V72.7197H31.67Z" fill="#DBDBDB"/>
<path d="M38.9611 79.3424L38.9611 20.4414H30.071L30.071 79.3424H38.9611Z" fill="#DBDBDB"/>
<path d="M37.1473 48.6382V25.9775H31.8133V48.6382H37.1473Z" fill="#EBEBEB"/>
<path d="M102.173 73.0376L60.2842 31.6289L54.0343 37.9512L95.9228 79.3599L102.173 73.0376Z" fill="#C7C7C7"/>
<path d="M91.1314 64.5608L75.0159 48.6299L71.2659 52.4233L87.3815 68.3542L91.1314 64.5608Z" fill="#DBDBDB"/>
<path d="M54.0562 79.3538V34.6172H38.961V79.3538H54.0562Z" fill="#A6A6A6"/>
<path d="M54.0562 74.605V70.4404H38.961V74.605H54.0562Z" fill="#C7C7C7"/>
<path d="M54.0562 67.7069V66.084H38.961V67.7069H54.0562Z" fill="#C7C7C7"/>
<path d="M17.3624 79.3661L17.3624 37.3145H6.93304L6.93304 79.3661H17.3624Z" fill="#A6A6A6"/>
<path d="M17.3624 74.8915V70.9775H6.93303V74.8915H17.3624Z" fill="#C7C7C7"/>
<path d="M17.3624 49.8798V45.9658H6.93304V49.8798H17.3624Z" fill="#C7C7C7"/>
<path d="M17.3624 54.0917V52.5762H6.93303V54.0917H17.3624Z" fill="#C7C7C7"/>
<path d="M488.177 486.863C488.177 503.796 380.613 517.531 247.943 517.531C115.272 517.531 7.70862 503.796 7.70862 486.863C7.70862 469.93 115.272 456.195 247.943 456.195C380.613 456.195 488.177 469.93 488.177 486.863Z" fill="#EBEBEB"/>
<path d="M427.104 343.728C427.104 343.728 407.307 339.241 396.46 329.241C385.613 319.241 379.539 301.33 379.539 301.33C387.065 302.773 394.484 304.723 401.747 307.165C404.471 309.977 406.738 313.198 408.465 316.712C408.635 314.452 408.635 312.182 408.465 309.922C411.001 311.015 413.374 312.452 415.517 314.194C424.55 322.022 427.104 343.728 427.104 343.728Z" fill="#698AFF"/>
<path d="M391.902 310.028C389.205 308.167 386.46 306.365 383.776 304.479C383.608 304.372 383.776 304.109 383.931 304.217C389.038 307.26 394.062 310.517 398.93 313.93C400.625 315.123 402.296 316.353 403.942 317.617L403.596 317.033C403 316.042 402.403 315.064 401.747 314.085C400.507 312.101 399.101 310.225 397.546 308.477C397.487 308.417 397.546 308.322 397.642 308.381C399.181 310.159 400.72 311.961 402.128 313.811C402.797 314.706 403.417 315.637 404.014 316.579C404.324 317.08 404.622 317.57 404.897 318.083L405.195 318.584C407.761 320.601 410.255 322.701 412.629 324.908C414.101 326.277 415.521 327.693 416.889 329.157C416.114 326.77 415.446 324.383 414.563 321.997C414.563 321.913 414.67 321.877 414.694 321.997C415.553 324.467 416.496 326.961 417.164 329.503C418.679 331.137 420.135 332.832 421.496 334.61L421.424 334.288C421.197 333.345 420.971 332.414 420.72 331.495C420.243 329.706 419.706 327.916 419.109 326.161C417.968 322.517 416.163 319.115 413.787 316.126C413.727 316.054 413.787 315.959 413.882 316.03C417.591 320.658 420.188 326.075 421.472 331.865C421.687 332.701 421.877 333.548 422.068 334.395C422.176 334.849 422.295 335.302 422.367 335.767C422.963 336.579 423.56 337.39 424.121 338.226C427.482 343.39 430.282 348.899 432.474 354.657C434.962 361.115 437.097 367.704 438.87 374.394C438.863 374.415 438.849 374.434 438.831 374.447C438.813 374.46 438.791 374.466 438.769 374.466C438.746 374.466 438.724 374.46 438.706 374.447C438.688 374.434 438.674 374.415 438.667 374.394C434.789 362.807 430.839 351.054 424.204 340.708C422.806 338.52 421.296 336.405 419.682 334.371C416.402 334.161 413.164 333.519 410.052 332.462C406.657 331.312 403.419 329.744 400.41 327.796C398.696 326.638 397.043 325.391 395.458 324.061C395.447 324.057 395.438 324.051 395.43 324.043C395.422 324.035 395.416 324.025 395.413 324.014C395.41 324.003 395.41 323.991 395.412 323.98C395.414 323.969 395.419 323.959 395.426 323.95C395.432 323.941 395.441 323.934 395.452 323.929C395.462 323.924 395.473 323.922 395.485 323.922C395.496 323.923 395.507 323.926 395.517 323.931C395.527 323.937 395.535 323.944 395.541 323.954C398.308 326.187 401.362 328.037 404.622 329.455C407.822 330.923 411.171 332.044 414.61 332.796C416.066 333.118 417.558 333.357 419.037 333.56C417.207 331.304 415.259 329.145 413.202 327.092C412.534 326.424 411.842 325.78 411.15 325.135C408.843 323.522 406.394 322.12 403.835 320.947C400.589 319.372 397.391 317.713 394.181 316.078C392.367 315.159 390.601 314.217 388.752 313.322C388.668 313.322 388.752 313.178 388.823 313.214C392.069 314.789 395.374 316.257 398.656 317.761C401.937 319.264 404.885 320.601 407.844 322.259L408.226 322.486C405.541 320.099 402.761 317.928 399.873 315.78C397.272 313.847 394.611 311.937 391.902 310.028Z" fill="#263238"/>
<path d="M393.035 320.29C394.646 320.994 396.281 321.615 397.88 322.367C399.479 323.118 401.066 324.025 402.653 324.944C402.66 324.948 402.667 324.953 402.672 324.96C402.677 324.966 402.68 324.973 402.683 324.981C402.685 324.989 402.685 324.997 402.685 325.005C402.684 325.013 402.681 325.021 402.677 325.028C402.673 325.035 402.668 325.041 402.662 325.046C402.655 325.051 402.648 325.055 402.64 325.057C402.633 325.059 402.624 325.06 402.616 325.059C402.608 325.058 402.601 325.055 402.594 325.052C401.018 324.3 399.419 323.596 397.82 322.808C396.221 322.021 394.634 321.138 392.988 320.422C392.916 320.29 392.952 320.207 393.035 320.29Z" fill="#263238"/>
<path d="M491.375 243.92C487.7 248.634 485.611 254.39 485.409 260.364C485.349 262.142 485.623 264.624 485.838 267.523C480.895 270.391 476.516 274.136 472.915 278.573C476.867 276.277 481.406 275.19 485.969 275.447C485.867 277.452 485.616 279.446 485.218 281.413C482.352 281.422 479.516 281.985 476.865 283.072C479.463 283.045 482.039 283.557 484.43 284.575C480.85 295.804 470.421 307.344 441.471 312.236C438.405 298.464 440.219 284.055 446.603 271.473C455.302 254.373 491.375 243.92 491.375 243.92Z" fill="#698AFF"/>
<path d="M431.471 360.254C431.973 355.481 432.597 350.708 433.345 345.935C434.811 336.392 436.758 326.929 439.18 317.582C440.319 313.195 441.717 308.88 443.369 304.659C443.285 303.89 443.25 303.117 443.261 302.344C443.261 301.413 443.261 300.482 443.261 299.551C443.261 297.702 443.369 295.852 443.524 294.003C443.817 290.336 444.412 286.7 445.302 283.132C445.839 281.067 446.495 279.039 447.056 276.998C447.061 276.985 447.071 276.974 447.082 276.967C447.094 276.959 447.108 276.955 447.122 276.955C447.135 276.955 447.149 276.959 447.161 276.967C447.172 276.974 447.182 276.985 447.187 276.998C446.221 280.56 445.503 284.184 445.039 287.845C444.526 291.449 444.204 295.078 444.073 298.716C444.073 299.707 444.013 300.709 444.013 301.699C444.013 302.129 444.013 302.558 444.013 302.976C445.439 299.517 447.068 296.146 448.894 292.881C451.837 287.704 455.151 282.747 458.81 278.048C458.817 277.499 458.897 276.953 459.048 276.425C459.18 275.781 459.323 275.137 459.466 274.48C459.764 273.168 460.099 271.843 460.457 270.542C461.173 267.917 462.127 265.375 462.951 262.786C462.956 262.773 462.965 262.762 462.977 262.755C462.989 262.747 463.002 262.743 463.016 262.743C463.03 262.743 463.044 262.747 463.055 262.755C463.067 262.762 463.076 262.773 463.082 262.786C462.318 265.352 461.805 268.013 461.22 270.626C460.922 271.915 460.648 273.203 460.361 274.504C460.218 275.149 460.075 275.793 459.943 276.437C459.943 276.437 459.943 276.545 459.943 276.592C461.113 275.113 462.306 273.657 463.523 272.225C469.048 265.733 475.11 259.743 481.22 253.812C481.972 253.073 482.735 252.369 483.499 251.641C483.499 251.641 483.654 251.641 483.595 251.748C477.759 257.834 472.02 263.979 466.578 270.423C465.277 271.962 464.013 273.514 462.76 275.077L464.74 273.764C466.423 272.666 468.129 271.593 469.884 270.614C471.638 269.636 473.463 268.657 475.218 267.762C476.972 266.867 479.06 266.091 480.862 265.053C480.934 265.053 481.005 265.137 480.922 265.173C479.091 266.018 477.324 266.995 475.635 268.096C473.869 269.146 472.115 270.196 470.385 271.294C468.655 272.392 466.972 273.442 465.277 274.54C463.869 275.459 462.485 276.461 461.017 277.296C457.66 281.612 454.56 286.123 451.734 290.805C449.988 293.756 448.395 296.795 446.96 299.909L447.999 299.456L450.66 298.263C452.354 297.511 454.072 296.771 455.779 296.031C459.025 294.611 462.33 293.322 465.516 291.771C467.312 290.924 469.05 289.959 470.719 288.883C470.791 288.883 470.85 288.883 470.779 289.003C464.812 293.096 458.177 295.972 451.614 298.883L448.762 300.148C447.975 300.494 447.187 300.876 446.376 301.186C444.427 305.54 442.788 310.026 441.471 314.611C438.884 323.834 436.781 333.186 435.171 342.629C433.512 352.092 432.39 361.615 431.519 371.185C431.412 372.378 431.304 373.571 431.161 374.765C431.145 374.853 431.099 374.933 431.03 374.99C430.962 375.048 430.875 375.079 430.785 375.079C430.696 375.079 430.609 375.048 430.54 374.99C430.472 374.933 430.425 374.853 430.409 374.765C430.517 369.944 430.958 365.087 431.471 360.254Z" fill="#263238"/>
<path d="M449.096 280.256C449.621 277.309 450.409 274.433 451.197 271.545C451.197 271.461 451.352 271.545 451.328 271.545C450.6 274.373 450.075 277.261 449.538 280.125C449.001 282.989 448.524 285.996 448.106 288.943C448.106 288.943 448.022 289.003 448.022 288.943C448.215 286.029 448.574 283.129 449.096 280.256Z" fill="#263238"/>
<path d="M461.543 288.238C463.559 286.903 465.664 285.707 467.843 284.658C468.893 284.121 469.967 283.596 471.029 283.083C472.091 282.57 473.285 282.105 474.382 281.556C474.454 281.556 474.514 281.627 474.382 281.663C473.32 282.2 472.318 282.856 471.28 283.405L468.058 285.171C465.946 286.305 463.858 287.558 461.638 288.489C461.613 288.482 461.59 288.469 461.571 288.451C461.551 288.434 461.537 288.412 461.527 288.387C461.518 288.363 461.515 288.337 461.517 288.311C461.52 288.285 461.529 288.26 461.543 288.238Z" fill="#263238"/>
<path opacity="0.1" d="M426.746 309.432C426.746 309.432 408.429 305.052 400.016 292.725C391.985 280.995 389.384 260.984 389.181 259.218C389.503 260.841 393.286 278.31 405.756 286.473C415.314 292.749 424.55 297.88 426.746 309.432Z" fill="#263238"/>
<path d="M426.746 309.432C426.746 309.432 408.429 305.052 400.016 292.726C391.985 280.996 389.384 260.984 389.181 259.218C389.175 259.178 389.175 259.138 389.181 259.099C389.181 259.099 397.964 271.592 407.2 274.779C416.436 277.965 429.395 289.015 426.746 309.432Z" fill="#698AFF"/>
<path d="M392.403 266.02C394.047 269.387 395.942 272.626 398.071 275.71C400.205 278.635 402.74 281.246 405.601 283.466C408.095 285.447 410.72 287.237 413.238 289.17V289.075C412.761 288.382 412.259 287.69 411.734 287.034C410.684 285.686 409.539 284.421 408.381 283.168C406.114 280.698 403.787 278.275 401.746 275.602C400.609 274.115 399.625 272.516 398.811 270.829C398.811 270.746 398.894 270.71 398.93 270.829C401.902 277.022 407.844 280.984 412.057 286.211C412.656 286.954 413.217 287.726 413.739 288.526C414.16 289.106 414.516 289.73 414.801 290.387C417.121 292.248 419.22 294.37 421.054 296.712C420.895 295.502 420.648 294.305 420.314 293.132C419.891 291.499 419.236 289.936 418.369 288.49C418.369 288.418 418.441 288.335 418.488 288.418C419.372 289.868 420.089 291.413 420.624 293.024C421.012 294.308 421.236 295.635 421.293 296.974C422.2 298.206 423.029 299.493 423.775 300.829C423.691 300.435 423.62 300.041 423.548 299.635C423.178 297.809 422.784 295.984 422.355 294.182C421.49 290.514 420.001 287.022 417.951 283.86C417.892 283.788 417.951 283.717 418.059 283.788C420.16 286.903 421.804 290.302 422.939 293.884C423.524 295.685 423.989 297.463 424.407 299.361C424.61 300.256 424.789 301.163 424.956 302.07C425.051 302.535 425.147 303.024 425.23 303.501C427.044 307.493 428.459 311.654 429.455 315.924C431.25 323.553 432.554 331.289 433.357 339.086C434.303 347.248 434.725 355.463 434.622 363.679C434.622 364.717 434.538 365.744 434.49 366.77C434.49 367.032 434.073 367.08 434.061 366.77C433.882 362.701 433.774 358.632 433.536 354.575C433.297 350.517 432.939 346.46 432.51 342.403C431.673 334.443 430.399 326.535 428.691 318.716C427.199 312.022 425.278 305.279 421.615 299.408C419.795 296.487 417.569 293.839 415.004 291.545C412.438 289.242 409.634 287.225 406.925 285.089C404.181 283 401.69 280.597 399.503 277.929C397.267 274.97 395.318 271.806 393.68 268.478L392.367 265.996C392.248 266.02 392.331 265.948 392.403 266.02Z" fill="#263238"/>
<path d="M395.565 268.717C396.77 271.189 398.134 273.581 399.646 275.877C399.646 275.877 399.646 275.984 399.563 275.877C397.989 273.61 396.608 271.215 395.434 268.717C395.398 268.682 395.53 268.634 395.565 268.717Z" fill="#263238"/>
<path d="M493.976 301.33C493.976 301.33 494.275 327.368 478.702 334.874C463.13 342.379 454.836 336.139 444.216 338.656C444.622 338.036 452.175 327.177 464.18 324.194C476.542 321.103 490.182 312.177 493.976 301.33Z" fill="#698AFF"/>
<path opacity="0.1" d="M493.976 301.33C493.976 301.33 494.275 327.368 478.702 334.874C463.13 342.379 454.836 336.139 444.216 338.656C449.806 335.989 455.783 334.221 461.925 333.418C471.745 332.224 490.492 325.84 493.976 301.33Z" fill="black"/>
<path d="M443.19 339.121C445.039 337.427 447.125 336.012 449.383 334.921C449.705 334.766 450.051 334.634 450.397 334.491C450.555 334.281 450.727 334.082 450.91 333.894C451.388 333.405 451.865 332.94 452.378 332.498C453.357 331.658 454.407 330.903 455.516 330.243C458.094 328.727 460.922 327.665 463.559 326.257C463.631 326.257 463.702 326.329 463.619 326.377C462.318 327.045 461.053 327.797 459.788 328.537C458.523 329.276 457.294 329.945 456.089 330.72C455.01 331.415 453.982 332.185 453.01 333.023C452.736 333.262 452.473 333.525 452.211 333.787C453.933 333.209 455.691 332.743 457.473 332.391C460.325 331.818 463.201 331.412 466.053 330.804C467.448 330.505 468.826 330.135 470.182 329.694C471.471 328.644 472.759 327.618 473.989 326.484C475.467 325.127 476.813 323.633 478.01 322.021C478.01 321.962 478.177 322.021 478.117 322.093C476.231 324.648 474.096 327.01 471.745 329.145C472.413 328.883 473.07 328.608 473.726 328.31C479.076 325.915 483.666 322.097 486.995 317.272C486.995 317.2 487.162 317.272 487.115 317.343C484.283 321.483 480.627 324.993 476.375 327.654C474.248 328.983 471.973 330.06 469.597 330.863C466.838 331.718 464.023 332.384 461.173 332.856C458.38 333.309 455.625 333.963 452.927 334.813C450.443 335.655 448.107 336.883 446.006 338.453C442.042 341.533 438.848 345.491 436.674 350.016C433.884 356.04 432.145 362.498 431.531 369.109C431.531 369.383 431.078 369.383 431.09 369.109C431.817 358.106 434.753 346.71 443.19 339.121Z" fill="#263238"/>
<path d="M461.256 330.625C462.068 329.41 463.166 328.414 464.454 327.725C465.931 326.954 467.228 325.881 468.261 324.575C468.261 324.503 468.428 324.575 468.368 324.646C467.434 325.836 466.299 326.854 465.015 327.653C463.602 328.406 462.356 329.437 461.352 330.684C461.304 330.744 461.208 330.684 461.256 330.625Z" fill="#263238"/>
<path d="M452.987 358.333L452.283 372.653L450.111 416.387H417.45L415.279 372.653L414.574 358.333H452.987Z" fill="#37474F"/>
<path d="M452.987 358.333L452.283 372.653H415.279L414.574 358.333H452.987Z" fill="#263238"/>
<path d="M455.278 352.355H412.283V366.019H455.278V352.355Z" fill="#37474F"/>
<path d="M0 416.388L61.9797 416.101L123.971 415.994L247.943 415.791L371.914 415.994L433.906 416.101L495.885 416.388L433.906 416.686L371.914 416.793L247.943 416.984L123.971 416.781L61.9797 416.686L0 416.388Z" fill="#263238"/>
<path d="M397.367 448.285V32.3865C397.367 23.8914 390.48 17.0049 381.985 17.0049L113.912 17.0049C105.417 17.0049 98.5302 23.8914 98.5302 32.3865V448.285C98.5302 456.78 105.417 463.667 113.912 463.667H381.985C390.48 463.667 397.367 456.78 397.367 448.285Z" fill="#263238"/>
<path d="M384.754 48.2695H111.477V432.677H384.754V48.2695Z" fill="white"/>
<path d="M280.448 35.9784V34.3197C280.448 33.4959 279.78 32.8281 278.956 32.8281L216.905 32.8281C216.081 32.8281 215.413 33.4959 215.413 34.3197V35.9784C215.413 36.8022 216.081 37.47 216.905 37.47H278.956C279.78 37.47 280.448 36.8022 280.448 35.9784Z" fill="#37474F"/>
<path d="M247.943 456.198C252.589 456.198 256.355 452.431 256.355 447.785C256.355 443.139 252.589 439.372 247.943 439.372C243.297 439.372 239.53 443.139 239.53 447.785C239.53 452.431 243.297 456.198 247.943 456.198Z" fill="#37474F"/>
<path d="M342.654 101.061H153.589V103.722H342.654V101.061Z" fill="#EBEBEB"/>
<path d="M342.654 109.318H153.589V111.979H342.654V109.318Z" fill="#EBEBEB"/>
<path d="M342.654 360.781H153.589V363.442H342.654V360.781Z" fill="#EBEBEB"/>
<path d="M342.654 369.039H153.589V371.7H342.654V369.039Z" fill="#EBEBEB"/>
<path d="M199.554 397.69C204.379 397.69 208.289 393.779 208.289 388.955C208.289 384.13 204.379 380.22 199.554 380.22C194.73 380.22 190.82 384.13 190.82 388.955C190.82 393.779 194.73 397.69 199.554 397.69Z" fill="#698AFF"/>
<path d="M199.698 394.051L194.495 388.788L196.249 387.058L199.28 390.137L205.604 380.232L207.669 381.557L199.698 394.051Z" fill="white"/>
<path d="M221.428 388.883C221.433 388.256 221.546 387.635 221.762 387.046C221.983 386.445 222.319 385.894 222.752 385.423C223.213 384.902 223.781 384.488 224.418 384.21C225.055 383.932 225.745 383.796 226.44 383.812C227.277 383.797 228.102 384.012 228.826 384.432C229.474 384.809 230.001 385.364 230.342 386.031L228.85 387.117C228.731 386.848 228.565 386.601 228.361 386.389C228.181 386.207 227.976 386.05 227.752 385.924C227.533 385.812 227.3 385.728 227.06 385.673C226.828 385.626 226.592 385.602 226.356 385.602C225.908 385.59 225.464 385.693 225.067 385.9C224.708 386.088 224.394 386.353 224.148 386.676C223.903 387.002 223.717 387.37 223.599 387.762C223.329 388.575 223.329 389.454 223.599 390.268C223.732 390.668 223.939 391.041 224.208 391.365C224.471 391.677 224.791 391.936 225.151 392.129C225.52 392.318 225.929 392.416 226.344 392.415C226.586 392.412 226.826 392.379 227.06 392.32C227.307 392.268 227.544 392.18 227.764 392.058C227.991 391.926 228.2 391.766 228.385 391.58C228.58 391.37 228.738 391.128 228.85 390.864L230.461 391.795C230.301 392.176 230.066 392.521 229.769 392.809C229.469 393.102 229.127 393.347 228.755 393.537C227.995 393.945 227.146 394.158 226.284 394.158C225.594 394.163 224.912 394.008 224.292 393.704C223.703 393.41 223.176 393.005 222.74 392.511C222.306 392.018 221.963 391.453 221.726 390.84C221.499 390.214 221.398 389.549 221.428 388.883Z" fill="#698AFF"/>
<path d="M236.105 394.11C235.404 394.121 234.71 393.97 234.076 393.669C232.891 393.095 231.972 392.087 231.511 390.853C231.274 390.248 231.153 389.605 231.153 388.955C231.152 388.288 231.282 387.628 231.535 387.01C231.777 386.403 232.129 385.845 232.573 385.364C233.021 384.869 233.56 384.464 234.16 384.17C234.786 383.889 235.466 383.747 236.153 383.753C236.848 383.74 237.536 383.895 238.157 384.206C238.753 384.496 239.284 384.901 239.721 385.399C240.179 385.901 240.539 386.484 240.783 387.118C241.017 387.719 241.139 388.358 241.141 389.003C241.141 389.67 241.011 390.331 240.759 390.948C240.525 391.554 240.176 392.109 239.733 392.583C239.286 393.056 238.751 393.437 238.157 393.705C237.513 393.995 236.811 394.134 236.105 394.11ZM233.158 388.955C233.159 389.389 233.227 389.82 233.36 390.232C233.486 390.625 233.68 390.993 233.933 391.318C234.192 391.63 234.508 391.889 234.864 392.082C235.253 392.273 235.683 392.367 236.117 392.356C236.559 392.365 236.997 392.267 237.394 392.07C237.753 391.876 238.069 391.612 238.325 391.294C238.576 390.963 238.769 390.592 238.897 390.196C239.015 389.809 239.08 389.408 239.088 389.003C239.09 388.568 239.017 388.137 238.873 387.726C238.746 387.332 238.548 386.964 238.289 386.64C238.041 386.321 237.723 386.063 237.358 385.889C236.987 385.705 236.578 385.611 236.165 385.614C235.726 385.606 235.292 385.704 234.9 385.901C234.532 386.082 234.213 386.347 233.969 386.676C233.716 387.002 233.522 387.369 233.396 387.762C233.257 388.146 233.176 388.548 233.158 388.955Z" fill="#698AFF"/>
<path d="M244.566 387.524V394.039H242.597V383.872H244.124L249.422 390.543V383.884H251.403V394.039H249.792L244.566 387.524Z" fill="#698AFF"/>
<path d="M253.515 394.039V383.872H260.353V385.602H255.496V388.228H259.53V389.827H255.496V394.039H253.515Z" fill="#698AFF"/>
<path d="M261.737 394.039V383.872H263.718V394.039H261.737Z" fill="#698AFF"/>
<path d="M265.842 394.039V383.872H270.341C270.79 383.868 271.235 383.966 271.641 384.159C272.026 384.355 272.374 384.618 272.668 384.934C272.948 385.257 273.174 385.624 273.336 386.02C273.491 386.399 273.572 386.804 273.575 387.213C273.585 387.848 273.416 388.473 273.085 389.015C272.78 389.546 272.311 389.965 271.749 390.209L274.064 394.039H271.809L269.732 390.626H267.787V394.039H265.842ZM267.823 388.896H270.305C270.481 388.901 270.655 388.855 270.806 388.765C270.965 388.68 271.103 388.562 271.212 388.419C271.336 388.263 271.429 388.084 271.486 387.894C271.559 387.687 271.595 387.469 271.594 387.249C271.592 387.025 271.552 386.803 271.474 386.593C271.404 386.4 271.299 386.222 271.164 386.068C271.04 385.926 270.89 385.809 270.723 385.722C270.563 385.642 270.388 385.601 270.21 385.602H267.823V388.896Z" fill="#698AFF"/>
<path d="M283.646 394.039V387.309L281.033 392.321H279.959L277.334 387.309V394.039H275.388V383.872H277.512L280.52 389.66L283.551 383.872H285.663V394.039H283.646Z" fill="#698AFF"/>
<path d="M294.803 392.309V394.039H287.739V383.872H294.672V385.602H289.708V387.989H293.992V389.6H289.708V392.249L294.803 392.309Z" fill="#698AFF"/>
<path d="M296.354 394.039V383.872H300.042C300.79 383.853 301.534 383.991 302.225 384.278C302.824 384.519 303.362 384.89 303.801 385.363C304.223 385.829 304.545 386.378 304.743 386.974C305.18 388.296 305.18 389.722 304.743 391.044C304.525 391.641 304.181 392.185 303.734 392.638C303.287 393.091 302.748 393.442 302.154 393.669C301.492 393.925 300.787 394.05 300.078 394.039H296.354ZM303.061 388.943C303.07 388.486 303.001 388.03 302.858 387.595C302.741 387.203 302.541 386.841 302.273 386.533C302.015 386.234 301.693 385.997 301.331 385.841C300.92 385.678 300.483 385.597 300.042 385.602H298.323V392.308H300.042C300.489 392.313 300.932 392.223 301.342 392.046C301.705 391.885 302.028 391.644 302.285 391.342C302.545 391.025 302.74 390.66 302.858 390.268C303 389.841 303.069 389.393 303.061 388.943Z" fill="#698AFF"/>
<path d="M322.691 342.25H173.195V215.785L247.931 168.315L322.691 215.785V342.25Z" fill="#698AFF"/>
<path opacity="0.2" d="M322.691 342.25H173.195V215.785L247.931 168.315L322.691 215.785V342.25Z" fill="black"/>
<path d="M314.254 162.301H181.62V332.572H314.254V162.301Z" fill="#EBEBEB"/>
<path d="M239.864 264.172L209.495 233.433L219.698 223.35L237.442 241.309L274.291 183.529L286.391 191.238L239.864 264.172Z" fill="#698AFF"/>
<path d="M322.691 247.503V342.251H173.195V247.503C179.615 251.083 185.927 254.949 192.288 258.672C198.648 262.395 204.948 266.262 211.237 270.128C218.242 274.388 225.246 278.731 232.227 283.099L232.454 282.968C232.382 282.968 232.334 283.087 232.275 283.123C237.493 286.345 242.716 289.586 247.943 292.848C253.146 289.567 258.384 286.261 263.611 283.027C263.551 283.027 263.503 282.92 263.432 282.872C263.502 282.921 263.578 282.961 263.658 282.991C270.635 278.64 277.632 274.312 284.649 270.008C290.941 266.166 297.25 262.355 303.574 258.577C309.994 254.889 316.271 251.083 322.691 247.503Z" fill="#698AFF"/>
<g opacity="0.2">
<path d="M322.691 247.503C316.653 251.739 310.507 255.856 304.422 259.985C298.336 264.114 292.143 268.147 285.961 272.192C279.518 276.416 273.062 280.601 266.594 284.746L266.01 285.151L248.79 296.13L247.931 296.643L247.096 296.13L229.9 285.128L229.292 284.746C222.808 280.593 216.345 276.401 209.901 272.168C203.743 268.147 197.598 264.066 191.464 259.985C185.331 255.904 179.233 251.679 173.195 247.503C179.615 251.083 185.928 254.949 192.288 258.672C198.648 262.395 204.949 266.262 211.237 270.128C218.242 274.388 225.247 278.731 232.227 283.099C237.478 286.337 242.716 289.586 247.943 292.848C253.146 289.567 258.384 286.261 263.611 283.027C270.588 278.676 277.584 274.348 284.601 270.044C290.894 266.202 297.202 262.391 303.527 258.612C309.994 254.889 316.271 251.083 322.691 247.503Z" fill="black"/>
<path d="M232.43 282.908C232.359 282.908 232.311 283.028 232.251 283.063L229.865 285.068C226.118 288.23 222.275 291.261 218.373 294.209C213.6 297.789 208.743 301.368 203.851 304.781C198.958 308.194 193.994 311.535 188.935 314.769C183.875 318.003 178.792 321.165 173.517 324.065C178.052 320.091 182.765 316.38 187.527 312.776C192.288 309.173 197.18 305.617 202.049 302.192C206.918 298.767 211.929 295.414 216.977 292.18C220.999 289.603 225.092 287.061 229.256 284.686C230.223 284.125 231.189 283.588 232.18 283.039L232.43 282.908Z" fill="black"/>
<path d="M322.333 324.065C317.059 321.165 311.939 318.003 306.916 314.769C301.892 311.535 296.868 308.17 291.976 304.781C287.083 301.392 282.214 297.836 277.453 294.209C273.575 291.261 269.733 288.242 266.009 285.092L263.623 283.063C263.563 283.063 263.515 282.956 263.444 282.908C263.514 282.957 263.59 282.997 263.671 283.028C264.661 283.588 265.628 284.125 266.594 284.686C270.759 287.073 274.828 289.603 278.873 292.18C283.921 295.414 288.861 298.779 293.777 302.192C298.694 305.605 303.539 309.137 308.3 312.776C313.061 316.416 317.798 320.091 322.333 324.065Z" fill="black"/>
</g>
<path d="M183.982 154.187C183.187 147.628 183.187 140.996 183.982 134.438C184.778 140.996 184.778 147.628 183.982 154.187Z" fill="#263238"/>
<path d="M175.581 157.325C172.966 155.307 170.49 153.114 168.171 150.762C165.816 148.449 163.623 145.977 161.608 143.363C166.809 147.44 171.501 152.127 175.581 157.325Z" fill="#263238"/>
<path d="M171.87 165.476C168.594 165.901 165.293 166.1 161.99 166.073C158.691 166.109 155.393 165.914 152.121 165.488C155.393 165.057 158.69 164.858 161.99 164.891C165.293 164.86 168.594 165.055 171.87 165.476Z" fill="#263238"/>
<path d="M175.009 173.863C170.928 179.061 166.241 183.752 161.047 187.837C165.119 182.628 169.807 177.932 175.009 173.852V173.863Z" fill="#263238"/>
<path d="M311.009 154.187C310.594 150.91 310.399 147.609 310.424 144.306C310.4 141.006 310.604 137.709 311.032 134.438C311.828 140.996 311.828 147.628 311.032 154.187H311.009Z" fill="#263238"/>
<path d="M319.409 157.325C323.49 152.127 328.182 147.44 333.383 143.363C331.368 145.977 329.175 148.449 326.82 150.762C324.501 153.114 322.025 155.307 319.409 157.325Z" fill="#263238"/>
<path d="M323.12 165.476C326.397 165.055 329.698 164.86 333.001 164.891C336.3 164.858 339.598 165.057 342.869 165.488C339.598 165.914 336.3 166.11 333.001 166.073C329.698 166.1 326.396 165.901 323.12 165.476Z" fill="#263238"/>
<path d="M319.982 173.865C325.184 177.942 329.872 182.634 333.944 187.839C331.332 185.816 328.861 183.62 326.545 181.264C324.19 178.951 321.997 176.479 319.982 173.865Z" fill="#263238"/>
<path d="M151.632 499.428C149.054 500.263 75.631 499.308 72.8745 497.495C71.8124 496.826 71.3232 486.122 71.1084 473.163V472.758C71.1084 470.096 71.0249 467.34 71.0129 464.56C71.0129 464.178 71.0129 463.796 71.0129 463.366L74.5928 425.276L123.709 425.766L118.852 463.498V464.989L118.554 472.793V473.605C118.554 473.605 146.501 486.54 149.341 488.855C152.181 491.17 154.197 498.616 151.632 499.428Z" fill="#F7A9A0"/>
<path d="M151.632 499.428C149.054 500.263 75.631 499.308 72.8745 497.494C71.8124 496.826 71.3232 486.122 71.1084 473.163V472.757C71.1084 470.096 71.0249 467.34 71.0129 464.56C71.0129 464.178 71.0129 463.796 71.0129 463.366L118.84 463.497V464.989L118.542 472.793V473.605C118.542 473.605 146.489 486.54 149.329 488.855C152.169 491.17 154.197 498.616 151.632 499.428Z" fill="#EBEBEB"/>
<path d="M151.847 499.607C149.245 500.442 75.1536 499.738 72.3493 497.924C71.2754 497.244 70.7503 486.445 70.4878 473.378L118.22 473.7C118.22 473.7 146.465 486.659 149.341 488.974C152.217 491.289 154.436 498.759 151.847 499.607Z" fill="#698AFF"/>
<path d="M150.809 496.635C138.398 496.206 88.268 495.669 75.9652 496.194C75.8697 496.194 75.8697 496.266 75.9652 496.278C88.268 496.958 138.386 497.089 150.809 496.838C151.071 496.826 151.071 496.635 150.809 496.635Z" fill="#263238"/>
<path d="M144.627 486.266C143.247 486.219 141.873 486.458 140.59 486.968C139.306 487.477 138.142 488.245 137.169 489.225C135.412 490.985 134.396 493.35 134.329 495.836C134.329 495.908 134.472 495.908 134.484 495.836C134.928 493.38 136.157 491.135 137.986 489.437C139.815 487.739 142.145 486.681 144.627 486.421C144.64 486.426 144.654 486.428 144.667 486.426C144.681 486.425 144.694 486.42 144.705 486.412C144.716 486.405 144.726 486.394 144.732 486.382C144.738 486.37 144.742 486.357 144.742 486.343C144.742 486.33 144.738 486.316 144.732 486.304C144.726 486.292 144.716 486.282 144.705 486.274C144.694 486.266 144.681 486.262 144.667 486.26C144.654 486.259 144.64 486.261 144.627 486.266Z" fill="#263238"/>
<path d="M123.064 474.989C118.088 474.87 112.325 476.564 109.186 480.598C109.067 480.765 109.294 480.932 109.437 480.848C113.808 478.616 118.404 476.856 123.148 475.598C123.22 475.577 123.282 475.532 123.323 475.469C123.363 475.407 123.38 475.331 123.37 475.257C123.36 475.183 123.323 475.115 123.267 475.066C123.211 475.017 123.139 474.99 123.064 474.989Z" fill="#263238"/>
<path d="M126.883 476.517C121.919 476.397 116.143 478.104 113.005 482.137C112.886 482.292 113.112 482.459 113.256 482.388C117.625 480.148 122.221 478.384 126.966 477.125C127.038 477.105 127.1 477.059 127.141 476.996C127.182 476.934 127.199 476.859 127.189 476.785C127.179 476.711 127.142 476.643 127.086 476.594C127.03 476.544 126.958 476.517 126.883 476.517Z" fill="#263238"/>
<path d="M130.713 478.044C125.737 477.936 119.974 479.631 116.835 483.664C116.716 483.819 116.931 483.998 117.086 483.915C121.453 481.684 126.046 479.924 130.785 478.664C130.852 478.639 130.909 478.592 130.946 478.531C130.983 478.469 130.999 478.397 130.991 478.326C130.982 478.255 130.951 478.189 130.901 478.137C130.85 478.086 130.784 478.053 130.713 478.044Z" fill="#263238"/>
<path d="M134.58 479.583C129.616 479.464 123.84 481.17 120.702 485.203C120.582 485.359 120.809 485.526 120.952 485.454C125.295 483.22 129.863 481.456 134.58 480.192C134.65 480.178 134.713 480.14 134.759 480.084C134.805 480.029 134.829 479.959 134.829 479.887C134.829 479.816 134.805 479.746 134.759 479.69C134.713 479.635 134.65 479.597 134.58 479.583Z" fill="#263238"/>
<path d="M79.2465 484.428C73.6619 484.428 73.6022 493.055 79.2465 493.091C84.8908 493.127 84.8311 484.464 79.2465 484.428Z" fill="white"/>
<path d="M128.613 461.766C126.119 459.654 122.921 461.671 121.358 463.819C118.712 467.558 117.099 471.929 116.68 476.491C116.68 476.587 116.752 476.635 116.835 476.635C116.853 476.728 116.893 476.816 116.952 476.891C117.01 476.966 117.086 477.025 117.172 477.065C117.259 477.105 117.353 477.123 117.448 477.119C117.543 477.115 117.636 477.088 117.718 477.04C121.298 474.654 125.391 472.482 128.112 469.057C129.687 467.064 130.928 463.771 128.613 461.766ZM122.408 472.279C120.69 473.472 118.912 474.666 117.241 475.942C118.07 473.449 119.026 471 120.105 468.604C120.648 467.451 121.266 466.335 121.955 465.262C123.052 463.628 127.921 459.523 128.41 464.94C128.613 467.924 124.413 470.811 122.36 472.279H122.408Z" fill="#263238"/>
<path d="M104.294 478.211C108.626 478.915 113.101 477.733 117.361 477.113C117.453 477.089 117.538 477.044 117.61 476.981C117.681 476.919 117.738 476.841 117.775 476.753C117.812 476.666 117.828 476.571 117.822 476.476C117.817 476.381 117.789 476.289 117.742 476.206C117.757 476.194 117.769 476.178 117.778 476.161C117.786 476.143 117.79 476.124 117.79 476.104C117.79 476.085 117.786 476.066 117.778 476.048C117.769 476.031 117.757 476.015 117.742 476.003C114.381 472.915 110.265 470.766 105.809 469.774C103.196 469.237 99.485 469.905 99.0674 473.151C98.6497 476.218 101.776 477.805 104.294 478.211ZM101.323 475.418C98.0053 471.122 104.401 470.836 106.311 471.301C107.53 471.617 108.726 472.015 109.891 472.495C112.349 473.473 114.664 474.774 116.967 475.979C114.855 476.158 112.778 476.516 110.666 476.767C108.196 477.029 103.16 477.721 101.323 475.418Z" fill="#263238"/>
<path opacity="0.1" d="M109.878 499.726C91.4659 499.404 73.6978 498.795 72.3493 497.924C71.2754 497.244 70.7503 486.445 70.4878 473.378H77.2896C84.8073 479.535 100.714 492.339 109.878 499.726Z" fill="black"/>
<path d="M121.692 473.032H68.8174C68.8174 473.032 79.4616 349.538 79.0439 347.378C78.5189 344.61 75.3924 332.116 71.2398 315.78C69.9391 310.673 68.531 305.195 67.0752 299.515C63.1254 284.146 58.7221 267.356 54.999 252.738C49.3189 230.853 44.8799 213.849 44.8799 213.849H89.6881C89.6881 213.849 94.9147 230.4 101.502 251.951C112.241 286.95 126.561 335.135 127.969 346.853C130.26 365.743 121.692 473.032 121.692 473.032Z" fill="#37474F"/>
<path d="M119.353 463.987C111.275 463.82 113.59 463.76 105.511 463.676C101.561 463.676 75.5952 463.414 71.896 464.022C71.8739 464.022 71.8526 464.031 71.837 464.047C71.8213 464.063 71.8125 464.084 71.8125 464.106C71.8125 464.128 71.8213 464.149 71.837 464.165C71.8526 464.181 71.8739 464.19 71.896 464.19C75.5952 464.798 101.561 464.571 105.511 464.536C113.59 464.464 111.275 464.392 119.353 464.225C119.385 464.225 119.415 464.213 119.438 464.19C119.46 464.168 119.473 464.138 119.473 464.106C119.473 464.074 119.46 464.044 119.438 464.022C119.415 463.999 119.385 463.987 119.353 463.987Z" fill="#263238"/>
<path d="M88.9959 339.8C87.2656 332.163 84.6642 324.669 82.4089 317.128C77.8266 301.893 73.2165 286.659 68.5786 271.425C66.2636 263.811 63.9407 256.198 61.6098 248.585C60.4324 244.743 59.2391 240.904 58.0299 237.07C56.8366 233.311 55.512 229.6 54.45 225.805C54.0204 224.266 53.7817 225.113 54.3426 227.07C55.4524 231.008 56.5502 234.958 57.7077 238.895C59.9749 246.692 62.2661 254.48 64.5811 262.26C69.1633 277.749 73.7853 293.226 78.4471 308.691C80.778 316.456 83.1129 324.212 85.4518 331.96C86.6344 335.653 87.5869 339.415 88.3038 343.225C88.9339 347.206 89.0941 351.247 88.7811 355.265C88.268 363.356 87.3252 371.435 86.5854 379.501C85.8456 387.568 85.0819 395.682 84.342 403.761C82.8544 419.863 81.3747 435.96 79.903 452.054C79.724 454.094 79.545 456.135 79.3898 458.187C79.3898 458.867 80.3683 458.808 80.4399 458.187C82.1821 442.281 83.5186 426.302 85.0103 410.372C86.5019 394.441 87.9935 378.642 89.4732 362.783C89.8431 358.798 90.2727 354.812 90.2727 350.85C90.2629 347.131 89.8346 343.424 88.9959 339.8Z" fill="#263238"/>
<path d="M84.6047 213.824C81.4902 237.893 75.5595 283.035 71.2398 315.755C61.1325 276.138 44.8799 213.824 44.8799 213.824H84.6047Z" fill="#263238"/>
<path d="M95.6067 500.144C93.0411 500.979 19.6177 500.299 16.8492 498.497C15.7872 497.829 15.2622 487.125 14.9996 474.166V473.76C14.94 471.099 14.8922 468.343 14.8803 465.562C14.8803 465.18 14.8803 464.799 14.8803 464.369C14.7132 445.682 16.0736 426.291 16.0736 426.291L64.0679 426.601L62.7195 464.333V465.825L62.457 473.641V474.44C62.457 474.44 90.3204 487.352 93.1604 489.619C96.0005 491.886 98.1842 499.285 95.6067 500.144Z" fill="#F7A9A0"/>
<path d="M95.6066 500.143C93.041 500.978 19.6176 500.298 16.8492 498.496C15.7872 497.828 15.2621 487.124 14.9996 474.165V473.759C14.9399 471.098 14.8922 468.342 14.8802 465.561C14.8802 465.18 14.8802 464.798 14.8802 464.368H62.7075V465.86L62.445 473.676V474.475C62.445 474.475 90.3203 487.351 93.1604 489.618C96.0004 491.886 98.1841 499.284 95.6066 500.143Z" fill="#EBEBEB"/>
<path d="M95.9049 499.988C93.3036 500.824 19.2119 500.12 16.4077 498.306C15.3337 497.626 14.8087 486.826 14.5461 473.76L62.2779 474.082C62.2779 474.082 90.5232 487.041 93.3871 489.356C96.251 491.671 98.4944 499.141 95.9049 499.988Z" fill="#698AFF"/>
<path d="M94.8668 497.017C82.4446 496.588 32.3262 496.051 20.0234 496.576C19.9279 496.576 19.9279 496.647 20.0234 496.647C32.3143 497.34 82.4446 497.471 94.8668 497.22C95.1293 497.208 95.1293 497.017 94.8668 497.017Z" fill="#263238"/>
<path d="M88.6856 486.647C87.3056 486.6 85.9309 486.839 84.6475 487.348C83.3641 487.858 82.1998 488.626 81.2275 489.607C79.4664 491.364 78.4493 493.731 78.3875 496.218C78.3875 496.289 78.5306 496.289 78.5426 496.218C78.9863 493.762 80.2149 491.516 82.044 489.819C83.873 488.121 86.2036 487.062 88.6856 486.803C88.7011 486.796 88.7144 486.786 88.7237 486.772C88.7331 486.758 88.7381 486.742 88.7381 486.725C88.7381 486.708 88.7331 486.692 88.7237 486.678C88.7144 486.664 88.7011 486.654 88.6856 486.647Z" fill="#263238"/>
<path d="M67.1229 475.418C62.1468 475.31 56.3832 477.005 53.2449 481.038C53.1255 481.193 53.3403 481.372 53.4955 481.289C57.8662 479.056 62.4625 477.296 67.2064 476.038C67.2737 476.012 67.3301 475.964 67.3668 475.902C67.4034 475.84 67.4181 475.767 67.4085 475.695C67.3988 475.624 67.3654 475.558 67.3137 475.507C67.2619 475.457 67.1947 475.425 67.1229 475.418Z" fill="#263238"/>
<path d="M70.9413 476.897C65.9772 476.778 60.2017 478.473 57.0633 482.518C56.944 482.673 57.1707 482.84 57.3139 482.768C61.6829 480.529 66.2795 478.765 71.0248 477.506C71.0967 477.486 71.1587 477.44 71.1995 477.377C71.2403 477.315 71.2572 477.24 71.247 477.166C71.2369 477.092 71.2004 477.024 71.1442 476.974C71.088 476.925 71.016 476.898 70.9413 476.897Z" fill="#263238"/>
<path d="M74.7718 478.426C69.7958 478.306 64.0322 480.013 60.8938 484.046C60.7625 484.201 60.9893 484.368 61.1444 484.297C65.5087 482.059 70.1016 480.299 74.8434 479.046C74.9104 479.021 74.967 478.974 75.0043 478.913C75.0415 478.851 75.0573 478.779 75.0491 478.708C75.0408 478.637 75.0091 478.571 74.9589 478.519C74.9087 478.468 74.8429 478.435 74.7718 478.426Z" fill="#263238"/>
<path d="M78.5902 479.965C73.6142 479.846 67.8506 481.54 64.7122 485.585C64.5929 485.74 64.8196 485.907 64.9628 485.836C69.3309 483.594 73.9278 481.83 78.6738 480.573C78.7456 480.553 78.8076 480.507 78.8484 480.445C78.8892 480.382 78.9061 480.307 78.8959 480.233C78.8858 480.159 78.8493 480.091 78.7931 480.042C78.737 479.993 78.6649 479.965 78.5902 479.965Z" fill="#263238"/>
<path d="M23.305 484.809C17.7204 484.809 17.6607 493.436 23.305 493.472C28.9493 493.508 28.8896 484.844 23.305 484.809Z" fill="white"/>
<path d="M72.6238 462.149C70.1178 460.037 66.9317 462.054 65.3566 464.201C62.7291 467.942 61.1323 472.309 60.7266 476.862C60.7244 476.883 60.727 476.903 60.7342 476.923C60.7414 476.942 60.753 476.959 60.7681 476.973C60.7831 476.987 60.8013 476.997 60.821 477.003C60.8408 477.008 60.8616 477.009 60.8817 477.005C60.8979 477.1 60.9367 477.189 60.9946 477.265C61.0526 477.342 61.1281 477.403 61.2147 477.444C61.3013 477.485 61.3965 477.504 61.4923 477.501C61.588 477.497 61.6815 477.47 61.7648 477.423C65.3447 475.037 69.4377 472.865 72.1584 469.428C73.7216 467.423 74.9865 464.142 72.6238 462.149ZM66.4186 472.662C64.7003 473.855 62.9223 475.048 61.2517 476.313C62.1003 473.819 63.0761 471.369 64.1752 468.975C64.7187 467.826 65.3365 466.714 66.0248 465.645C67.1227 464.01 71.9913 459.906 72.4806 465.311C72.6715 468.259 68.4711 471.194 66.4186 472.662Z" fill="#263238"/>
<path d="M48.3522 478.592C52.6719 479.296 57.1587 478.103 61.4068 477.494C61.4968 477.471 61.5802 477.428 61.6508 477.368C61.7214 477.307 61.7773 477.232 61.8142 477.147C61.851 477.061 61.8679 476.969 61.8635 476.876C61.859 476.783 61.8335 476.693 61.7887 476.611C61.8059 476.599 61.82 476.583 61.8297 476.565C61.8394 476.546 61.8445 476.525 61.8445 476.504C61.8445 476.483 61.8394 476.462 61.8297 476.443C61.82 476.425 61.8059 476.409 61.7887 476.397C58.4222 473.315 54.3085 471.168 49.8557 470.168C47.2424 469.643 43.5313 470.311 43.1136 473.557C42.696 476.611 45.8343 478.175 48.3522 478.592ZM45.3809 475.728C42.0635 471.433 48.4596 471.158 50.3688 471.623C51.5881 471.939 52.7842 472.337 53.9487 472.817C56.361 473.858 58.7188 475.021 61.013 476.301C58.9009 476.48 56.8246 476.826 54.7244 477.089C52.2423 477.411 47.2185 478.103 45.3809 475.728Z" fill="#263238"/>
<path d="M88.244 213.824C88.244 213.824 87.2059 235.304 82.2776 252.248C81.8838 253.656 81.4542 255.029 81.0007 256.353C76.5081 258.178 72.1905 260.406 68.1012 263.012C68.1012 263.012 67.5881 280.255 67.075 299.503C66.5022 320.982 65.8817 344.991 66.0249 350.087C66.4783 369.179 63.6383 473.795 63.6383 473.795L10.7634 474.01C10.7634 474.01 20.3098 357.067 20.3098 350.134C20.2024 338.929 22.8634 289.384 24.9278 253.263C26.1211 230.996 27.219 213.884 27.219 213.884L88.244 213.824Z" fill="#37474F"/>
<path d="M61.7888 464.381C53.7102 464.249 56.0252 464.178 47.9585 464.13C43.9968 464.13 18.0307 463.987 14.3434 464.619C14.3213 464.619 14.3 464.628 14.2844 464.644C14.2687 464.659 14.2599 464.681 14.2599 464.703C14.2599 464.725 14.2687 464.746 14.2844 464.762C14.3 464.778 14.3213 464.786 14.3434 464.786C18.0307 465.383 44.0087 465.037 47.9585 464.989C56.0371 464.87 53.7102 464.822 61.7888 464.619C61.8205 464.619 61.8508 464.607 61.8732 464.584C61.8956 464.562 61.9081 464.532 61.9081 464.5C61.9081 464.468 61.8956 464.438 61.8732 464.416C61.8508 464.393 61.8205 464.381 61.7888 464.381Z" fill="#263238"/>
<path d="M31.6223 221.485C30.6438 250.984 29.6176 280.482 28.293 309.956C26.9685 339.431 25.1905 369.12 22.7203 398.618C21.3361 415.109 20.0235 438.307 18.2455 454.703C18.2455 454.81 18.4006 454.858 18.4245 454.703C22.2669 425.443 24.3909 389.275 26.3122 359.824C28.2334 330.374 29.4863 300.899 30.4887 271.425C31.0615 254.719 31.4911 238.013 31.9922 221.378C31.9564 221.247 31.6343 221.247 31.6223 221.485Z" fill="#263238"/>
<path d="M83.2681 255.076C77.993 257.279 72.9185 259.934 68.1014 263.012C68.0685 263.038 68.0458 263.075 68.0374 263.116C68.0289 263.157 68.0352 263.2 68.0551 263.237C68.075 263.274 68.1073 263.302 68.1463 263.318C68.1853 263.334 68.2285 263.335 68.2684 263.322C73.3638 260.84 78.5666 258.453 83.5307 255.697C83.5937 255.651 83.6392 255.585 83.66 255.51C83.6808 255.434 83.6756 255.354 83.6452 255.283C83.6148 255.211 83.561 255.151 83.4926 255.114C83.4241 255.076 83.345 255.063 83.2681 255.076Z" fill="#263238"/>
<path d="M83.5186 236.892C83.1606 238.765 82.7072 240.627 82.3253 242.5C81.9434 244.374 81.669 246.08 81.2036 247.775C80.8184 249.449 79.966 250.98 78.7454 252.19C78.0652 252.822 77.3015 253.383 76.5736 253.98L75.3803 254.923C75.3803 254.672 75.4877 254.421 75.5235 254.159C75.6548 253.443 75.7741 252.739 75.8934 252.023C76.156 250.436 76.4066 248.849 76.6571 247.25C77.1345 244.123 77.5641 240.973 78.2204 237.894C78.2204 237.763 78.0533 237.715 78.0294 237.894C77.2538 240.949 76.3946 243.968 75.7144 247.059C75.3803 248.574 74.199 256.044 74.1512 256.605C74.1035 257.166 74.0438 257.703 74.0319 258.252C73.9536 258.806 73.9536 259.368 74.0319 259.922C74.0319 260.066 74.2228 260.042 74.2825 259.922C74.5148 259.406 74.6754 258.86 74.7598 258.3C74.903 257.774 75.0223 257.226 75.1178 256.689C75.1178 256.498 75.1178 256.295 75.2013 256.092C75.9412 255.65 76.6214 255.054 77.3135 254.553C78.0056 254.051 78.817 253.491 79.5091 252.906C80.7659 251.79 81.6596 250.322 82.0747 248.694C82.5292 246.934 82.8247 245.136 82.9577 243.324C83.1964 241.2 83.3635 239.064 83.6618 236.952C83.7334 236.761 83.5425 236.761 83.5186 236.892Z" fill="#263238"/>
<path d="M64.1754 165.246C68.2684 177.572 86.5974 216.76 94.2942 219.505C102.313 222.345 133.279 225.889 140.152 220.483C143.518 217.822 144.687 189.458 140.152 190.174C135.618 190.89 108.315 191.88 105.07 190.723C101.824 189.565 80.1417 158.002 71.3352 150.318C56.1446 137.132 61.9917 158.599 64.1754 165.246Z" fill="#F7A9A0"/>
<path d="M133.303 189.695L132.861 225.005C132.861 225.005 101.108 225.088 92.6473 220.637C84.1868 216.186 66.2874 175.388 61.8125 159.779C57.3377 144.171 64.4975 141.761 75.8696 153.216C87.2417 164.672 104.342 188.681 106.37 189.17C108.399 189.659 133.303 189.695 133.303 189.695Z" fill="#698AFF"/>
<path d="M90.9288 170.663C84.3952 171.759 78.0686 173.851 72.1703 176.868L71.0963 177.429C70.8218 177.56 70.5593 177.703 70.2968 177.858C69.7717 178.133 69.2586 178.419 68.7455 178.729L68.5188 178.157L69.6047 177.524L70.3922 177.106C70.8815 176.832 71.3827 176.558 71.8839 176.307C74.9128 174.735 78.0706 173.426 81.3228 172.393C84.333 171.418 87.4125 170.672 90.5351 170.162L90.9288 170.663ZM98.017 179.577C97.4541 179.872 96.8766 180.139 96.2867 180.376C94.7625 181.018 93.1559 181.444 91.5136 181.641C90.6783 181.736 89.8429 181.88 89.0076 181.927L86.4898 181.999C83.1213 181.908 79.7975 181.204 76.6809 179.923C74.8074 179.195 72.9817 178.312 71.156 177.429C70.9173 177.333 70.6906 177.214 70.4519 177.106C69.8791 176.844 69.2586 176.57 68.7216 176.319L68.1608 176.08L67.6357 175.854L67.8386 176.355C67.8386 176.498 67.9579 176.641 68.0057 176.784H68.1131L69.6524 177.476L70.3445 177.811C72.3254 178.753 74.3182 179.756 76.3945 180.567C79.5945 181.883 83.0071 182.607 86.4659 182.703L89.0434 182.643C89.9026 182.643 90.7618 182.441 91.609 182.345C93.3319 182.146 95.0187 181.708 96.6209 181.044C97.2855 180.783 97.9348 180.484 98.5659 180.149L98.017 179.577ZM85.7977 164.374C83.5649 165.41 81.3935 166.573 79.2942 167.858C75.3448 170.289 71.6012 173.038 68.1011 176.08L67.7789 176.355C67.7789 176.498 67.8983 176.641 67.946 176.784V176.88C67.946 176.88 67.946 176.88 68.0176 176.88C68.2205 176.701 68.4114 176.522 68.6142 176.367C72.0526 173.437 75.7198 170.788 79.5806 168.443C81.7199 167.164 83.9223 165.993 86.1795 164.935L85.7977 164.374Z" fill="white"/>
<path d="M124.055 207.131C124.055 204.327 124.258 193.146 124.508 190.425H124.592C124.866 193.122 125.009 204.16 124.997 206.964C125.09 212.54 124.878 218.117 124.365 223.67C124.358 223.688 124.346 223.704 124.33 223.715C124.314 223.726 124.295 223.732 124.276 223.732C124.256 223.732 124.237 223.726 124.221 223.715C124.205 223.704 124.193 223.688 124.186 223.67C123.768 218.169 123.995 212.644 124.055 207.131Z" fill="#263238"/>
<path opacity="0.1" d="M61.7888 159.768C66.2636 175.389 84.1631 216.176 92.6235 220.627C96.6807 222.763 106.084 223.86 114.783 224.409L64.951 146.069C60.691 145.616 59.08 150.234 61.7888 159.768Z" fill="black"/>
<path d="M21.6702 245.672C21.8611 245.863 99.3298 240.565 99.9742 239.706C100.881 238.513 76.3589 159.755 70.2134 148.24C67.6001 143.312 55.0705 142.596 50.1183 147.261C37.72 158.92 29.0925 196.616 27.2787 207.917C24.2716 226.556 20.9781 244.992 21.6702 245.672Z" fill="#698AFF"/>
<path d="M95.8335 224.038L93.6617 222.761C90.7344 221.056 87.7191 219.507 84.6285 218.12L82.934 217.38L82.1106 217.046C79.8285 216.103 77.4889 215.306 75.106 214.659C71.8493 213.75 68.5125 213.159 65.142 212.893C58.3783 212.6 51.6103 213.365 45.0827 215.16L43.8894 215.494C43.5911 215.566 43.3047 215.649 43.0183 215.745C38.47 217.135 34.0504 218.916 29.8085 221.067C28.6152 221.628 27.4219 222.26 26.3241 222.845L25.9661 223.036L24.6535 223.74L24.7609 223.131L26.1093 222.439C27.4458 221.711 28.7942 221.007 30.1546 220.351C31.2763 219.778 32.4218 219.241 33.5674 218.728C36.4489 217.407 39.4054 216.255 42.4216 215.28L43.2927 215.029C43.8297 214.85 44.3667 214.695 44.9156 214.552C48.203 213.627 51.565 212.992 54.9632 212.654C58.355 212.286 61.7715 212.198 65.1778 212.392C71.169 212.904 77.0391 214.374 82.5641 216.747L83.3755 217.105L84.7955 217.738C87.8908 219.164 90.9064 220.757 93.8288 222.511L95.6903 223.609L95.8335 224.038ZM91.824 210.912C89.8432 212.105 87.91 213.299 85.9888 214.564C84.7955 215.303 83.7096 216.055 82.5641 216.783L82.1106 217.081C80.5474 218.084 78.9603 219.05 77.3374 219.957C74.4321 221.655 71.2675 222.865 67.9701 223.537C66.3232 223.853 64.6403 223.937 62.9702 223.788C62.1349 223.704 61.2876 223.68 60.4642 223.561L57.9822 223.119C54.7047 222.335 51.596 220.964 48.8058 219.074C47.1232 217.976 45.5242 216.688 43.9013 215.494L43.2808 215.029C42.7796 214.647 42.2665 214.265 41.7534 213.907L41.2641 213.549L40.5482 213.06C37.7056 211.036 34.3336 209.887 30.8467 209.755C29.4709 209.78 28.1117 210.059 26.8372 210.578L26.7298 211.222C28.0318 210.68 29.4245 210.388 30.8347 210.363C34.1949 210.524 37.4344 211.665 40.1544 213.645L40.572 213.931L41.0613 214.277C41.5147 214.599 41.9682 214.933 42.4097 215.28L43.0302 215.745C44.7844 217.081 46.5266 218.466 48.4 219.683C51.2573 221.625 54.4433 223.032 57.8032 223.835L60.3569 224.301C61.2041 224.42 62.0633 224.456 62.9224 224.539C64.6522 224.689 66.3941 224.604 68.1013 224.289C71.4663 223.593 74.6924 222.343 77.6477 220.59C79.4257 219.587 81.156 218.501 82.8624 217.38L83.3039 217.105L86.311 215.136C88.1726 213.943 90.058 212.75 91.9672 211.556L91.824 210.912ZM90.5114 206.688C88.4387 206.018 86.3315 205.46 84.1989 205.017C80.8417 204.338 77.4208 204.026 73.9962 204.086C70.5708 204.151 67.1573 204.51 63.7935 205.16C60.432 205.794 57.1246 206.688 53.9011 207.833C49.5417 209.4 45.319 211.324 41.2761 213.585C41.0374 213.704 40.8107 213.836 40.584 213.967C38.8895 214.91 37.2308 215.888 35.5841 216.902C33.7583 218.024 31.9445 219.182 30.1546 220.351C28.7584 221.246 27.3742 222.165 25.99 223.072L24.6535 223.943C24.6535 224.134 24.5938 224.313 24.5699 224.492C26.336 223.37 28.0782 222.224 29.8324 221.103C31.0257 220.303 32.3144 219.504 33.5674 218.716C34.3192 218.239 35.0709 217.774 35.8346 217.32C37.553 216.282 39.3071 215.268 41.0732 214.301L41.7653 213.931C45.7263 211.762 49.8567 209.919 54.1159 208.418C60.5089 206.141 67.2141 204.861 73.9962 204.623C77.3864 204.545 80.7751 204.833 84.1034 205.483C86.3259 205.93 88.5211 206.504 90.6785 207.201C90.6188 206.998 90.5591 206.819 90.5114 206.652V206.688Z" fill="white"/>
<path d="M39.7127 156.213C19.1522 178.885 -4.03347 217.202 5.88281 225.424C14.9518 232.894 48.03 225.782 68.8291 217.655C72.7908 216.104 56.7291 181.093 52.6957 183.169C48.4491 185.43 44.0651 187.422 39.5695 189.136C38.3762 189.446 44.6768 181.809 51.6456 163.456C58.6861 144.709 51.4667 143.241 39.7127 156.213Z" fill="#F7A9A0"/>
<path d="M103.232 180.519C103.232 184.589 93.2201 183.789 93.2201 183.789C94.6795 184.739 95.7602 186.171 96.275 187.834C97.0267 190.829 92.6951 193.335 92.6951 193.335C93.9955 194.64 94.8799 196.301 95.2368 198.109C95.6664 201.044 91.6569 204.206 91.6569 204.206C92.1873 206.081 92.0264 208.084 91.2035 209.851C88.8169 214.492 80.7979 214.624 75.8458 215.626C70.2968 216.909 64.8614 218.641 59.5931 220.805L50.3809 184.231C50.3809 184.231 71.8602 171.474 77.8266 171.761C82.8623 172.107 103.208 174.29 103.232 180.519Z" fill="#F7A9A0"/>
<path d="M93.1364 183.67C87.8143 182.119 82.1342 181.856 76.657 181.653C76.5377 181.653 76.5258 181.832 76.657 181.844C82.1223 181.975 87.6711 183.575 93.1006 183.932C93.1354 183.937 93.1707 183.928 93.1987 183.907C93.2266 183.885 93.245 183.854 93.2498 183.819C93.2545 183.784 93.2452 183.749 93.224 183.721C93.2027 183.693 93.1712 183.675 93.1364 183.67Z" fill="#263238"/>
<path d="M92.516 192.965C91.2736 192.731 90.0056 192.663 88.7452 192.762C87.4087 192.762 86.0723 192.822 84.7358 192.881C82.0548 193.001 79.3819 193.191 76.7168 193.454C76.5975 193.454 76.5856 193.645 76.7168 193.645C79.3898 193.526 82.0628 193.442 84.7238 193.43H88.7333C89.9947 193.534 91.2637 193.494 92.516 193.311C92.549 193.295 92.5768 193.271 92.5964 193.24C92.6159 193.21 92.6263 193.174 92.6263 193.138C92.6263 193.101 92.6159 193.066 92.5964 193.035C92.5768 193.005 92.549 192.98 92.516 192.965Z" fill="#263238"/>
<path d="M91.466 204.314C90.3409 204.117 89.1902 204.117 88.0651 204.314L84.4614 204.541C82.0748 204.672 79.5808 204.815 77.1345 204.863C77.1092 204.863 77.0849 204.873 77.067 204.891C77.0491 204.909 77.0391 204.933 77.0391 204.958C77.0391 204.984 77.0491 205.008 77.067 205.026C77.0849 205.044 77.1092 205.054 77.1345 205.054C79.6166 205.054 82.0986 205.054 84.5807 204.946L88.2322 204.839C89.3447 204.906 90.4604 204.773 91.5257 204.445C91.5431 204.437 91.5566 204.423 91.5633 204.405C91.57 204.387 91.5694 204.367 91.5615 204.35C91.5535 204.332 91.539 204.319 91.5211 204.312C91.5032 204.305 91.4834 204.306 91.466 204.314Z" fill="#263238"/>
<path d="M49.3427 183.932L57.2662 223.311C57.2662 223.311 8.0189 236.163 2.9116 223.705C-2.1957 211.247 26.7775 164.983 43.4836 151.785C60.1897 138.587 53.913 159.374 53.3999 161.045C51.1446 168.431 40.6436 187.691 40.6436 187.691L49.3427 183.932Z" fill="#698AFF"/>
<path d="M57.2661 223.264C57.2661 223.264 8.01888 236.116 2.91158 223.658C0.167001 216.952 7.27904 200.472 17.0283 184.613L17.1834 184.363L17.3862 184.041C17.4459 183.933 17.5175 183.826 17.5891 183.718C21.11 178.043 24.9175 172.551 28.997 167.263L29.4147 166.726C33.5238 161.223 38.2347 156.196 43.4597 151.738C60.1658 138.54 53.8891 159.327 53.376 160.998C53.2209 161.523 53.018 162.108 52.7794 162.74C52.6839 162.979 52.5884 163.241 52.481 163.504C51.1087 167.012 48.9012 171.738 46.6697 176.081L46.4072 176.606C46.4072 176.606 46.4072 176.726 46.3236 176.773L46.1804 177.048C43.3523 182.621 40.7867 187.346 40.6316 187.632L49.3427 183.933L57.2661 223.264Z" fill="#698AFF"/>
<path d="M46.6698 176.081L46.4073 176.606C46.4073 176.606 46.4073 176.726 46.3238 176.773L45.7271 177.155L40.8704 180.317C38.02 182.195 35.0414 183.869 31.9565 185.329C30.3948 186.049 28.7579 186.594 27.076 186.952C25.3733 187.349 23.5967 187.295 21.9209 186.797C21.5033 186.678 21.0737 186.582 20.7276 186.451L19.5343 185.938C18.7412 185.599 17.9752 185.2 17.2432 184.745L17.0642 184.637L17.2193 184.387L17.4222 184.064C17.4759 184.116 17.5361 184.16 17.6012 184.196L17.7683 184.291C18.4115 184.715 19.0902 185.082 19.7969 185.389L20.9901 185.89L22.1834 186.236C23.771 186.72 25.4573 186.782 27.076 186.415C28.7188 186.074 30.3194 185.554 31.8491 184.864C34.913 183.438 37.8754 181.803 40.7153 179.971L44.5935 177.489L45.6078 176.833L46.6698 176.081ZM45.4766 176.809C39.3549 178.301 33.3527 180.198 27.243 181.69C24.045 182.489 20.7992 183.193 17.5415 183.718C17.4699 183.826 17.3983 183.933 17.3387 184.041L17.1358 184.363L17.6847 184.267C20.9424 183.718 24.1762 182.99 27.3743 182.179C33.114 180.735 38.7464 178.945 44.4623 177.465L45.6555 177.155C45.7987 177.155 45.9539 177.072 46.109 177.048L46.2522 176.773C46.2522 176.773 46.2522 176.666 46.3357 176.606L45.4766 176.809ZM45.8703 166.893C44.3851 167.693 42.8317 168.36 41.2284 168.886C39.6564 169.422 37.9919 169.633 36.3359 169.506C33.8233 169.153 31.4328 168.199 29.3671 166.726L28.9494 167.263C31.1223 168.789 33.6319 169.767 36.2643 170.115C38.0081 170.241 39.7591 170.005 41.4074 169.423C43.0598 168.886 44.6579 168.195 46.1806 167.358C48.349 166.182 50.4559 164.895 52.4931 163.504C52.6005 163.241 52.696 162.979 52.7914 162.74C50.574 164.243 48.2798 165.629 45.9181 166.893H45.8703Z" fill="white"/>
<path d="M48.4954 183.969C42.8392 185.95 28.0185 193.348 24.7608 196.379C24.7469 196.397 24.7391 196.419 24.7388 196.442C24.7384 196.465 24.7454 196.488 24.7588 196.507C24.7721 196.525 24.7911 196.539 24.813 196.546C24.8348 196.553 24.8583 196.553 24.8801 196.546C28.0782 194.291 46.3594 185.329 49.2591 184.231C49.2591 184.231 49.4023 184.577 49.462 184.673C49.5217 184.768 49.6291 184.732 49.6291 184.601C49.5784 184.279 49.5067 183.96 49.4143 183.646L48.4954 183.969Z" fill="#263238"/>
<path d="M44.2833 205.973C43.7463 203.229 41.6938 192.227 41.3955 189.458C41.3955 189.458 41.3955 189.398 41.4671 189.458C42.2785 192.036 44.6174 202.835 45.1663 205.58C46.3804 211.038 47.2926 216.56 47.899 222.119C47.899 222.214 47.7558 222.274 47.72 222.119C46.2761 216.844 45.3334 211.379 44.2833 205.973Z" fill="#263238"/>
<path d="M40.2378 187.835C41.7772 184.482 43.6626 181.296 45.3571 178.026C47.0515 174.756 48.8057 171.511 50.3808 168.205H50.4524C49.4978 170.46 48.5432 172.716 47.5169 174.935C47.8272 174.589 48.1136 174.219 48.4 173.849C48.925 173.181 49.4023 172.477 49.8796 171.773C49.8796 171.773 49.9632 171.773 49.9512 171.773C49.5798 172.563 49.1194 173.307 48.579 173.993C48.1795 174.507 47.7406 174.99 47.2663 175.436C46.8487 176.343 46.4072 177.25 45.9537 178.145C44.4844 181.476 42.7652 184.692 40.8106 187.763C40.739 187.99 40.1782 187.99 40.2378 187.835Z" fill="#263238"/>
<path d="M23.8897 228.812C29.701 228.741 51.6457 224.433 57.0752 223.311C57.0036 222.739 57.0752 222.536 56.932 221.724C56.932 221.617 57.0871 221.569 57.111 221.724C57.2542 222.5 57.7792 224.039 57.5644 224.111C54.9511 225.137 29.5936 229.564 23.8897 229.087C23.8717 229.087 23.8538 229.083 23.8372 229.076C23.8205 229.07 23.8054 229.059 23.7926 229.047C23.7799 229.034 23.7698 229.019 23.7629 229.002C23.756 228.986 23.7524 228.968 23.7524 228.95C23.7524 228.932 23.756 228.914 23.7629 228.897C23.7698 228.88 23.7799 228.865 23.7926 228.853C23.8054 228.84 23.8205 228.83 23.8372 228.823C23.8538 228.816 23.8717 228.812 23.8897 228.812Z" fill="#263238"/>
<path d="M82.9817 224.838L123.84 230.34L139.341 173.551L98.4826 168.062L82.9817 224.838Z" fill="#263238"/>
<path d="M84.9983 225.101L125.845 230.602L141.346 173.825L100.499 168.324L84.9983 225.101Z" fill="#37474F"/>
<path d="M118.876 197.655C118.621 198.716 117.986 199.646 117.091 200.271C116.196 200.895 115.103 201.17 114.019 201.044C113.508 200.99 113.014 200.826 112.572 200.564C112.129 200.302 111.749 199.948 111.455 199.525C111.162 199.103 110.963 198.623 110.872 198.116C110.781 197.61 110.801 197.091 110.929 196.593C111.184 195.531 111.818 194.599 112.713 193.972C113.607 193.346 114.7 193.068 115.785 193.192C116.298 193.246 116.793 193.409 117.236 193.672C117.68 193.935 118.061 194.29 118.355 194.714C118.648 195.138 118.847 195.62 118.937 196.127C119.027 196.635 119.006 197.156 118.876 197.655Z" fill="white"/>
<path d="M140.94 185.531C142.646 190.304 147.515 196.521 147.587 200.292C147.635 201.221 147.384 202.141 146.871 202.916C146.357 203.692 145.609 204.282 144.735 204.6C144.735 204.6 148.314 206.832 147.754 210.256C147.503 212.022 144.448 213.168 144.448 213.168C145.22 213.715 145.826 214.465 146.199 215.334C146.572 216.204 146.697 217.16 146.56 218.096C146.059 220.483 143.076 221.282 143.076 221.282C143.076 221.282 144.866 224.349 143.565 226.64C140.916 231.282 119.902 229.146 117.444 221.068C116.251 217.309 121.394 218.108 121.394 218.108C121.394 218.108 114.329 215.185 114.664 210.841C114.998 206.497 121.561 207.929 121.561 207.929C121.561 207.929 114.747 205.042 115.594 200.567C116.442 196.092 122.754 198.478 122.754 198.478C122.754 198.478 118.399 194.899 119.795 191.557C122.098 186.128 130.236 194.075 134.962 193.443L138.291 186.08L140.94 185.531Z" fill="#F7A9A0"/>
<path d="M144.484 192.608C143.291 187.942 149.4 182.954 148.875 178.288C148.171 172.023 140.665 177.333 138.231 186.068L137.527 193.228L144.484 192.608Z" fill="#F7A9A0"/>
<path d="M142.634 221.473C142.65 221.473 142.665 221.48 142.677 221.491C142.688 221.502 142.694 221.517 142.694 221.533C142.694 221.549 142.688 221.564 142.677 221.575C142.665 221.586 142.65 221.593 142.634 221.593C135.286 222.626 127.797 221.407 121.155 218.096C120.94 217.989 121.036 217.595 121.286 217.679C128.181 219.973 135.372 221.251 142.634 221.473Z" fill="#263238"/>
<path d="M144.544 213.216C144.627 213.216 144.627 213.359 144.544 213.371C136.417 214.449 128.173 212.587 121.298 208.121C121.06 207.953 121.012 207.572 121.298 207.739C126.107 210.507 137.718 213.108 144.544 213.216Z" fill="#263238"/>
<path d="M122.301 197.977C129.067 202.285 136.525 203.943 144.436 204.648C144.532 204.648 144.52 204.803 144.436 204.815C140.475 205.554 135.475 204.612 131.656 203.55C128.081 202.635 124.809 200.795 122.17 198.216C122.05 198.108 122.158 197.882 122.301 197.977Z" fill="#263238"/>
<path d="M71.6573 151.271C71.8005 154.85 71.9079 162.977 66.3949 162.368C64.179 161.928 62.1367 160.859 60.512 159.29C58.7729 157.846 57.1999 156.213 55.8223 154.421C54.2421 152.474 52.8214 150.403 51.5742 148.228C51.5742 148.144 51.3833 148.228 51.4429 148.323C52.7078 150.507 53.7579 152.762 55.2376 154.827C56.6348 156.827 58.2967 158.63 60.1779 160.184C61.9446 161.826 64.1734 162.884 66.562 163.215C67.5864 163.288 68.6041 163.002 69.4419 162.408C70.2796 161.814 70.8854 160.948 71.1562 159.958C71.971 157.136 72.1423 154.167 71.6573 151.271Z" fill="#263238"/>
<path d="M66.2276 158.778C62.242 159.124 55.7267 151.618 53.8174 146.523C54.3181 143.867 54.9513 141.239 55.7147 138.647C56.3233 136.129 56.908 133.301 57.3376 130.688L73.1607 137.072C71.7481 140.209 70.7223 143.507 70.1059 146.892C70.0707 147.254 70.0707 147.617 70.1059 147.978C70.1059 147.978 70.1059 148.098 70.1059 148.157C70.1417 150.246 70.0701 158.444 66.2276 158.778Z" fill="#F7A9A0"/>
<path d="M70.0582 147.978C70.0643 148.038 70.0643 148.098 70.0582 148.157C69.4905 148.154 68.924 148.106 68.3637 148.014C58.889 146.403 58.352 134.458 58.3997 131.129L62.3615 132.716L73.1011 137.072C71.6889 140.208 70.667 143.507 70.0582 146.892C70.0235 147.253 70.0235 147.617 70.0582 147.978Z" fill="#263238"/>
<path d="M55.524 112.789C53.8773 118.755 57.4094 135.617 61.6814 139.292C67.8865 144.638 77.8147 144.912 82.3015 137.502C86.6451 130.342 81.6572 108.374 76.8959 105.056C69.8913 100.152 57.9464 104.03 55.524 112.789Z" fill="#F7A9A0"/>
<path d="M72.1944 123.456C72.1944 123.456 72.1228 123.528 72.1944 123.575C72.4569 124.709 72.5762 126.057 71.6216 126.642C71.6216 126.642 71.6216 126.714 71.6216 126.702C72.8029 126.272 72.6359 124.494 72.1944 123.456Z" fill="#263238"/>
<path d="M70.9414 122.478C69.0799 122.717 69.7481 126.416 71.4068 126.201C73.0655 125.986 72.5285 122.287 70.9414 122.478Z" fill="#263238"/>
<path d="M78.6738 122.203C78.6738 122.203 78.7812 122.203 78.7812 122.299C78.9363 123.492 79.3062 124.745 80.4041 124.96V125.019C79.1034 125.019 78.638 123.301 78.6738 122.203Z" fill="#263238"/>
<path d="M79.5092 120.819C81.335 120.377 82.0868 124.053 80.3923 124.399C78.6978 124.745 77.9818 121.189 79.5092 120.819Z" fill="#263238"/>
<path d="M69.1993 121.01C69.665 120.795 70.1155 120.547 70.5477 120.271C71.0482 120.076 71.4686 119.719 71.741 119.256C71.8024 119.091 71.8076 118.911 71.7559 118.742C71.7041 118.574 71.5982 118.427 71.4546 118.326C71.142 118.166 70.7923 118.093 70.442 118.114C70.0916 118.135 69.7532 118.249 69.4618 118.445C68.8146 118.751 68.3043 119.287 68.0299 119.948C67.9685 120.108 67.9568 120.282 67.9963 120.448C68.0358 120.614 68.1246 120.765 68.251 120.88C68.3775 120.995 68.5357 121.068 68.7049 121.092C68.8741 121.115 69.0465 121.087 69.1993 121.01Z" fill="#263238"/>
<path d="M80.7025 119.685C80.1775 119.685 79.6882 119.59 79.1632 119.542C78.6156 119.567 78.0748 119.412 77.6238 119.1C77.5039 118.972 77.4286 118.809 77.4093 118.635C77.3899 118.461 77.4275 118.285 77.5164 118.134C77.7399 117.864 78.0314 117.659 78.3607 117.539C78.6901 117.42 79.0453 117.39 79.3899 117.454C80.1095 117.473 80.7954 117.763 81.3111 118.265C81.4214 118.385 81.4947 118.535 81.5221 118.696C81.5495 118.856 81.5299 119.022 81.4657 119.172C81.4014 119.322 81.2952 119.45 81.1598 119.541C81.0244 119.632 80.8656 119.682 80.7025 119.685Z" fill="#263238"/>
<path d="M72.3615 134.196C72.6535 134.489 73.0364 134.674 73.4474 134.721C73.8756 134.639 74.282 134.468 74.6406 134.22C74.6406 134.22 74.7242 134.22 74.6406 134.28C74.511 134.531 74.3166 134.744 74.0774 134.895C73.8382 135.046 73.563 135.13 73.2803 135.139C73.0377 135.113 72.8079 135.017 72.6193 134.862C72.4306 134.707 72.2912 134.501 72.2183 134.268C72.2421 134.208 72.3257 134.137 72.3615 134.196Z" fill="#263238"/>
<path d="M73.0057 130.293C73.3733 130.699 73.8204 131.025 74.3192 131.251C74.818 131.477 75.3579 131.597 75.9054 131.606C76.3841 131.615 76.8619 131.559 77.3254 131.439L77.5879 131.367L77.8266 131.284C77.8872 131.263 77.939 131.222 77.9737 131.168C78.0083 131.114 78.0237 131.049 78.0175 130.985C78.0244 130.946 78.0244 130.906 78.0175 130.866V130.771C77.8982 129.876 77.5879 128.551 77.5879 128.551C77.934 128.659 79.712 129.136 79.6046 128.67C78.853 124.705 77.6974 120.826 76.156 117.096C76.1486 117.074 76.1349 117.056 76.1167 117.043C76.0986 117.03 76.0768 117.023 76.0545 117.023C76.0322 117.023 76.0105 117.03 75.9923 117.043C75.9741 117.056 75.9604 117.074 75.9531 117.096C76.6213 120.771 77.9459 124.255 78.6857 127.966C78.0529 127.789 77.3977 127.705 76.7407 127.716C76.6213 127.716 77.385 130.27 77.397 130.675C76.685 130.865 75.9421 130.911 75.2124 130.808C74.4826 130.706 73.7809 130.458 73.1488 130.079C73.0057 130.114 72.9221 130.21 73.0057 130.293Z" fill="#263238"/>
<path d="M76.8005 131.224C76.4197 131.919 75.8697 132.506 75.2015 132.931C74.8406 133.141 74.4246 133.237 74.0082 133.205C73.0655 133.122 72.9104 132.298 72.9581 131.559C72.9832 131.153 73.0594 130.752 73.1848 130.365C74.2698 131.025 75.5349 131.325 76.8005 131.224Z" fill="#263238"/>
<path d="M75.2015 132.944C74.8406 133.154 74.4246 133.25 74.0082 133.218C73.0655 133.135 72.9104 132.311 72.9581 131.572C73.4312 131.519 73.9083 131.626 74.3144 131.874C74.7204 132.123 75.0325 132.499 75.2015 132.944Z" fill="#FF9ABB"/>
<path d="M80.1418 109.983C79.1871 108.659 78.1371 107.334 77.1824 107.227C76.2278 107.119 76.1204 109.411 74.1395 109.983C71.4546 110.747 69.605 108.54 65.7865 109.088C60.2376 109.888 58.8176 114.971 60.357 122.74C61.7293 129.685 57.6959 131.236 57.6959 131.236C57.6959 131.236 51.8726 116.523 55.0826 110.544C58.2926 104.566 67.6838 100.21 75.3686 103.611C78.1012 104.84 80.1418 109.983 80.1418 109.983Z" fill="#263238"/>
<path d="M60.4999 127.382C60.4999 127.382 56.4069 122.072 53.9845 123.551C51.5621 125.031 54.796 132.859 57.7792 133.814C58.1512 133.963 58.5498 134.036 58.9507 134.027C59.3517 134.018 59.7466 133.928 60.1115 133.761C60.4764 133.595 60.8038 133.356 61.0736 133.06C61.3435 132.763 61.5502 132.415 61.6813 132.036L60.4999 127.382Z" fill="#F7A9A0"/>
<path d="M54.9631 125.783C54.9631 125.783 54.9631 125.783 54.9631 125.867C55.9231 126.293 56.7832 126.916 57.4881 127.695C58.193 128.474 58.7271 129.392 59.0561 130.389C58.9271 130.189 58.7562 130.02 58.5552 129.892C58.3543 129.764 58.128 129.682 57.8921 129.65C57.6562 129.618 57.4162 129.638 57.1887 129.708C56.9611 129.778 56.7514 129.896 56.5741 130.055C56.5741 130.055 56.5741 130.175 56.6337 130.163C56.9894 130.029 57.3777 130.009 57.7453 130.105C58.1129 130.201 58.4416 130.409 58.6862 130.7C59.0813 131.195 59.4289 131.726 59.7244 132.287C59.8198 132.466 60.154 132.358 60.0704 132.143C59.9869 129.47 57.7912 125.903 54.9631 125.783Z" fill="#263238"/>
<path d="M69.7956 101.512C67.4677 100.848 65.0564 100.522 62.6358 100.545C59.9032 100.629 51.5859 102.598 49.8318 104.602C48.0776 106.607 48.7936 114.626 48.9249 115.795C49.0561 116.965 50.6671 123.898 53.4833 125.199C56.2994 126.499 54.6766 114.53 58.0536 109.948C61.4306 105.366 69.7956 101.512 69.7956 101.512Z" fill="#698AFF"/>
<path opacity="0.1" d="M69.7957 101.523C69.7957 101.523 61.4426 105.365 57.994 109.948C54.5454 114.53 56.2279 126.487 53.4356 125.198C52.7847 124.839 52.2113 124.355 51.7484 123.773C51.2856 123.191 50.9424 122.524 50.7388 121.809C50.7388 118.229 51.2758 112.621 53.5907 108.42C55.7625 104.494 60.1658 101.976 65.0822 100.628C66.6763 100.789 68.2534 101.089 69.7957 101.523Z" fill="black"/>
<path d="M55.2256 132.167C54.9511 128.957 56.8484 119.936 59.4737 114.53C62.0989 109.125 71.6095 104.721 73.0057 104.578C76.4185 104.244 77.4209 105.772 77.9101 105.354C78.3994 104.936 74.4137 101.655 73.3636 101.237C71.7972 100.732 70.1376 100.586 68.5069 100.807C67.0392 101.07 58.1253 103.397 55.4404 107.776C52.7555 112.156 49.8557 123.719 51.049 126.356C51.3593 126.988 52.2423 127.275 52.7316 128.182C53.3044 129.375 53.7817 130.747 54.2948 131.559C54.8079 132.37 55.2494 132.442 55.2256 132.167Z" fill="#698AFF"/>
<path d="M59.9033 112.227C59.0754 111.87 58.2773 111.447 57.5167 110.962C56.717 110.482 55.9795 109.905 55.321 109.244C55.321 109.244 55.1898 109.244 55.2375 109.316C55.816 110.081 56.5129 110.75 57.3019 111.297C58.0945 111.827 58.9818 112.199 59.9152 112.394C59.9374 112.393 59.958 112.383 59.9725 112.366C59.9871 112.349 59.9944 112.327 59.9928 112.305C59.9912 112.283 59.9809 112.262 59.9641 112.248C59.9473 112.233 59.9254 112.226 59.9033 112.227Z" fill="#263238"/>
<path d="M54.7004 128.993C54.5692 128.778 54.3902 128.599 54.247 128.397C54.078 128.168 53.9377 127.919 53.8293 127.657C53.6813 127.143 53.4773 126.646 53.2207 126.177C52.9559 125.829 52.6516 125.512 52.3138 125.234C51.9091 124.942 51.6148 124.521 51.4785 124.041H51.3831C51.5263 125.008 52.278 125.592 52.8269 126.332C53.106 126.839 53.3377 127.37 53.5191 127.919C53.7303 128.42 54.0989 128.839 54.5692 129.113C54.6288 129.148 54.7362 129.077 54.7004 128.993Z" fill="#263238"/>
<path d="M55.2493 125.389C54.8913 125.079 54.5214 124.804 54.1873 124.458C53.8532 124.112 53.5907 123.742 53.3162 123.372C53.0417 123.002 52.8269 122.608 52.5644 122.179C52.3019 121.749 51.9081 121.332 51.6217 120.866C51.6217 120.866 51.5024 120.866 51.5382 120.938C51.8365 121.403 52.0394 121.94 52.3138 122.417C52.5598 122.831 52.8307 123.23 53.1253 123.611C53.4037 123.98 53.7152 124.324 54.056 124.637C54.3971 124.965 54.8038 125.217 55.2493 125.377C55.2493 125.377 55.2732 125.413 55.2493 125.389Z" fill="#263238"/>
<path d="M55.9177 122.108C55.1613 121.652 54.4775 121.085 53.8891 120.426C53.3163 119.781 52.7674 119.101 52.2423 118.421C52.2423 118.421 52.123 118.421 52.1588 118.421C52.549 119.229 53.0424 119.983 53.6266 120.664C53.9104 120.998 54.2351 121.295 54.5931 121.547C54.9808 121.805 55.3924 122.025 55.8222 122.204C55.8222 122.204 55.9773 122.204 55.9177 122.108Z" fill="#263238"/>
<path d="M56.7053 118.935C56.3399 118.76 56.0117 118.517 55.7387 118.219C55.4046 117.908 55.0824 117.586 54.7721 117.252C54.4619 116.93 54.1516 116.631 53.8533 116.309C53.531 116.007 53.275 115.642 53.1015 115.235C53.1015 115.235 52.9941 115.235 53.0061 115.235C53.0997 115.671 53.2915 116.079 53.5669 116.429C53.8328 116.853 54.1364 117.252 54.4738 117.622C54.8075 117.966 55.1622 118.289 55.5358 118.589C55.8515 118.877 56.2464 119.064 56.6695 119.125C56.682 119.128 56.6949 119.128 56.7074 119.125C56.7198 119.122 56.7317 119.117 56.7422 119.11C56.7527 119.103 56.7617 119.094 56.7687 119.083C56.7757 119.072 56.7805 119.06 56.7828 119.048C56.7852 119.035 56.785 119.023 56.7824 119.01C56.7798 118.998 56.7747 118.986 56.7675 118.975C56.7603 118.965 56.7511 118.956 56.7404 118.949C56.7298 118.942 56.7178 118.937 56.7053 118.935Z" fill="#263238"/>
<path d="M57.0157 115.044C56.6656 114.805 56.3315 114.555 56.0133 114.292C55.703 114.018 55.3928 113.743 55.0945 113.457C54.7961 113.171 54.4501 112.86 54.1518 112.538C54.1518 112.538 54.0324 112.538 54.0682 112.598C54.2955 112.974 54.555 113.329 54.8439 113.66C55.129 113.983 55.436 114.286 55.7627 114.567C56.0864 114.849 56.4293 115.108 56.7889 115.342C57.1421 115.612 57.549 115.804 57.9822 115.903C57.9921 115.897 58.0002 115.888 58.0057 115.877C58.0113 115.867 58.0142 115.855 58.0142 115.844C58.0142 115.832 58.0113 115.82 58.0057 115.81C58.0002 115.799 57.9921 115.79 57.9822 115.784C57.6836 115.508 57.36 115.26 57.0157 115.044Z" fill="#263238"/>
<path d="M62.0632 110.031C61.6814 109.697 61.3114 109.363 60.8699 109.053C60.4284 108.743 60.0227 108.468 59.5692 108.206C58.7128 107.68 57.8002 107.252 56.8485 106.929C56.8485 106.929 56.7411 106.988 56.8485 107.024C58.543 108.074 60.2971 109.053 61.9916 110.127C62.0043 110.136 62.0202 110.14 62.0358 110.138C62.0515 110.136 62.0656 110.127 62.0751 110.115C62.0846 110.102 62.0887 110.086 62.0865 110.071C62.0842 110.055 62.0759 110.041 62.0632 110.031Z" fill="#263238"/>
<path d="M63.5549 107.012C63.1863 106.691 62.7866 106.407 62.3616 106.165C61.42 105.691 60.4271 105.326 59.4023 105.079C59.3307 105.079 59.2949 105.151 59.4023 105.175C60.3211 105.592 61.2399 105.998 62.123 106.463C62.5526 106.702 62.9941 106.941 63.3998 107.215C63.8055 107.49 64.1516 107.859 64.5931 108.158C64.3288 107.709 63.9755 107.319 63.5549 107.012Z" fill="#263238"/>
<path d="M66.0009 105.354C65.6355 105.025 65.2354 104.737 64.8076 104.495C64.0267 104.021 63.1715 103.682 62.2778 103.492C62.2778 103.492 62.1943 103.576 62.2778 103.6C63.1079 103.924 63.9067 104.324 64.6644 104.793C65.0463 105.032 65.4281 105.294 65.8577 105.557C66.2873 105.819 66.5856 106.153 66.9794 106.368C66.6862 106 66.3586 105.66 66.0009 105.354Z" fill="#263238"/>
<path d="M67.6598 103.468C67.2899 103.253 66.8961 103.051 66.4665 102.86C66.0934 102.65 65.6912 102.497 65.2732 102.406V102.514L67.445 103.79C68.0844 104.233 68.6762 104.741 69.2111 105.306C69.2827 105.306 69.2111 105.306 69.2111 105.306C68.8916 104.551 68.3507 103.91 67.6598 103.468Z" fill="#263238"/>
<path d="M69.9628 102.586C69.2567 102.112 68.4671 101.776 67.6359 101.596C67.5762 101.596 67.5523 101.679 67.6359 101.703C68.4132 101.987 69.1418 102.389 69.7957 102.896C70.4584 103.378 71.0666 103.93 71.6095 104.543C71.6095 104.543 71.6931 104.543 71.6692 104.543C71.2682 103.762 70.6824 103.09 69.9628 102.586Z" fill="#263238"/>
<path d="M75.2493 103.385C75.03 103.166 74.7989 102.959 74.5571 102.765C74.3151 102.572 74.0599 102.397 73.7934 102.239C73.519 102.072 73.2445 101.917 72.982 101.738C72.982 101.738 72.8627 101.798 72.982 101.834C73.2612 101.996 73.5249 102.184 73.7696 102.395L74.4617 102.967L75.1657 103.54C75.3868 103.755 75.622 103.954 75.8698 104.137C75.6922 103.863 75.484 103.611 75.2493 103.385Z" fill="#263238"/>
<path d="M148.219 80.8091C147.722 85.5907 145.905 90.14 142.972 93.9488C140.039 97.7576 136.105 100.676 131.609 102.378C127.113 104.08 122.232 104.499 117.512 103.588C112.792 102.676 108.418 100.47 104.879 97.2169L91.8958 99.1262L98.3873 87.9092C96.8999 84.2598 96.2635 80.3194 96.5264 76.3873C96.7893 72.4551 97.9446 68.6346 99.9047 65.2156C101.865 61.7967 104.578 58.8693 107.838 56.6555C111.099 54.4418 114.821 52.9999 118.721 52.4395C122.622 51.879 126.6 52.2146 130.351 53.4209C134.103 54.6271 137.531 56.6723 140.374 59.4011C143.217 62.1299 145.402 65.4706 146.761 69.1697C148.12 72.8687 148.619 76.8289 148.219 80.7494V80.8091Z" fill="white"/>
<path d="M148.219 80.81C147.714 85.5839 145.901 90.1259 142.981 93.9362C141.553 95.861 139.839 97.5553 137.897 98.96C135.986 100.414 133.876 101.588 131.632 102.444C129.394 103.321 127.045 103.883 124.652 104.115C123.461 104.215 122.265 104.239 121.072 104.187C119.871 104.148 118.674 104.02 117.492 103.805C112.71 102.928 108.267 100.733 104.664 97.4684L104.962 97.5638L91.9674 99.5328L91.0247 99.676L91.502 98.8526L97.9577 87.5998V88.0533C96.4309 84.336 95.7778 80.3178 96.0488 76.3084C96.3198 72.2989 97.5077 68.4052 99.5209 64.9272C101.543 61.4679 104.321 58.5104 107.647 56.2758C111.787 53.5477 116.615 52.0478 121.572 51.9495C126.529 51.8512 131.413 53.1587 135.658 55.7206C139.902 58.2825 143.335 61.994 145.558 66.4257C147.781 70.8574 148.704 75.828 148.219 80.7622V80.81ZM148.219 80.81C148.634 76.9034 148.146 72.9539 146.793 69.2656C145.441 65.5774 143.259 62.2488 140.418 59.5363C137.576 56.8237 134.15 54.7997 130.403 53.62C126.656 52.4402 122.688 52.1364 118.805 52.7317C114.949 53.3079 111.276 54.7568 108.065 56.9679C104.893 59.1964 102.242 62.0872 100.297 65.4403C98.3885 68.8018 97.2628 72.5502 97.0031 76.4067C96.7685 80.2661 97.392 84.1295 98.8288 87.7191L98.9243 87.9459L98.8049 88.1607L92.2657 99.3538L91.8122 98.6736L104.795 96.8478H104.974L105.106 96.9672C108.571 100.213 112.873 102.428 117.528 103.363C118.707 103.605 119.905 103.749 121.108 103.793C122.299 103.878 123.496 103.878 124.688 103.793C127.058 103.609 129.392 103.094 131.621 102.265C133.861 101.456 135.968 100.318 137.873 98.8884C138.836 98.1882 139.753 97.4269 140.618 96.6092C141.467 95.7632 142.264 94.8666 143.005 93.9243C145.915 90.1153 147.72 85.5777 148.219 80.81Z" fill="#263238"/>
<path d="M119.377 92.91L108.304 81.6931L112.027 78.0177L118.494 84.5689L131.943 63.4834L136.358 66.2996L119.377 92.91Z" fill="#698AFF"/>
</svg>
