<svg width="32" height="32" viewBox="0 0 32 32" fill="none" xmlns="http://www.w3.org/2000/svg">
<rect width="32" height="32" rx="16" fill="#DFE6FF"/>
<path d="M10 12H11.3333H22" stroke="#698AFF" stroke-linecap="round" stroke-linejoin="round"/>
<path d="M20.6668 11.9999V21.3333C20.6668 21.6869 20.5264 22.026 20.2763 22.2761C20.0263 22.5261 19.6871 22.6666 19.3335 22.6666H12.6668C12.3132 22.6666 11.9741 22.5261 11.724 22.2761C11.474 22.026 11.3335 21.6869 11.3335 21.3333V11.9999M13.3335 11.9999V10.6666C13.3335 10.313 13.474 9.97382 13.724 9.72378C13.9741 9.47373 14.3132 9.33325 14.6668 9.33325H17.3335C17.6871 9.33325 18.0263 9.47373 18.2763 9.72378C18.5264 9.97382 18.6668 10.313 18.6668 10.6666V11.9999" stroke="#698AFF" stroke-linecap="round" stroke-linejoin="round"/>
</svg>
