<svg width="32" height="32" viewBox="0 0 32 32" fill="none" xmlns="http://www.w3.org/2000/svg">
<rect width="32" height="32" rx="16" fill="#DFE6FF"/>
<g clip-path="url(#clip0_1264_1082)">
<path d="M19.3335 10C19.5086 9.82494 19.7165 9.68605 19.9452 9.59129C20.174 9.49653 20.4192 9.44775 20.6668 9.44775C20.9145 9.44775 21.1596 9.49653 21.3884 9.59129C21.6172 9.68605 21.8251 9.82494 22.0002 10C22.1753 10.1751 22.3142 10.383 22.4089 10.6118C22.5037 10.8406 22.5524 11.0857 22.5524 11.3334C22.5524 11.581 22.5037 11.8262 22.4089 12.055C22.3142 12.2837 22.1753 12.4916 22.0002 12.6667L13.0002 21.6667L9.3335 22.6667L10.3335 19L19.3335 10Z" stroke="#698AFF" stroke-linecap="round" stroke-linejoin="round"/>
</g>
<defs>
<clipPath id="clip0_1264_1082">
<rect width="16" height="16" fill="white" transform="translate(8 8)"/>
</clipPath>
</defs>
</svg>
