<svg width="28" height="28" viewBox="0 0 28 28" fill="none" xmlns="http://www.w3.org/2000/svg">
<path d="M13.1665 7.3335H7.33317C6.89114 7.3335 6.46722 7.50909 6.15466 7.82165C5.8421 8.13421 5.6665 8.55814 5.6665 9.00016V20.6668C5.6665 21.1089 5.8421 21.5328 6.15466 21.8453C6.46722 22.1579 6.89114 22.3335 7.33317 22.3335H18.9998C19.4419 22.3335 19.8658 22.1579 20.1783 21.8453C20.4909 21.5328 20.6665 21.1089 20.6665 20.6668V14.8335" stroke="#698AFF" stroke-linecap="round" stroke-linejoin="round"/>
<path d="M19.4165 6.0832C19.748 5.75168 20.1977 5.56543 20.6665 5.56543C21.1353 5.56543 21.585 5.75168 21.9165 6.0832C22.248 6.41472 22.4343 6.86436 22.4343 7.3332C22.4343 7.80204 22.248 8.25168 21.9165 8.5832L13.9998 16.4999L10.6665 17.3332L11.4998 13.9999L19.4165 6.0832Z" stroke="#698AFF" stroke-linecap="round" stroke-linejoin="round"/>
</svg>
