<svg width="42" height="42" viewBox="0 0 42 42" fill="none" xmlns="http://www.w3.org/2000/svg">
<path d="M22.7063 3.1499H10.7626C9.85755 3.1499 8.98956 3.52603 8.3496 4.19553C7.70963 4.86504 7.3501 5.77308 7.3501 6.7199V35.2799C7.3501 36.2267 7.70963 37.1348 8.3496 37.8043C8.98956 38.4738 9.85755 38.8499 10.7626 38.8499H31.2376C32.1426 38.8499 33.0106 38.4738 33.6506 37.8043C34.2906 37.1348 34.6501 36.2267 34.6501 35.2799V15.6449L22.7063 3.1499Z" stroke="#698AFF" stroke-linecap="round" stroke-linejoin="round"/>
<path d="M22.0498 3.1499V15.7499H34.6498" stroke="#698AFF" stroke-linecap="round" stroke-linejoin="round"/>
<path d="M14.0142 25.5254V31.2129H13.2603V25.5254H14.0142ZM16.397 28.084V28.7012H13.8501V28.084H16.397ZM16.7837 25.5254V26.1426H13.8501V25.5254H16.7837ZM18.6507 25.5254V31.2129H17.8968V25.5254H18.6507ZM23.631 30.5996V31.2129H20.7873V30.5996H23.631ZM20.9357 25.5254V31.2129H20.1818V25.5254H20.9357ZM28.2676 30.5996V31.2129H25.2559V30.5996H28.2676ZM25.4082 25.5254V31.2129H24.6543V25.5254H25.4082ZM27.8692 27.9707V28.584H25.2559V27.9707H27.8692ZM28.2285 25.5254V26.1426H25.2559V25.5254H28.2285Z" fill="#698AFF"/>
</svg>
